<?xml version="1.0" standalone="no"?>
<!DOCTYPE svg PUBLIC "-//W3C//DTD SVG 20010904//EN"
 "http://www.w3.org/TR/2001/REC-SVG-20010904/DTD/svg10.dtd">
<svg version="1.0" xmlns="http://www.w3.org/2000/svg"
 width="800.000000pt" height="800.000000pt" viewBox="0 0 800.000000 800.000000"
 preserveAspectRatio="xMidYMid meet">
<metadata>
Created by potrace 1.11, written by Peter Selinger 2001-2013
</metadata>
<g transform="translate(0.000000,800.000000) scale(0.100000,-0.100000)"
fill="#000000" stroke="none">
<path d="M2677 6843 c-4 -3 -15 -7 -25 -8 -9 -1 -27 -6 -40 -12 l-23 -9 20
-18 c26 -24 26 -27 0 -57 -17 -19 -23 -21 -37 -11 -9 7 -25 15 -34 18 -10 4
-18 11 -18 16 0 16 -29 40 -40 33 -5 -3 -10 -19 -10 -36 0 -16 -5 -29 -11 -29
-5 0 -7 -5 -3 -11 3 -6 2 -14 -5 -18 -7 -5 -8 -17 -1 -40 7 -25 6 -33 -6 -38
-7 -3 -14 -11 -14 -19 0 -18 -5 -18 -36 2 -20 14 -24 23 -19 45 15 83 16 94 5
77 -6 -10 -17 -18 -25 -18 -14 0 -99 -83 -101 -98 0 -4 -3 -14 -7 -22 -8 -22
-18 -70 -23 -110 -4 -32 -13 -58 -35 -102 -6 -11 -5 -18 1 -18 13 0 13 -61 0
-96 -8 -21 -7 -31 6 -45 13 -14 14 -22 5 -32 -8 -11 -8 -21 3 -43 10 -19 12
-32 5 -40 -7 -8 -5 -17 7 -28 11 -11 15 -28 12 -51 -2 -19 -1 -35 4 -35 4 0
10 -23 14 -50 4 -28 11 -53 15 -56 5 -3 9 -21 9 -40 0 -19 5 -34 10 -34 6 0
10 -9 10 -19 0 -11 5 -23 11 -27 6 -3 9 -17 6 -30 -2 -13 0 -24 4 -24 15 0 10
-37 -6 -50 -8 -7 -15 -19 -15 -26 0 -8 -4 -14 -10 -14 -5 0 -10 -9 -10 -20 0
-11 -5 -20 -11 -20 -5 0 -9 -8 -7 -17 1 -10 -1 -24 -6 -31 -5 -8 -2 -20 9 -32
10 -11 12 -20 6 -24 -5 -4 0 -24 14 -50 13 -24 23 -50 22 -57 -1 -25 15 -79
24 -79 5 0 9 -9 9 -19 0 -11 4 -22 10 -26 5 -3 7 -11 4 -18 -2 -7 9 -25 26
-40 16 -15 30 -34 30 -42 0 -8 13 -29 29 -45 16 -17 34 -43 40 -58 6 -15 27
-38 46 -51 19 -13 35 -27 35 -32 0 -5 7 -9 16 -9 10 0 14 -6 10 -15 -3 -9 0
-15 9 -15 8 0 15 -7 15 -15 0 -9 7 -18 15 -21 8 -4 15 -12 15 -20 0 -7 10 -20
23 -29 12 -8 22 -19 22 -23 1 -10 106 -112 116 -112 4 0 20 -11 36 -23 15 -13
43 -30 61 -38 17 -8 32 -17 32 -21 0 -5 9 -8 19 -8 25 0 36 -17 22 -34 -6 -7
-8 -16 -5 -19 4 -3 -1 -14 -11 -23 -9 -9 -15 -27 -13 -39 3 -11 -1 -26 -7 -32
-6 -6 -10 -27 -9 -46 4 -43 -5 -50 -71 -55 -27 -1 -59 -7 -70 -11 -44 -19
-105 -34 -112 -28 -3 4 -8 24 -10 44 -2 20 -10 41 -18 47 -8 6 -15 25 -16 41
-2 34 -17 71 -39 96 -8 10 -21 25 -28 33 -10 13 -18 14 -33 6 -11 -6 -24 -8
-30 -5 -5 4 -17 1 -25 -6 -12 -9 -20 -9 -39 1 -14 7 -25 19 -25 27 0 7 -4 13
-10 13 -5 0 -10 6 -10 14 0 8 -7 17 -16 20 -10 4 -14 12 -10 22 3 9 -2 28 -13
42 -10 15 -24 45 -32 67 -8 22 -20 44 -27 48 -7 5 -10 12 -7 18 4 5 2 9 -3 9
-6 0 -13 11 -16 25 -7 28 -26 25 -26 -3 0 -9 -8 -27 -18 -39 -13 -16 -22 -19
-39 -12 -32 12 -40 52 -14 78 28 28 18 55 -18 45 -14 -4 -44 -8 -66 -8 -36 -1
-40 1 -43 26 -4 34 25 48 99 50 l48 1 -1 44 c0 32 -6 46 -19 54 -14 7 -18 16
-13 35 5 18 0 34 -15 54 -11 16 -21 35 -21 42 0 7 -12 31 -25 53 -14 22 -25
46 -25 53 0 7 -7 20 -15 28 -12 13 -15 12 -24 -5 -6 -11 -8 -26 -5 -35 8 -22
-30 -40 -57 -25 -18 9 -20 16 -14 57 3 26 9 56 11 68 5 18 0 22 -33 27 -20 4
-42 2 -47 -3 -15 -15 -41 -12 -59 8 -14 16 -13 19 7 45 20 25 27 27 79 23 53
-3 57 -2 57 18 0 12 -9 32 -19 43 -11 12 -17 23 -14 26 3 4 -2 13 -11 22 -9 9
-14 21 -10 26 3 5 -2 12 -10 15 -9 3 -16 17 -16 30 0 14 -6 27 -14 30 -8 3
-12 12 -9 21 4 9 -1 19 -10 25 -10 5 -17 13 -17 19 0 13 -41 72 -57 82 -7 4
-13 17 -13 27 0 11 -4 20 -9 20 -5 0 -19 16 -31 35 -12 19 -28 35 -36 35 -8 0
-14 10 -14 24 0 13 -7 29 -15 36 -8 7 -15 19 -15 26 0 8 -4 14 -9 14 -5 0 -14
14 -21 30 -15 37 -23 38 -49 1 -14 -20 -28 -28 -48 -27 -15 1 -27 4 -26 9 1 4
4 25 8 47 4 22 10 40 14 40 4 0 8 15 9 34 1 33 -1 35 -39 41 -26 4 -45 3 -52
-4 -17 -17 -25 -13 -42 20 -24 46 -15 55 48 53 l55 -2 -23 42 c-13 22 -28 40
-33 39 -6 -1 -16 4 -22 12 -7 8 -19 15 -27 15 -8 0 -11 5 -8 10 3 6 0 10 -9
10 -8 0 -16 -6 -19 -12 -4 -10 -8 -10 -23 0 -11 6 -26 15 -34 18 -8 3 -23 10
-32 15 -10 5 -18 6 -18 2 0 -7 -88 -12 -222 -13 -16 -1 -28 -5 -28 -10 0 -5
-7 -7 -15 -4 -8 4 -15 1 -15 -5 0 -6 -7 -11 -15 -11 -16 0 -45 -49 -45 -75 0
-9 -4 -13 -10 -10 -5 3 -10 -3 -10 -14 0 -12 -4 -21 -9 -21 -14 0 -27 -83 -35
-222 -3 -43 -7 -82 -11 -87 -3 -6 0 -13 7 -18 7 -4 19 -25 26 -46 13 -37 13
-39 -18 -68 l-31 -30 10 -67 c6 -37 13 -76 15 -87 2 -11 7 -42 11 -70 4 -27
11 -55 16 -61 4 -5 11 -39 15 -75 3 -35 14 -85 24 -111 l17 -46 -56 -4 c-38
-3 -60 0 -67 9 -6 7 -16 13 -21 13 -5 0 -38 27 -72 60 -52 49 -66 58 -81 50
-10 -6 -27 -10 -37 -10 -10 0 -24 -4 -32 -9 -14 -9 -9 -16 47 -79 24 -27 25
-32 16 -56 -5 -12 -10 -14 -19 -6 -9 8 -15 8 -20 0 -10 -16 -21 -12 -33 15 -6
14 -18 25 -25 25 -21 0 -50 -37 -41 -51 14 -24 14 -67 -2 -79 -29 -25 -68 40
-66 110 1 29 -1 32 -9 17 -7 -11 -8 -34 -3 -55 6 -32 15 -217 14 -318 0 -18 7
-37 15 -44 19 -16 19 -49 0 -74 -8 -10 -12 -23 -9 -27 3 -5 1 -9 -5 -9 -15 0
-11 -101 6 -139 9 -20 13 -47 10 -67 -3 -20 -2 -34 4 -34 13 0 52 -88 44 -100
-3 -6 -1 -10 4 -10 7 0 10 -16 8 -39 -2 -22 1 -39 7 -38 20 4 42 33 38 50 -2
9 1 17 9 17 10 0 10 3 1 12 -15 15 -16 42 -1 33 5 -4 22 -4 37 0 22 6 24 9 10
14 -13 4 -15 10 -8 21 9 12 16 9 43 -21 43 -49 67 -81 67 -92 0 -5 8 -19 18
-32 9 -12 24 -33 32 -45 25 -38 77 -90 89 -90 6 0 11 -5 11 -11 0 -16 62 -79
77 -79 7 0 16 -6 20 -13 9 -15 54 -47 65 -47 5 0 8 5 8 12 0 6 7 19 15 28 14
15 12 19 -15 43 -16 15 -32 27 -35 27 -3 0 -23 18 -45 40 -22 22 -47 40 -55
40 -8 0 -15 5 -15 11 0 6 -11 20 -24 30 -13 11 -34 39 -46 64 -12 25 -25 45
-29 45 -4 0 -14 18 -21 40 -7 22 -17 40 -22 40 -4 0 -8 9 -8 19 0 11 -5 23
-10 26 -14 9 -12 34 4 51 19 18 40 18 33 0 -4 -10 2 -16 16 -18 12 -2 21 -8
20 -13 -1 -6 45 -11 113 -12 93 -2 117 -6 133 -20 11 -10 27 -24 35 -31 21
-17 20 -38 -3 -61 -14 -14 -16 -21 -8 -25 9 -5 9 -7 0 -12 -24 -11 -13 -24 16
-22 17 2 30 0 31 -4 0 -4 7 -22 14 -40 7 -18 11 -39 9 -45 -3 -9 5 -13 22 -13
18 0 38 11 59 34 20 22 40 34 56 34 14 -1 32 2 42 6 11 5 18 1 23 -13 3 -12
10 -21 16 -21 17 0 78 -75 79 -97 0 -20 -4 -22 -50 -20 -44 2 -51 5 -61 30
-17 40 -36 33 -42 -15 -3 -24 -9 -53 -13 -66 -6 -21 -4 -22 19 -17 18 5 28 2
35 -12 10 -17 11 -17 17 0 6 14 10 15 21 6 18 -15 18 -38 -1 -45 -8 -4 -15
-11 -15 -16 0 -6 7 -5 15 2 12 10 19 10 28 1 9 -9 9 -14 -2 -20 -11 -7 -9 -11
7 -20 11 -6 27 -11 36 -11 25 0 24 -24 -2 -52 -18 -20 -21 -28 -11 -28 8 0 20
5 26 11 13 13 33 4 33 -14 0 -7 9 -18 20 -25 24 -14 26 -7 5 14 -16 16 -20 34
-7 34 16 0 29 -17 42 -57 7 -24 16 -43 20 -43 4 0 6 -11 5 -25 -3 -26 6 -30
53 -26 12 1 22 -3 22 -9 0 -5 -5 -10 -10 -10 -6 0 3 -14 19 -31 17 -17 35 -28
40 -24 6 3 11 1 11 -4 0 -6 7 -11 16 -11 18 0 37 -17 47 -42 10 -29 87 -21 87
8 0 17 17 18 23 2 3 -10 7 -10 19 -1 8 7 18 10 21 7 4 -4 17 -8 29 -9 13 -1
26 -3 30 -4 16 -3 18 -42 2 -66 -15 -23 -15 -25 0 -26 45 -4 51 -11 36 -39 -8
-16 -9 -25 0 -35 9 -10 7 -20 -5 -38 -14 -23 -14 -25 0 -31 13 -5 15 -13 9
-38 -17 -71 -13 -97 17 -110 34 -15 47 -41 44 -93 -1 -22 3 -46 8 -53 18 -23
0 -23 -81 -3 -44 12 -83 21 -86 21 -4 0 -11 -11 -16 -25 -9 -24 -40 -36 -40
-15 0 6 0 12 -1 15 -1 10 -58 65 -68 65 -6 0 -11 9 -11 21 0 12 -8 23 -20 26
-11 3 -20 12 -20 19 0 8 -4 14 -8 14 -4 0 -13 14 -19 30 -6 17 -18 30 -27 30
-12 0 -14 7 -9 30 3 19 1 30 -6 30 -6 0 -16 11 -21 25 -5 14 -16 28 -24 31 -8
3 -12 12 -9 20 3 9 0 14 -8 12 -7 -2 -15 7 -17 19 -2 14 -8 20 -18 16 -8 -3
-14 1 -14 11 0 9 -8 16 -20 16 -11 0 -20 4 -20 8 0 5 -20 23 -44 41 -24 19
-47 43 -50 54 -3 12 -8 18 -12 14 -4 -4 -12 3 -18 16 -6 12 -20 23 -31 25 -11
1 -26 16 -34 32 -7 17 -19 30 -26 30 -8 0 -19 8 -24 19 -6 10 -26 26 -45 35
-19 9 -38 21 -41 26 -9 15 -25 2 -25 -20 0 -15 -7 -19 -40 -18 -39 0 -39 1
-46 44 -7 49 -15 53 -45 23 -27 -27 -73 -23 -77 8 -5 31 25 71 56 76 26 4 26
4 5 12 -13 4 -23 10 -23 14 0 13 -62 71 -70 66 -5 -3 -11 -1 -15 5 -3 5 -15
10 -27 10 -11 0 -22 8 -25 20 -3 11 -9 20 -14 20 -5 0 -44 34 -87 75 -116 114
-118 115 -138 115 -11 0 -30 7 -42 16 -21 14 -26 14 -55 1 -17 -9 -35 -13 -39
-11 -9 6 -107 -35 -130 -54 -10 -8 -18 -23 -18 -33 0 -10 -7 -22 -15 -27 -28
-15 -24 -194 5 -212 4 -3 9 -27 10 -55 0 -27 2 -63 2 -80 1 -16 0 -46 0 -65
-4 -88 -2 -120 7 -120 4 0 9 -11 9 -24 0 -27 31 -116 41 -116 4 0 15 -23 26
-51 11 -28 26 -54 34 -57 7 -3 29 3 47 13 28 15 39 16 59 7 25 -12 34 -32 14
-32 -6 0 -8 -7 -5 -15 6 -17 -29 -36 -51 -28 -8 3 -13 -3 -13 -13 0 -20 33
-38 89 -48 38 -7 81 -43 81 -68 0 -32 -37 -42 -78 -21 -20 11 -44 19 -52 18
-21 0 -25 -34 -5 -49 10 -7 19 -32 22 -61 4 -28 14 -56 25 -67 10 -10 21 -32
25 -48 3 -17 9 -30 13 -30 4 0 10 -9 13 -19 5 -20 56 -48 97 -53 18 -2 24 -8
23 -23 -2 -22 26 -117 37 -125 11 -8 40 -90 32 -91 -4 0 3 -4 16 -10 13 -5 21
-13 18 -18 -8 -12 21 -78 38 -88 8 -4 16 -24 18 -43 2 -25 9 -36 22 -38 10 -2
21 0 25 5 13 19 90 73 103 73 8 0 19 5 26 12 15 15 27 3 35 -32 8 -33 -7 -50
-76 -84 -46 -23 -55 -31 -46 -42 6 -8 19 -14 29 -14 10 0 20 -7 24 -15 3 -8
18 -15 34 -15 15 0 38 -9 50 -20 26 -25 26 -22 4 -48 -15 -17 -24 -19 -53 -13
-19 4 -44 13 -56 19 -17 9 -22 9 -27 -3 -3 -9 0 -15 9 -15 8 0 15 -6 15 -13 0
-7 9 -23 21 -35 11 -12 18 -26 15 -31 -3 -4 8 -21 24 -37 16 -16 30 -35 30
-41 0 -7 4 -13 10 -13 5 0 7 -7 4 -15 -4 -10 0 -15 15 -15 14 0 21 -6 21 -20
0 -11 4 -20 9 -20 5 0 15 -17 21 -37 7 -21 16 -42 21 -48 5 -5 9 -19 9 -31 0
-12 7 -28 17 -35 9 -8 25 -33 35 -57 11 -23 30 -49 44 -58 13 -9 24 -22 24
-29 0 -13 64 -85 76 -85 4 0 14 -7 23 -15 9 -8 26 -23 38 -35 13 -11 30 -20
38 -20 8 0 15 -4 15 -9 0 -5 11 -12 25 -15 13 -3 41 -17 61 -31 20 -14 41 -25
47 -25 5 0 7 -11 5 -24 -4 -18 0 -26 16 -30 11 -3 17 -8 14 -11 -9 -9 29 -45
47 -45 9 0 18 -6 21 -14 3 -8 12 -12 19 -10 7 3 16 0 20 -6 5 -8 11 -8 22 1 9
8 17 9 21 3 9 -13 115 -10 119 2 2 6 27 7 59 4 39 -4 58 -2 65 7 8 9 16 10 30
2 14 -7 19 -6 19 2 0 8 5 7 17 -2 13 -10 11 -3 -6 26 -13 22 -29 49 -35 61 -6
11 -18 20 -26 19 -12 -2 -15 8 -14 41 1 30 -2 44 -11 44 -7 0 -16 12 -19 26
-9 34 1 44 13 13 9 -21 10 -22 11 -4 0 16 2 17 10 5 5 -8 12 -11 15 -8 4 4 -3
15 -14 25 -12 9 -21 24 -21 33 0 11 -2 12 -8 3 -4 -7 -17 -10 -30 -6 -26 6
-30 23 -5 23 9 0 13 3 9 7 -4 5 -13 8 -19 8 -7 0 -13 10 -15 23 -2 12 -9 22
-17 22 -12 0 -29 35 -26 53 1 5 -3 6 -9 2 -5 -3 -10 2 -10 12 -1 13 -5 11 -16
-9 -8 -16 -17 -28 -20 -28 -2 0 0 9 6 21 12 21 7 49 -8 49 -5 0 -15 -11 -22
-25 -8 -16 -17 -22 -24 -16 -6 5 -20 11 -31 13 -11 2 -20 8 -20 13 -3 45 -18
83 -36 88 -16 4 -18 11 -13 31 5 20 2 26 -10 26 -10 0 -16 9 -16 25 0 15 -7
28 -17 32 -23 9 -83 56 -83 66 0 4 7 7 16 7 8 0 12 5 9 10 -4 6 -10 8 -15 5
-4 -3 -11 1 -13 7 -4 10 -8 9 -16 -2 -6 -8 -11 -11 -11 -6 0 5 -7 3 -15 -4 -9
-7 -17 -11 -18 -9 -1 2 -12 25 -25 52 -12 26 -26 47 -32 47 -5 0 -10 10 -10
23 -1 27 -33 67 -54 67 -9 0 -16 4 -16 9 0 5 -11 12 -25 15 -14 4 -25 12 -25
18 0 9 3 9 12 0 15 -15 58 -16 58 -2 0 6 -8 10 -18 10 -20 0 -105 26 -139 42
-12 6 -23 20 -25 32 -2 12 -13 23 -28 27 -14 4 -19 7 -12 8 10 1 10 6 2 21 -6
11 -15 18 -21 15 -5 -4 -9 -3 -9 2 0 4 -15 24 -33 43 -20 21 -33 44 -32 58 1
17 -4 22 -21 22 -25 0 -30 5 -70 60 -13 19 -20 36 -14 38 5 2 10 8 10 14 0 7
-14 8 -38 5 -27 -5 -33 -4 -22 4 11 8 12 12 3 16 -7 2 -23 13 -35 24 -23 20
-23 20 -1 10 29 -14 43 -14 43 2 0 7 9 18 20 25 16 10 18 16 10 32 -14 27 -13
30 15 30 14 0 28 7 32 15 3 9 13 15 22 13 9 -1 22 1 28 5 16 10 18 -24 2 -40
-7 -7 -3 -12 15 -17 15 -4 26 -14 27 -24 0 -10 3 -12 6 -4 9 22 30 13 26 -11
-4 -21 -1 -24 25 -25 18 0 37 7 48 19 13 15 20 16 31 7 11 -9 11 -13 1 -19 -9
-6 -6 -9 10 -9 16 0 26 7 29 20 5 21 33 28 33 9 0 -6 9 -8 20 -4 11 4 20 2 20
-4 0 -6 6 -11 13 -11 18 0 67 -24 67 -32 0 -5 16 -8 35 -8 19 0 35 -4 35 -9 0
-5 9 -13 20 -16 11 -3 26 -12 33 -18 21 -19 55 -37 72 -37 8 0 15 -4 15 -9 0
-5 11 -19 25 -32 13 -13 25 -31 25 -39 0 -21 54 -70 77 -70 10 0 24 -5 30 -11
7 -7 28 -13 48 -15 21 -2 42 -7 49 -13 10 -8 49 -15 139 -24 16 -1 31 -7 35
-13 4 -5 23 -10 42 -10 19 -1 59 -4 88 -9 44 -6 52 -5 52 8 0 9 -5 19 -11 22
-6 4 -8 14 -5 22 3 8 -3 27 -14 43 -11 15 -20 33 -20 39 0 5 -7 14 -15 18 -8
5 -15 24 -17 43 -1 19 -10 46 -20 59 -20 26 -17 36 12 44 12 3 20 0 20 -8 0
-7 7 -16 16 -19 23 -9 31 -7 14 4 -8 5 -12 12 -9 15 11 10 37 -6 42 -26 3 -12
11 -17 21 -13 23 9 39 -5 25 -22 -9 -11 -8 -14 2 -15 8 -1 21 -3 29 -4 33 -3
51 -17 45 -35 -8 -24 11 -35 23 -13 8 14 13 15 26 4 8 -7 18 -22 21 -32 5 -14
12 -18 26 -14 12 4 21 1 25 -9 3 -9 10 -14 14 -11 5 3 14 -8 22 -25 13 -30 33
-43 22 -15 -7 17 8 20 34 5 9 -5 34 -16 55 -24 20 -8 37 -20 37 -26 0 -22 53
-57 82 -54 15 2 28 -1 28 -6 0 -6 -4 -10 -10 -10 -5 0 -10 -4 -10 -10 0 -14
37 -12 43 3 4 7 6 6 6 -4 1 -20 25 -31 38 -18 6 6 14 4 23 -6 10 -13 9 -15 -6
-15 -18 0 -18 -1 0 -18 13 -12 20 -14 23 -4 3 6 9 12 14 12 6 0 7 -4 4 -10 -3
-5 -2 -10 3 -10 5 0 13 -10 17 -22 l8 -23 4 22 c5 25 33 40 33 18 0 -8 3 -15
8 -16 63 -7 87 -3 90 16 5 32 48 119 65 133 12 10 21 11 36 3 11 -6 29 -11 41
-11 22 0 63 -23 93 -53 13 -14 17 -26 12 -48 -6 -28 -9 -30 -38 -24 -18 4 -44
19 -59 33 -23 21 -30 23 -43 12 -8 -7 -15 -25 -15 -41 0 -16 -8 -33 -20 -42
-11 -8 -17 -17 -13 -20 3 -4 0 -7 -7 -7 -7 0 -10 -3 -7 -6 4 -4 14 -1 23 7 14
12 19 10 40 -14 13 -16 24 -24 24 -18 0 13 37 24 52 15 8 -5 6 -10 -8 -15 -17
-6 -16 -8 9 -18 15 -6 27 -15 27 -20 0 -16 34 -23 45 -9 13 17 97 17 102 1 3
-8 14 -11 29 -7 18 5 24 2 24 -11 0 -9 5 -13 10 -10 6 4 8 11 4 17 -3 5 8 2
25 -6 17 -9 32 -16 33 -16 2 0 18 -5 36 -11 25 -8 30 -14 20 -20 -8 -5 -8 -9
-2 -9 6 0 17 6 23 14 9 11 21 11 72 1 34 -7 66 -18 72 -24 15 -15 24 -14 31 4
3 8 2 14 -2 14 -17 -3 -32 2 -32 10 0 13 53 21 67 9 7 -5 17 -7 24 -3 6 4 3
-4 -6 -19 -10 -14 -16 -26 -14 -27 2 0 23 -2 47 -4 31 -2 42 1 42 11 0 8 9 14
20 14 11 0 20 -4 20 -10 0 -5 9 -10 19 -10 11 0 22 -6 24 -12 8 -19 27 11 27
40 0 15 4 21 12 16 14 -9 76 -10 85 -1 11 11 25 8 18 -4 -4 -6 3 -5 14 3 13 8
20 20 17 30 -2 10 0 18 5 18 5 0 9 -12 9 -26 0 -14 4 -23 10 -19 6 4 8 11 5
16 -9 13 9 11 23 -3 9 -9 12 -9 12 1 0 10 3 11 13 3 15 -13 40 -11 59 5 7 6
27 15 43 18 25 6 28 5 18 -6 -21 -22 -15 -34 7 -14 20 18 21 18 36 -3 20 -28
37 -29 29 -1 -7 20 -4 21 21 17 16 -3 38 -2 49 2 l20 9 -20 0 c-17 1 -17 3 -5
11 24 16 48 11 55 -9 8 -25 29 -18 43 15 7 13 16 24 22 24 6 0 8 -4 5 -10 -9
-14 7 -12 49 5 20 8 36 20 36 25 0 6 7 6 18 -1 20 -13 92 12 92 32 0 7 9 9 25
5 19 -5 23 -3 19 9 -5 12 0 14 27 9 19 -3 39 -7 46 -9 7 -2 15 0 18 5 3 5 -3
11 -12 13 -10 3 -2 5 19 6 32 1 35 4 30 23 -4 18 -2 20 16 15 16 -3 27 1 37
16 13 18 17 19 24 8 15 -23 45 13 37 44 -7 28 10 44 19 16 4 -12 14 -18 30
-17 30 1 32 12 5 21 -11 3 -20 11 -20 17 0 5 7 8 15 5 13 -6 35 9 85 55 10 9
28 19 40 23 13 4 19 12 16 20 -3 10 0 12 11 8 13 -5 15 -2 10 11 -4 10 -3 15
4 11 5 -4 16 -1 24 5 8 6 18 9 24 6 5 -3 11 1 15 9 3 8 12 12 21 9 8 -3 15 -1
15 5 0 6 -4 11 -10 11 -5 0 -10 4 -10 10 0 5 7 7 15 4 11 -4 13 -2 9 9 -4 12
-1 14 15 10 21 -5 30 5 35 44 2 12 11 18 27 18 17 0 24 6 24 20 0 24 21 35 57
28 16 -3 35 0 43 7 13 11 12 14 -7 30 -24 19 -19 50 8 50 15 0 15 -2 -1 -21
-19 -20 -19 -20 9 -9 21 8 32 7 42 -1 19 -15 18 -1 -1 17 -8 9 -15 19 -15 23
0 10 88 36 96 29 7 -8 -7 -58 -16 -58 -5 0 -16 -21 -25 -47 -9 -27 -26 -64
-36 -84 -10 -20 -16 -39 -12 -43 3 -3 1 -6 -5 -6 -7 0 -12 -6 -12 -13 0 -8 -9
-22 -20 -32 -11 -10 -32 -42 -47 -72 -21 -40 -24 -56 -15 -65 13 -13 100 -19
107 -8 3 4 16 5 30 2 16 -3 33 2 44 12 10 9 22 16 27 15 5 -1 11 0 14 1 3 1
28 3 57 5 29 2 61 9 72 15 12 6 38 11 58 12 21 0 43 3 48 7 6 3 15 6 21 6 21
0 104 83 104 104 0 24 35 59 68 68 13 3 34 16 47 29 13 13 36 26 52 30 15 4
30 10 33 15 3 4 16 9 30 10 14 2 31 10 39 17 7 7 20 11 27 8 7 -3 20 1 28 9 7
8 25 17 40 21 29 7 44 -13 31 -43 -13 -29 -14 -43 -4 -43 5 0 13 8 17 18 4 9
18 18 32 18 47 3 50 4 50 19 0 8 5 15 11 15 8 0 8 4 0 14 -9 10 -8 16 4 26 12
10 15 10 15 -4 0 -19 4 -20 33 -3 41 23 73 53 70 64 -2 6 1 14 6 18 6 3 11 -1
11 -9 0 -9 6 -17 13 -18 6 0 17 -2 22 -3 6 -2 15 -3 22 -4 19 -2 54 -44 49
-58 -3 -7 -1 -15 4 -18 6 -4 10 -15 10 -26 0 -11 6 -22 13 -25 18 -7 18 -41 0
-48 -9 -4 -32 -4 -52 -1 -33 6 -35 5 -17 -9 18 -14 17 -15 -8 -22 -21 -5 -24
-9 -15 -20 9 -11 7 -14 -10 -14 -11 0 -21 -6 -22 -12 -1 -7 -2 -24 -2 -37 -1
-13 -7 -26 -14 -28 -7 -3 -9 3 -6 17 6 21 5 21 -30 3 -32 -16 -35 -22 -33 -53
2 -28 -3 -41 -27 -63 -16 -15 -35 -27 -43 -27 -8 0 -11 -6 -7 -16 5 -14 3 -14
-16 -3 -11 8 -21 20 -21 27 0 7 -8 12 -17 10 -13 -2 -18 -13 -18 -38 0 -25 -5
-37 -19 -43 -24 -9 -35 1 -16 14 12 9 12 10 -3 5 -10 -3 -20 -6 -21 -6 -2 0
-1 -11 2 -25 4 -22 1 -25 -22 -25 -16 0 -26 -5 -26 -15 0 -8 -6 -15 -13 -15
-8 0 -24 -9 -36 -19 -22 -19 -57 -19 -45 0 8 14 -19 10 -40 -6 -10 -7 -15 -19
-11 -25 5 -8 11 -5 21 7 7 10 14 13 14 8 0 -17 -21 -34 -36 -28 -19 7 -17 -11
5 -48 15 -25 17 -36 8 -60 -9 -23 -16 -28 -32 -23 -22 7 -35 22 -35 42 0 6 -9
12 -20 12 -14 0 -20 -7 -20 -23 0 -27 -26 -67 -44 -67 -8 0 -19 7 -26 15 -10
13 -15 12 -36 -3 -13 -9 -24 -25 -24 -35 0 -10 -11 -22 -25 -27 -14 -5 -25
-16 -25 -24 0 -9 -9 -20 -20 -26 -31 -17 -25 -53 13 -70 27 -13 33 -22 38 -58
5 -39 3 -43 -19 -49 -18 -4 -30 1 -48 20 -13 14 -24 31 -24 37 0 5 -5 10 -12
10 -6 0 -9 -3 -5 -6 3 -3 -3 -16 -14 -27 -11 -12 -17 -27 -15 -34 7 -18 -52
-72 -74 -66 -15 4 -18 1 -13 -15 4 -17 -3 -22 -50 -36 -30 -9 -65 -16 -77 -16
-20 0 -22 -4 -16 -32 3 -18 13 -38 22 -45 11 -8 16 -26 15 -55 -2 -143 -1
-156 21 -161 11 -3 28 -4 39 -2 10 2 19 0 19 -5 0 -5 21 -8 48 -8 26 0 68 -2
94 -5 26 -3 50 -1 53 4 4 5 21 9 39 9 41 0 116 36 116 55 0 8 4 15 10 15 5 0
16 15 25 33 8 18 29 38 47 46 18 8 47 25 64 38 17 13 38 23 48 23 9 0 19 7 22
15 4 8 11 15 18 15 6 0 18 8 27 18 8 9 28 26 44 37 41 29 87 79 80 87 -2 2 9
19 25 38 17 19 30 38 30 43 0 4 7 7 16 7 11 0 13 6 9 19 -3 11 -1 22 5 26 5 3
10 16 10 29 0 13 9 31 20 41 11 10 20 26 20 36 0 10 18 37 40 61 22 24 42 55
46 71 3 15 10 25 15 21 5 -3 9 2 9 10 0 8 7 19 15 24 9 4 17 19 20 32 3 14 9
26 15 28 5 2 10 10 10 17 0 7 6 15 13 18 6 2 8 8 4 13 -4 5 -12 2 -16 -5 -5
-7 -14 -10 -20 -6 -7 4 -17 2 -24 -3 -16 -13 -77 -3 -84 14 -7 19 15 44 40 44
11 0 30 11 43 25 13 14 29 25 37 25 24 0 37 21 22 36 -7 8 -18 14 -24 14 -6 0
-11 4 -11 10 0 5 -15 16 -34 25 -29 14 -53 51 -41 63 9 9 71 9 83 0 6 -6 12
-7 12 -4 0 4 16 -9 37 -29 41 -39 63 -45 63 -15 0 11 7 23 15 26 8 3 17 16 20
27 7 25 37 89 45 97 9 8 33 64 37 83 2 10 9 28 15 40 7 12 11 26 10 31 -2 5 5
17 14 27 9 10 13 22 10 28 -4 5 -2 12 4 16 5 3 10 15 10 26 0 11 7 20 18 20
49 4 63 7 77 19 8 7 15 19 15 26 0 8 4 14 9 14 8 0 17 20 26 58 2 6 12 31 23
55 11 23 23 52 26 64 4 11 13 27 21 33 19 16 19 49 1 56 -8 3 -30 -2 -49 -11
-20 -9 -49 -15 -66 -13 l-30 3 16 33 c11 22 25 35 44 39 15 3 36 14 45 24 9
10 20 16 24 14 11 -7 60 12 60 23 0 4 -20 13 -45 20 -34 9 -45 17 -45 32 0 11
4 20 9 20 5 0 11 9 14 20 5 20 47 29 47 10 0 -5 8 -10 18 -10 10 0 23 -5 29
-11 8 -8 15 -5 24 12 7 13 14 26 14 29 5 26 49 100 59 100 10 0 13 10 11 35
-2 19 0 35 5 35 10 0 10 6 13 103 1 37 6 67 10 67 5 0 5 6 0 13 -11 17 -10
101 2 109 6 5 6 11 -2 19 -7 7 -8 18 -3 28 18 34 30 73 35 116 4 40 -25 135
-42 135 -7 0 -12 3 -12 8 4 24 -7 35 -56 58 -42 20 -63 25 -91 19 -36 -6 -36
-6 -29 22 4 15 9 43 10 60 1 18 7 38 12 45 5 7 15 33 22 58 7 25 19 59 26 75
8 17 16 54 18 83 2 29 8 57 15 61 8 5 8 14 -3 34 -8 15 -12 34 -8 42 3 9 -1
15 -10 15 -23 0 -27 39 -8 78 14 27 18 56 16 107 -1 39 2 78 8 89 6 12 5 22
-2 29 -14 14 -14 44 1 53 7 5 8 3 3 -6 -5 -8 -4 -11 3 -6 12 7 12 156 0 156
-9 0 -21 -41 -17 -56 6 -19 -32 -74 -50 -74 -20 0 -37 52 -24 74 11 17 13 38
7 71 l-7 30 -33 -39 c-26 -30 -31 -42 -24 -57 13 -23 14 -50 1 -30 -5 7 -13
11 -19 7 -5 -3 -17 5 -25 18 -9 13 -24 23 -33 22 -33 -2 -25 24 20 71 50 51
56 67 29 81 -37 19 -91 2 -124 -38 -18 -21 -38 -36 -45 -33 -12 4 -32 -21 -32
-42 -1 -17 -19 -16 -38 2 -12 13 -19 14 -22 5 -2 -7 -21 -12 -43 -12 -38 0
-39 1 -33 28 4 15 11 31 15 36 5 6 9 17 9 25 0 8 7 23 17 33 10 11 12 18 4 18
-8 0 -9 5 -1 19 5 11 10 42 10 69 0 27 7 64 16 82 13 26 14 37 6 51 -9 15 -8
20 6 28 15 9 15 13 4 31 -11 19 -11 24 3 34 16 11 16 15 1 51 -9 21 -14 40
-12 43 3 2 -7 15 -22 28 -16 14 -23 27 -17 31 26 20 43 80 41 143 -1 36 -6 71
-10 78 -4 7 -2 19 4 27 9 11 9 18 -4 30 -15 16 -20 44 -17 91 1 12 -5 24 -13
27 -9 4 -16 16 -16 27 0 11 -7 20 -15 20 -8 0 -15 9 -15 19 0 13 -13 25 -40
37 -22 10 -40 21 -40 26 0 4 -12 7 -27 7 -52 0 -153 10 -164 17 -6 4 -15 1
-19 -6 -5 -7 -32 -12 -75 -11 -55 0 -76 -4 -111 -25 -24 -14 -44 -30 -44 -36
0 -5 -9 -21 -20 -35 -26 -34 -17 -44 32 -37 32 6 44 3 54 -10 10 -14 17 -15
32 -7 21 11 52 5 52 -10 0 -5 -11 -9 -25 -9 -30 0 -32 -15 -5 -32 26 -16 26
-28 0 -28 -11 0 -20 7 -20 15 0 8 -6 15 -14 15 -16 0 -18 -37 -3 -57 16 -22
-1 -31 -38 -19 -41 13 -47 36 -9 36 14 0 23 4 20 8 -3 5 -30 8 -61 7 -30 -1
-58 2 -61 6 -9 15 -34 10 -34 -6 0 -8 5 -15 10 -15 6 0 10 -7 10 -15 0 -7 6
-18 14 -22 14 -8 16 -12 16 -33 0 -5 4 -10 10 -10 5 0 7 8 3 18 -5 13 -3 15 7
5 20 -18 3 -63 -37 -100 -30 -29 -40 -33 -67 -27 -27 6 -29 5 -17 -10 9 -10
10 -16 2 -16 -6 0 -11 -5 -11 -11 0 -6 7 -9 15 -5 8 3 15 1 15 -3 0 -16 69
-51 88 -44 15 6 15 5 3 -10 -18 -23 -48 -21 -61 3 -19 36 -48 20 -41 -22 2
-12 -17 -10 -21 2 -2 7 -15 7 -37 0 -40 -11 -49 -7 -31 15 7 8 9 15 5 15 -4 0
-1 7 6 17 8 9 14 26 14 37 0 12 6 20 13 18 8 -1 12 5 10 16 -1 10 4 25 12 34
14 15 17 15 36 -3 20 -18 22 -19 35 -3 12 15 12 16 -9 10 -20 -7 -22 -4 -22
28 0 27 -3 34 -15 30 -8 -4 -15 -12 -15 -20 0 -8 -4 -14 -8 -14 -5 0 -15 -11
-22 -25 -7 -14 -19 -25 -27 -25 -7 0 -16 -13 -19 -30 -4 -16 -13 -35 -20 -41
-8 -6 -14 -18 -14 -25 0 -8 -12 -19 -26 -24 -14 -6 -23 -14 -20 -19 4 -5 -4
-18 -16 -28 -13 -10 -24 -25 -26 -33 -2 -8 -14 -26 -28 -41 -13 -14 -24 -37
-24 -51 0 -14 -7 -28 -15 -32 -8 -3 -15 -14 -15 -25 0 -11 -5 -23 -10 -26 -6
-4 -8 -11 -4 -16 3 -6 -4 -17 -15 -26 -15 -10 -20 -21 -16 -34 5 -14 0 -22
-18 -30 -15 -7 -27 -22 -29 -38 -4 -26 -4 -26 71 -28 78 -2 91 -9 91 -51 0
-30 -17 -35 -77 -24 -27 4 -54 7 -61 4 -17 -5 -15 -73 4 -100 20 -29 10 -59
-21 -64 -29 -6 -51 15 -47 46 2 26 -25 64 -37 50 -5 -5 -14 -26 -21 -46 -6
-21 -16 -38 -21 -38 -5 0 -9 -9 -9 -19 0 -11 -5 -23 -10 -26 -6 -4 -8 -10 -5
-15 3 -5 0 -12 -6 -15 -5 -4 -8 -13 -5 -20 2 -7 -2 -21 -9 -32 -8 -10 -15 -28
-15 -40 0 -25 -20 -75 -34 -84 -5 -4 -6 -15 -2 -24 4 -12 14 -16 31 -12 14 2
28 0 31 -5 3 -4 10 -5 16 -2 5 4 20 2 31 -4 12 -6 30 -13 40 -16 17 -5 24 -36
8 -36 -5 0 -11 -10 -14 -22 -5 -16 -9 -19 -19 -11 -7 6 -37 14 -65 18 -58 8
-63 3 -39 -43 25 -50 29 -72 12 -72 -9 0 -16 -4 -16 -10 0 -5 -9 -10 -20 -10
-12 0 -20 7 -20 18 0 15 -39 60 -43 50 -20 -41 -37 -79 -47 -105 -6 -17 -18
-34 -26 -37 -8 -3 -14 -14 -14 -24 0 -11 -6 -25 -14 -31 -8 -7 -18 -26 -21
-42 -8 -34 -52 -72 -77 -66 -10 3 -21 1 -24 -5 -4 -6 -12 -4 -22 4 -48 38 -58
38 -75 2 -9 -19 -21 -34 -27 -34 -6 0 -8 -11 -6 -25 3 -13 0 -27 -5 -30 -5 -4
-9 -15 -9 -26 0 -10 -4 -19 -10 -19 -5 0 -10 -16 -10 -36 0 -20 -9 -48 -20
-64 -20 -28 -21 -28 -55 -14 -18 7 -41 11 -49 8 -9 -3 -16 -1 -16 5 0 6 -10 9
-22 7 -40 -6 -108 24 -119 51 -5 14 -7 28 -4 33 3 5 0 12 -6 15 -6 4 -8 18 -4
32 4 16 -1 36 -15 59 -28 44 -23 67 13 69 16 0 33 8 38 17 5 10 25 20 44 24
20 3 35 12 35 20 0 8 7 14 15 14 8 0 14 6 12 13 -1 6 4 11 11 9 15 -3 35 15
45 41 3 9 13 17 22 17 8 0 15 7 15 15 0 8 6 15 14 15 8 0 18 10 21 21 4 12 33
50 64 84 31 35 70 79 86 98 17 20 36 36 43 37 6 0 12 7 12 15 0 8 8 24 18 34
34 39 42 50 42 66 0 9 7 18 15 21 8 4 15 12 15 18 0 7 9 22 20 34 11 12 20 28
20 37 0 8 5 15 11 15 6 0 8 8 4 19 -3 11 -1 22 5 26 5 3 10 16 10 28 0 12 6
34 14 49 15 27 23 70 30 150 3 34 1 48 -10 52 -8 3 -19 17 -24 31 -5 14 -14
25 -19 25 -14 0 -23 33 -10 40 8 6 8 13 0 28 -9 17 -8 23 7 34 22 16 43 63 36
81 -3 8 2 19 10 26 10 9 13 22 9 42 -3 19 1 38 12 55 9 15 18 43 20 63 1 20 5
44 9 53 4 9 5 22 1 28 -3 5 -3 16 2 23 10 16 14 37 14 70 -1 44 -1 49 2 120 1
38 -1 71 -6 74 -5 3 -6 11 -3 19 3 8 1 14 -5 14 -5 0 -9 20 -8 45 2 29 -3 51
-13 62 -9 10 -19 34 -23 53 -9 40 -34 79 -52 80 -7 0 -13 8 -13 18 0 13 -12
22 -35 29 -32 10 -34 10 -24 -8 7 -13 6 -25 -1 -39 -6 -11 -9 -24 -6 -28 2 -4
-2 -15 -9 -25 -17 -24 -51 -18 -48 8 1 11 0 27 -4 35 -3 8 -8 35 -10 59 -2 25
-8 50 -14 58 -15 17 -38 17 -45 -2 -4 -8 -12 -15 -20 -15 -8 0 -14 -6 -14 -14
0 -15 -21 -26 -50 -26 -29 0 -36 49 -10 67 17 12 19 18 9 29 -7 8 -18 13 -25
10 -7 -3 -16 -1 -19 3 -7 13 -55 20 -61 9 -3 -5 -25 -6 -48 -3 -33 5 -54 2
-91 -15 -26 -12 -54 -19 -62 -16 -24 10 -98 -39 -86 -57 3 -4 -4 -17 -16 -28
-12 -11 -21 -27 -21 -36 0 -12 -7 -14 -29 -10 -29 6 -81 -11 -81 -26 0 -4 7
-19 16 -32 12 -19 14 -28 5 -39 -12 -14 -61 -10 -61 5 0 5 -11 9 -25 9 -14 0
-25 4 -25 9 0 5 -14 9 -31 9 -16 -1 -27 -4 -22 -7 11 -9 19 -118 9 -128 -1 -2
-17 0 -34 3 -20 4 -32 13 -33 23 0 13 -1 13 -6 1 -2 -8 -7 -22 -10 -30 -10
-27 -11 -70 -2 -76 5 -3 9 -27 9 -55 0 -47 1 -49 28 -49 20 0 33 7 41 23 8 15
10 16 6 3 -5 -16 -3 -17 10 -6 9 7 15 20 13 28 -3 16 40 72 54 72 8 0 5 -25
-9 -75 -5 -16 -3 -18 9 -8 8 7 24 10 36 6 13 -3 22 -1 22 6 0 6 -7 11 -15 11
-11 0 -14 11 -11 48 4 42 7 47 30 50 16 2 26 -2 27 -10 1 -7 4 -24 6 -38 4
-23 5 -46 3 -95 -1 -11 2 -30 5 -43 5 -19 0 -25 -25 -33 -16 -6 -30 -17 -30
-24 0 -14 -47 -36 -87 -41 -25 -2 -63 26 -63 47 0 13 -33 16 -75 6 -22 -4 -40
-9 -42 -10 -1 -2 5 -29 13 -61 19 -74 14 -89 -30 -84 -32 4 -34 2 -52 -47 -10
-27 -16 -50 -14 -50 2 0 -2 -10 -9 -22 -9 -17 -9 -23 0 -23 8 0 8 -4 -1 -15
-10 -13 -9 -15 10 -15 12 0 35 8 51 17 28 17 29 17 47 -7 9 -14 17 -28 16 -32
-1 -5 -2 -16 -2 -26 -1 -9 -12 -22 -24 -27 -13 -6 -23 -15 -23 -22 0 -6 -10
-20 -23 -32 -13 -11 -25 -27 -26 -35 -1 -9 -12 -27 -24 -41 -29 -33 -92 -121
-92 -127 0 -7 60 -32 64 -27 1 2 13 19 25 37 12 17 28 32 34 32 7 0 19 15 26
33 22 48 64 106 79 107 6 0 12 6 12 14 0 8 5 16 11 18 6 2 22 22 34 43 14 25
29 39 40 38 12 -1 15 4 12 18 -3 10 -1 19 4 19 5 0 9 -4 9 -10 0 -5 5 -10 10
-10 6 0 9 12 8 28 -2 21 1 26 15 24 10 -2 17 3 17 14 0 13 3 14 13 5 16 -12
28 -5 21 12 -2 7 5 18 16 25 19 11 20 11 8 -7 -15 -25 -9 -32 21 -24 13 3 20
11 17 19 -6 16 12 31 44 36 17 2 24 8 22 20 -5 33 17 27 24 -6 3 -20 12 -40
20 -47 8 -6 14 -19 14 -28 0 -10 8 -26 18 -37 27 -28 34 -75 14 -90 -14 -10
-14 -16 -4 -38 11 -24 16 -26 61 -22 29 2 57 10 66 20 13 13 29 16 66 12 29
-3 49 0 49 5 0 6 5 7 10 4 16 -10 12 -38 -5 -31 -9 3 -15 0 -15 -8 0 -8 9 -16
21 -19 17 -5 19 -9 9 -26 -12 -24 -35 -29 -26 -5 3 8 2 12 -4 9 -16 -10 -12
-45 5 -45 10 0 15 -9 14 -27 0 -16 -3 -22 -6 -15 -8 21 -19 14 -33 -23 -8 -19
-18 -35 -23 -35 -5 0 -6 -15 -3 -34 4 -22 2 -37 -5 -42 -8 -4 -9 -3 -5 4 4 7
1 12 -7 12 -10 0 -13 -8 -10 -24 3 -14 -2 -32 -13 -45 -16 -18 -20 -19 -33 -6
-14 12 -16 9 -19 -21 -1 -21 2 -33 8 -29 5 3 6 13 3 23 -5 14 -3 15 7 5 19
-17 21 -43 5 -43 -7 0 -26 -15 -41 -32 -15 -18 -34 -32 -42 -30 -11 3 -13 -3
-8 -22 5 -20 1 -29 -19 -42 -14 -9 -25 -22 -25 -30 0 -20 -21 -28 -31 -13 -8
12 -11 11 -19 -3 -6 -9 -17 -24 -25 -32 -17 -17 -20 -36 -5 -36 20 0 9 -19
-18 -31 -30 -13 -54 -52 -46 -74 4 -10 0 -12 -15 -8 -12 3 -21 9 -21 14 0 5
-7 9 -15 9 -11 0 -12 -5 -5 -25 14 -37 2 -84 -21 -82 -10 1 -19 5 -19 10 0 5
-7 7 -15 3 -9 -3 -20 3 -27 14 -7 11 -18 20 -24 20 -6 0 -16 10 -23 23 -6 12
-18 33 -26 47 l-14 24 -10 -27 c-17 -45 -40 -45 -82 0 -40 43 -90 68 -106 52
-16 -16 -43 1 -43 27 0 16 -6 24 -18 24 -10 0 -27 7 -38 15 -10 8 -29 15 -42
15 -13 0 -32 5 -43 10 -13 7 -19 7 -19 0 0 -5 -8 -9 -17 -8 -37 3 -53 -3 -53
-18 0 -27 -24 -9 -34 24 -5 18 -12 32 -16 32 -4 0 -15 18 -25 40 -10 23 -25
40 -35 40 -9 0 -21 5 -27 11 -12 12 -83 -16 -83 -33 0 -5 -11 -21 -25 -36 -14
-15 -25 -31 -25 -37 0 -5 -9 -21 -20 -35 -16 -20 -20 -22 -20 -7 0 19 4 18
-72 22 -34 2 -58 -1 -58 -6 0 -6 -9 -8 -19 -4 -11 3 -22 1 -26 -5 -4 -6 -18
-15 -31 -20 -13 -5 -24 -16 -24 -25 0 -15 -24 -23 -71 -23 -17 0 -41 -16 -77
-52 -55 -55 -82 -60 -82 -15 0 31 -27 34 -32 3 -2 -15 -11 -24 -25 -26 -13 -2
-23 -10 -23 -18 0 -8 -4 -14 -10 -14 -5 0 -10 -8 -11 -17 0 -11 -3 -13 -6 -5
-2 6 -18 12 -33 12 -23 0 -32 7 -46 35 -9 19 -21 36 -28 36 -6 1 -15 2 -21 4
-5 1 -18 3 -28 3 -10 1 -17 8 -16 15 4 24 -14 47 -37 47 -28 0 -30 6 -7 28 15
15 13 18 -23 33 -21 10 -42 15 -46 13 -4 -3 -5 1 -2 9 3 8 1 18 -5 22 -17 10
-13 25 7 26 13 0 12 3 -6 11 -12 6 -25 22 -28 35 -4 12 -10 23 -15 23 -5 0 -9
6 -9 13 0 7 -9 18 -20 25 -11 7 -20 21 -20 31 0 11 -5 23 -11 26 -6 4 -8 14
-5 22 8 19 -21 42 -53 43 -16 0 -21 4 -18 14 4 10 1 13 -7 10 -13 -5 -38 17
-35 32 6 34 -3 62 -21 67 -24 6 -27 29 -4 25 10 -2 19 3 21 10 3 6 -2 12 -11
12 -9 0 -16 5 -16 11 0 6 7 9 15 5 8 -3 15 -1 15 4 0 6 -5 10 -11 10 -6 0 -9
7 -5 15 3 9 0 15 -10 15 -12 0 -14 7 -9 30 6 25 3 32 -17 39 -27 11 -29 11 48
17 47 4 65 1 77 -11 9 -8 33 -15 55 -15 22 0 42 -5 44 -11 5 -14 55 8 62 27 3
8 -6 21 -20 31 -20 13 -24 21 -19 42 4 14 14 35 23 46 27 32 54 84 48 94 -3 5
1 11 9 15 8 3 15 15 15 26 0 30 20 24 33 -10 6 -17 19 -33 29 -36 21 -6 25
-50 6 -57 -7 -3 2 -8 20 -12 17 -4 32 -11 32 -16 0 -4 15 -7 33 -7 69 1 117
-16 117 -44 0 -10 19 -39 43 -62 23 -24 49 -53 57 -65 8 -12 20 -21 27 -21 7
0 13 -6 13 -12 0 -7 9 -24 20 -38 11 -14 20 -32 20 -41 0 -21 39 -71 50 -64 5
3 15 -4 23 -15 14 -20 14 -20 36 4 23 24 23 25 5 55 -9 16 -25 32 -35 34 -9 3
-20 19 -24 36 -4 17 -13 31 -20 31 -7 0 -17 12 -23 28 -5 15 -24 43 -41 62
-17 19 -31 43 -31 52 0 9 -9 20 -20 23 -11 3 -20 11 -20 17 0 5 9 12 20 15 11
3 20 9 20 14 0 5 11 9 25 9 28 0 75 19 75 31 0 4 -4 11 -10 14 -5 3 -10 20
-10 36 0 33 -25 89 -40 89 -6 0 -10 -4 -10 -9 0 -13 -40 -9 -41 4 -7 51 -5 61
7 71 11 9 12 18 3 43 -11 32 -15 34 -88 33 -57 0 -78 18 -53 47 9 11 33 23 52
26 19 3 36 7 37 9 1 1 -3 17 -10 35 -10 27 -9 34 3 42 11 8 12 12 3 16 -9 3
-10 10 -4 21 10 21 2 82 -11 82 -5 0 -7 -4 -4 -9 3 -4 -5 -13 -19 -19 -18 -8
-26 -8 -35 3 -14 17 -20 84 -9 106 4 8 3 22 -2 30 -5 7 -9 9 -9 3 0 -13 -73
-38 -115 -38 -24 -1 -31 4 -33 22 -3 17 2 25 18 29 27 7 21 24 -14 41 -18 9
-31 10 -39 4 -18 -15 -57 4 -57 27 0 11 -6 24 -13 28 -7 4 -20 20 -29 35 -16
23 -67 46 -92 39 -5 -1 -17 6 -27 15 -10 9 -31 17 -46 19 -15 1 -36 5 -47 10
-11 5 -26 4 -37 -3 -11 -7 -20 -8 -24 -2 -7 12 -19 13 -28 3z m183 -151 c0 -8
7 -26 16 -42 10 -16 14 -35 10 -46 -6 -16 -9 -14 -21 10 -8 15 -13 32 -10 36
8 13 -18 18 -38 8 -26 -14 -50 8 -36 33 12 23 79 23 79 1z m-193 -8 c-3 -3
-12 -4 -19 -1 -8 3 -5 6 6 6 11 1 17 -2 13 -5z m2523 -4 c12 -8 9 -10 -12 -10
-16 0 -28 -5 -28 -11 0 -6 9 -9 20 -6 11 3 23 1 26 -4 6 -11 -36 -28 -52 -22
-7 2 -15 -1 -20 -8 -4 -8 -3 -10 4 -5 7 4 12 2 12 -4 0 -8 9 -10 23 -7 26 7
41 -1 50 -26 4 -10 11 -15 17 -12 6 4 8 11 5 16 -6 9 17 39 29 39 4 0 3 -12 0
-26 -5 -19 -4 -25 5 -20 6 4 11 16 11 27 0 10 5 19 10 19 12 0 10 -72 -2 -80
-4 -3 -9 -26 -11 -51 -5 -52 -34 -94 -53 -78 -6 5 -28 12 -47 14 -29 4 -37 1
-42 -15 -4 -11 -15 -20 -25 -20 -26 0 -62 -21 -98 -57 -17 -18 -38 -33 -45
-33 -8 0 -20 -7 -27 -15 -20 -24 -30 -18 -30 19 0 75 10 95 57 117 52 24 53
31 1 20 -43 -10 -51 -6 -36 19 7 10 19 15 30 12 26 -6 96 17 102 34 3 8 0 14
-7 14 -8 0 -9 3 -1 8 6 4 14 16 17 26 6 16 5 17 -8 6 -22 -18 -44 2 -26 24 7
8 10 24 6 35 -5 15 1 24 24 35 17 9 37 16 46 16 8 0 15 5 15 10 0 13 40 13 60
0z m-2567 -40 c9 0 17 -5 17 -11 0 -6 -9 -8 -20 -4 -12 4 -26 2 -33 -3 -19
-16 -70 -19 -74 -4 -3 6 0 12 7 12 6 0 20 9 32 20 19 18 23 18 38 5 9 -8 24
-15 33 -15z m67 20 c0 -5 -4 -10 -10 -10 -5 0 -10 5 -10 10 0 6 5 10 10 10 6
0 10 -4 10 -10z m45 0 c3 -5 1 -10 -4 -10 -6 0 -11 5 -11 10 0 6 2 10 4 10 3
0 8 -4 11 -10z m105 -30 c0 -5 -5 -10 -11 -10 -5 0 -7 5 -4 10 3 6 8 10 11 10
2 0 4 -4 4 -10z m2150 0 c0 -5 -4 -10 -10 -10 -5 0 -10 5 -10 10 0 6 5 10 10
10 6 0 10 -4 10 -10z m40 -31 c0 -9 -4 -8 -15 1 -8 7 -15 9 -15 5 0 -5 -2 -6
-5 -3 -3 3 -3 12 1 21 5 14 8 14 20 2 8 -7 14 -19 14 -26z m-2270 21 c0 -5 7
-10 17 -10 27 0 82 -48 77 -67 -3 -10 3 -27 13 -38 10 -11 17 -30 15 -42 -3
-24 -18 -28 -74 -24 -16 1 -28 -2 -28 -7 0 -6 -18 -13 -41 -17 -33 -6 -47 -3
-70 14 -15 12 -32 21 -37 21 -15 0 -44 38 -37 49 3 6 2 11 -4 11 -5 0 -13 -4
-16 -10 -8 -12 -25 -13 -25 -1 0 14 61 36 68 24 4 -5 15 -12 24 -16 15 -5 16
-2 8 19 -14 36 -12 54 5 54 9 0 12 -6 9 -15 -4 -8 -1 -15 5 -15 6 0 11 7 11
15 0 9 9 15 24 15 13 0 29 7 36 15 9 10 9 15 1 15 -6 0 -11 5 -11 10 0 6 7 10
15 10 8 0 15 -4 15 -10z m187 -51 c-4 -31 -5 -32 -12 -11 -4 12 -11 22 -16 22
-14 0 -11 28 4 33 20 7 29 -8 24 -44z m2013 31 c0 -5 -7 -10 -16 -10 -8 0 -12
5 -9 10 3 6 10 10 16 10 5 0 9 -4 9 -10z m-3 -67 c4 -10 11 -21 17 -25 7 -5 5
-8 -5 -8 -19 0 -52 34 -42 43 11 12 23 8 30 -10z m33 7 c0 -5 -5 -10 -11 -10
-5 0 -7 5 -4 10 3 6 8 10 11 10 2 0 4 -4 4 -10z m-2569 -12 c10 -103 10 -106
-24 -111 -40 -6 -47 -2 -47 27 0 30 9 37 31 25 15 -7 19 -6 19 6 0 8 -7 15
-16 15 -9 0 -14 6 -11 13 2 6 10 11 16 10 6 -2 10 0 10 5 -3 14 1 22 11 22 6
0 11 -6 11 -12z m2313 -73 c5 -14 -30 -42 -41 -32 -3 4 22 40 33 46 1 1 4 -6
8 -14z m-2136 -12 c-2 -11 4 -18 17 -18 46 -3 55 -6 55 -15 0 -5 -9 -10 -20
-10 -11 0 -20 -6 -20 -14 0 -8 -10 -13 -24 -13 -18 0 -22 4 -19 18 3 12 -1 21
-11 25 -21 8 -35 -4 -17 -15 10 -7 11 -13 2 -30 -7 -11 -15 -21 -19 -21 -22 1
-64 60 -42 60 5 0 21 11 36 25 31 29 66 34 62 8z m-1550 -60 c27 -26 53 -39
90 -48 32 -7 38 -18 26 -49 -8 -21 -70 -22 -78 -1 -3 8 -17 15 -31 15 -23 0
-25 -3 -20 -22 17 -60 38 -107 50 -112 8 -3 11 -15 8 -30 -11 -58 -93 -34 -93
27 0 14 -7 30 -15 37 -8 7 -15 20 -15 29 0 9 -7 29 -15 44 -8 15 -17 44 -21
64 -5 29 -3 39 11 50 26 18 82 16 103 -4z m1430 5 c18 -18 14 -32 -13 -45 -20
-9 -25 -8 -25 2 0 7 -7 16 -17 19 -14 6 -14 8 3 21 23 18 36 19 52 3z m4521 3
c12 -3 -14 -96 -44 -158 -19 -39 -35 -83 -35 -97 0 -31 -8 -36 -64 -38 -46 -2
-60 -15 -50 -43 5 -11 -1 -15 -20 -15 -16 0 -26 -6 -26 -15 0 -8 -7 -15 -15
-15 -8 0 -15 -5 -15 -11 0 -5 -4 -7 -10 -4 -5 3 -10 2 -10 -2 0 -5 -9 -9 -20
-10 -11 -1 -20 4 -20 13 0 8 -8 14 -17 14 -15 0 -16 -2 -3 -10 8 -5 11 -12 7
-17 -4 -4 -17 -2 -27 5 -16 10 -20 10 -20 -2 0 -8 6 -17 13 -19 6 -3 2 -6 -10
-6 -28 -1 -38 15 -23 34 10 12 10 18 0 30 -16 19 -31 20 -24 1 6 -17 -12 -31
-21 -16 -4 6 -10 8 -15 5 -5 -3 -11 -1 -15 5 -10 17 -25 11 -25 -10 0 -11 5
-20 10 -20 6 0 10 -4 10 -10 0 -5 -7 -10 -15 -10 -8 0 -15 -4 -15 -10 0 -5 -4
-10 -8 -10 -5 0 -6 14 -4 31 4 30 3 31 -22 25 -33 -8 -33 6 -1 39 30 30 37 31
28 8 -4 -12 -3 -15 4 -8 6 6 14 20 18 33 5 18 2 22 -14 22 -28 0 -33 14 -11
28 16 10 21 8 30 -9 9 -16 14 -18 26 -8 21 17 30 3 10 -16 -21 -21 -22 -67 -1
-59 8 3 13 11 12 17 -1 8 15 11 48 10 27 -1 54 2 60 7 15 12 46 -25 39 -45 -4
-8 -1 -15 5 -15 6 0 11 5 11 11 0 6 7 9 15 5 23 -9 18 10 -9 32 -20 15 -22 22
-13 31 9 10 8 15 -5 25 -25 18 -23 39 2 31 15 -5 22 0 30 19 5 14 14 26 19 26
5 0 17 3 27 7 14 5 16 2 12 -15 -5 -17 -2 -22 13 -22 21 0 23 -8 9 -30 -6 -10
-10 -11 -10 -2 0 6 -4 12 -10 12 -5 0 -10 -7 -10 -15 0 -26 40 -17 50 11 13
33 13 34 -5 34 -8 0 -15 5 -15 10 0 6 8 10 17 10 13 0 14 3 5 12 -17 17 -15
33 2 19 12 -10 15 -7 18 21 4 32 4 33 14 9 l11 -25 17 34 c9 20 13 37 7 43
-11 11 -49 -12 -57 -35 -3 -10 -14 -18 -24 -18 -10 0 -22 -5 -25 -10 -4 -6
-11 -8 -16 -5 -5 4 -9 3 -9 -2 0 -4 -4 -14 -9 -21 -11 -19 -64 34 -58 58 5 20
-18 54 -32 46 -13 -8 -23 8 -15 27 3 9 12 13 20 10 8 -3 14 0 14 6 0 7 8 7 25
-1 19 -8 22 -14 13 -20 -7 -4 2 -5 22 -2 45 8 104 25 110 33 21 25 75 34 139
22z m-1402 -83 c9 -12 21 -42 51 -135 7 -22 7 -33 0 -33 -6 0 -7 -7 -4 -17 4
-10 -1 -23 -14 -35 -19 -18 -20 -18 -40 2 -15 15 -20 33 -20 75 0 52 -1 55
-25 55 -18 0 -28 -7 -35 -24 -7 -21 -13 -23 -41 -17 -18 4 -34 11 -36 17 -5
14 47 74 64 74 7 0 13 4 13 10 0 5 15 16 33 24 41 18 43 18 54 4z m-3167 -25
c17 -8 30 -19 30 -25 0 -6 7 -16 16 -22 10 -8 13 -20 9 -37 -5 -20 -13 -26
-36 -26 -16 0 -27 2 -24 5 2 3 0 13 -6 23 -22 43 -74 6 -66 -47 4 -23 0 -38
-14 -53 -24 -25 -26 -25 -47 -5 -17 18 -25 64 -10 64 4 0 6 11 2 24 -6 26 10
91 29 114 12 16 72 8 117 -15z m-1140 -24 c-11 -8 -8 -9 13 -5 25 6 27 4 22
-17 -6 -22 3 -33 35 -42 46 -12 68 -35 54 -56 -11 -18 -26 -9 -21 14 6 20 5
21 -7 4 -8 -10 -20 -15 -30 -11 -9 3 -16 1 -16 -5 0 -14 -37 -15 -45 -1 -4 6
-11 8 -16 5 -21 -13 -7 15 16 33 l26 20 -33 11 c-40 13 -50 58 -14 63 28 5 34
-1 16 -13z m-50 7 c0 -3 -4 -8 -10 -11 -5 -3 -10 -1 -10 4 0 6 5 11 10 11 6 0
10 -2 10 -4z m5446 -22 c-4 -9 -1 -23 5 -30 10 -12 8 -13 -7 -8 -20 7 -44 32
-44 46 0 4 12 8 26 8 20 0 25 -4 20 -16z m-5299 -30 c-6 -6 -47 9 -47 17 0 5
11 3 25 -3 14 -6 24 -13 22 -14z m5243 6 c0 -5 -7 -10 -15 -10 -8 0 -15 5 -15
10 0 6 7 10 15 10 8 0 15 -4 15 -10z m-5397 -28 c-2 -10 -14 -24 -25 -31 -18
-11 -20 -11 -15 3 4 9 1 16 -5 16 -7 0 -6 5 2 15 18 22 49 20 43 -3z m5302 8
c-3 -5 -14 -10 -23 -9 -14 0 -13 2 3 9 27 11 27 11 20 0z m110 0 c-3 -5 -14
-10 -23 -10 -15 0 -15 2 -2 10 20 13 33 13 25 0z m-1481 -44 c37 4 105 -26 99
-43 -3 -7 1 -13 9 -13 17 0 43 -44 34 -58 -3 -5 1 -15 9 -22 8 -7 15 -25 15
-41 0 -27 -3 -29 -40 -29 -28 0 -43 -5 -47 -16 -3 -8 -11 -13 -18 -11 -6 3
-12 -1 -12 -9 0 -8 6 -14 14 -14 7 0 13 -4 13 -10 0 -5 -9 -10 -19 -10 -11 0
-22 -4 -25 -8 -3 -5 -18 -7 -34 -4 -18 2 -33 -2 -42 -13 -12 -15 -15 -14 -37
11 -13 15 -26 38 -29 51 -4 13 -10 23 -14 23 -4 0 -11 12 -15 28 -3 15 -12 34
-19 42 -19 22 -26 58 -12 65 8 3 8 7 -1 11 -7 3 -13 14 -13 24 0 16 7 19 41
17 31 -2 44 2 55 17 8 11 14 16 14 11 0 -5 5 -4 12 3 6 6 16 8 22 4 6 -5 24
-7 40 -6z m1501 4 c-3 -5 -13 -10 -21 -10 -8 0 -14 5 -14 10 0 6 9 10 21 10
11 0 17 -4 14 -10z m-3861 -19 c30 -20 77 -19 104 2 8 6 12 6 12 -2 0 -6 7
-11 15 -11 8 0 15 -4 15 -10 0 -5 -6 -10 -13 -10 -13 0 -16 -38 -3 -58 4 -7 1
-15 -8 -18 -9 -3 -16 -16 -16 -29 0 -51 -12 -85 -31 -85 -12 0 -16 -5 -13 -14
14 -36 -42 -69 -73 -44 -7 6 -19 8 -28 5 -8 -4 -31 0 -52 8 -21 7 -32 14 -25
14 19 1 14 31 -5 31 -15 1 -15 3 3 13 12 7 19 18 17 25 -6 15 -43 16 -43 1 0
-6 -14 -9 -32 -7 -25 2 -33 9 -39 30 -5 18 -3 31 6 38 7 6 16 21 19 33 3 13
27 38 53 57 40 30 62 40 103 49 3 0 18 -8 34 -18z m-1555 -22 c37 -40 182 -61
150 -23 -9 11 -7 14 9 14 14 0 20 -7 20 -25 0 -24 -3 -25 -59 -25 -49 0 -59
-3 -59 -17 -1 -17 -1 -17 -11 -1 -8 15 -14 15 -35 6 -23 -11 -29 -9 -44 10
-10 12 -25 22 -34 22 -9 0 -16 5 -16 11 0 7 11 9 30 6 16 -4 32 -2 35 3 3 6
-3 10 -14 10 -21 0 -35 13 -24 24 12 12 32 6 52 -15z m205 -13 c-3 -7 2 -16
10 -19 9 -4 16 -11 16 -17 0 -15 -30 -12 -31 3 -1 6 -3 22 -4 34 -1 12 1 20 6
17 4 -2 6 -11 3 -18z m5160 -12 c5 -12 1 -14 -17 -8 -28 8 -30 11 -23 23 8 13
33 4 40 -15z m-5257 10 c-3 -3 -12 -4 -19 -1 -8 3 -5 6 6 6 11 1 17 -2 13 -5z
m-157 -44 c0 -5 -5 -10 -11 -10 -5 0 -7 5 -4 10 3 6 8 10 11 10 2 0 4 -4 4
-10z m320 -55 c12 -25 19 -51 17 -57 -3 -7 -6 -3 -6 9 -2 40 -71 38 -71 -2 0
-7 -10 -16 -22 -19 l-23 -6 25 -15 25 -14 -27 -1 c-25 0 -82 42 -72 53 3 2
-14 3 -36 1 -29 -2 -39 0 -34 8 4 7 3 8 -4 4 -7 -4 -9 -19 -5 -37 3 -16 2 -29
-3 -28 -21 4 -35 -2 -29 -11 3 -5 1 -10 -5 -10 -16 0 -66 52 -74 78 -6 18 -4
22 13 22 12 0 20 -6 18 -12 -1 -7 8 -14 21 -16 18 -3 23 1 20 15 -3 18 1 19
50 22 15 1 26 9 29 21 3 11 12 20 21 20 12 0 13 -3 4 -12 -22 -22 -14 -48 13
-48 14 0 25 5 25 10 0 6 -7 10 -15 10 -8 0 -15 5 -15 11 0 5 8 9 18 8 21 -3
68 16 77 30 15 25 44 10 65 -34z m-303 29 c-3 -3 -12 -4 -19 -1 -8 3 -5 6 6 6
11 1 17 -2 13 -5z m1913 -34 c13 -8 13 -10 -2 -10 -9 0 -20 5 -23 10 -8 13 5
13 25 0z m3440 -44 c0 -3 -4 -8 -10 -11 -5 -3 -10 -1 -10 4 0 6 5 11 10 11 6
0 10 -2 10 -4z m-5012 -42 c12 -4 22 -12 22 -20 0 -19 16 -26 62 -28 45 -2 46
-4 53 -84 2 -23 7 -47 10 -52 9 -14 -5 -58 -20 -64 -26 -9 -56 6 -54 28 4 63
-1 86 -21 86 -11 0 -29 -9 -39 -19 -19 -19 -54 -41 -66 -41 -15 0 -35 71 -26
89 10 19 4 61 -9 61 -4 0 -13 -7 -20 -15 -7 -9 -19 -14 -27 -11 -9 4 -11 2 -6
-7 18 -30 8 -33 -48 -14 -33 10 -56 23 -53 29 6 9 31 6 68 -8 12 -4 15 -2 10
9 -6 18 12 32 21 17 4 -7 11 -7 18 -2 21 17 67 23 87 12 20 -11 29 3 10 15
-12 7 -13 25 -2 25 4 0 17 -3 30 -6z m3012 -15 c0 -6 -4 -7 -10 -4 -5 3 -10
11 -10 16 0 6 5 7 10 4 6 -3 10 -11 10 -16z m1714 12 c11 -4 15 -10 10 -13 -5
-4 -18 0 -29 8 -20 15 -12 17 19 5z m546 -51 c5 -10 7 -20 4 -23 -3 -3 -2 -11
2 -18 13 -22 11 -99 -3 -99 -7 0 -12 -8 -11 -17 4 -48 -1 -55 -29 -48 -30 7
-66 35 -46 35 7 0 12 8 12 18 0 9 2 34 4 55 3 28 1 37 -10 37 -8 0 -17 -9 -20
-20 -3 -11 -9 -20 -14 -20 -5 0 -9 -7 -9 -16 0 -12 -6 -15 -22 -10 -13 3 -26
6 -29 6 -11 0 -18 40 -8 46 5 3 9 14 9 25 0 10 6 19 13 19 6 0 24 11 39 24 35
29 104 33 118 6z m-5603 -12 c13 -12 23 -26 23 -31 0 -5 9 -20 20 -34 19 -24
19 -27 3 -38 -9 -7 -24 -11 -32 -10 -9 2 -22 4 -28 4 -7 1 -13 9 -13 19 0 19
-18 42 -33 42 -9 0 -8 -13 8 -102 6 -35 4 -39 -20 -48 -23 -9 -30 -7 -45 10
-10 12 -16 29 -13 40 3 11 1 20 -5 20 -14 0 -5 120 10 138 18 21 99 15 125
-10z m5144 -2 c11 -9 31 -22 45 -28 13 -6 24 -19 24 -29 0 -10 5 -21 10 -24
16 -10 -8 -35 -32 -35 -11 0 -33 14 -50 30 -43 43 -65 40 -70 -10 -2 -22 1
-45 6 -50 7 -7 6 -10 -2 -10 -7 0 -11 -6 -9 -12 1 -7 -6 -12 -15 -12 -10 1
-18 -2 -18 -7 0 -20 -30 -7 -32 14 -4 55 3 144 14 170 10 26 14 28 60 25 27
-2 58 -12 69 -22z m-5231 -238 c0 -7 9 -24 19 -37 15 -20 19 -21 24 -7 4 9 11
16 18 16 6 0 9 -6 6 -14 -5 -13 10 -36 24 -36 3 0 5 11 4 25 -4 33 6 32 26 -4
11 -18 13 -34 8 -44 -8 -13 -4 -15 18 -13 16 1 39 -5 52 -13 22 -14 22 -15 5
-22 -15 -5 -13 -8 14 -13 32 -8 45 -37 22 -51 -6 -4 -7 -11 -4 -17 4 -6 10 -6
17 1 6 6 16 11 21 11 6 0 5 -5 -2 -12 -15 -15 -15 -29 2 -51 12 -16 20 -17 50
-9 29 8 36 8 36 -4 0 -7 -11 -16 -25 -20 -34 -8 -31 -20 6 -28 17 -3 28 -10
25 -15 -3 -5 1 -12 10 -15 8 -3 13 -2 10 3 -4 5 17 9 46 9 37 1 55 -4 64 -16
11 -15 16 -15 34 -4 26 16 45 3 53 -34 6 -32 -16 -44 -71 -38 -24 2 -42 -1
-42 -6 0 -6 7 -10 15 -10 8 0 15 -7 15 -15 0 -8 5 -15 10 -15 6 0 10 -8 10
-19 0 -10 7 -24 16 -32 13 -11 12 -14 -13 -25 l-28 -12 32 -13 c28 -12 30 -14
15 -26 -16 -11 -15 -12 3 -14 11 -1 27 -1 36 0 9 1 22 -6 30 -16 8 -9 10 -14
4 -12 -14 8 -47 -28 -34 -37 6 -4 15 0 20 7 7 12 9 12 9 0 0 -7 -10 -22 -22
-32 -21 -19 -21 -19 -1 -19 26 0 50 -26 31 -33 -7 -3 2 -6 20 -6 21 -1 32 -6
32 -15 0 -24 20 -30 90 -28 62 2 68 0 78 -22 12 -27 7 -36 -18 -36 -9 0 -25
-9 -34 -19 -17 -19 -17 -19 3 -14 15 4 21 1 21 -10 0 -9 10 -17 23 -19 17 -2
25 -13 34 -53 7 -27 19 -54 26 -60 7 -5 13 -21 13 -35 0 -19 5 -25 24 -26 13
-1 34 -14 47 -30 19 -24 20 -31 9 -44 -12 -12 -12 -17 -1 -27 10 -10 14 -9 19
2 3 8 10 15 16 15 7 0 7 -6 -1 -21 -9 -18 -8 -20 9 -15 14 5 21 1 25 -14 3
-12 13 -20 26 -20 12 0 24 -6 27 -14 3 -8 13 -12 25 -9 13 4 19 0 19 -11 0 -9
5 -16 11 -16 5 0 8 -4 5 -9 -3 -5 3 -11 14 -14 23 -6 27 -35 5 -43 -8 -4 -15
-12 -15 -18 0 -7 -11 -23 -25 -36 -27 -26 -55 -74 -55 -97 0 -7 -4 -13 -10
-13 -5 0 -10 -9 -10 -20 0 -13 7 -20 20 -20 25 0 46 -36 25 -44 -9 -3 -15 -18
-15 -37 0 -43 -19 -33 -48 25 -13 26 -30 50 -38 53 -8 3 -14 11 -14 19 0 8 -5
14 -11 14 -6 0 -17 7 -25 15 -21 20 -34 19 -34 -3 0 -24 -47 -47 -65 -32 -7 6
-11 19 -8 29 5 21 -73 173 -99 191 -4 3 -14 22 -22 42 -9 20 -25 43 -37 51
-11 8 -21 21 -23 30 -1 8 -9 22 -19 31 -9 10 -17 24 -17 32 0 8 -7 17 -15 20
-9 4 -15 11 -14 18 4 29 -3 39 -12 17 -5 -13 -7 -32 -4 -42 13 -40 -45 -87
-61 -50 -4 9 -6 19 -6 24 1 4 -3 7 -9 7 -5 0 -7 4 -4 10 3 5 7 31 8 57 1 43
-1 47 -26 56 -22 7 -32 5 -46 -7 -10 -9 -29 -16 -44 -16 -27 0 -44 14 -28 24
4 3 11 19 14 36 6 28 9 30 51 30 27 0 46 5 49 13 3 9 7 9 18 0 10 -8 20 -9 29
-2 13 8 12 11 -4 24 -10 7 -15 18 -11 24 3 6 -1 11 -10 11 -8 0 -19 8 -22 17
-12 30 -45 62 -59 56 -9 -3 -14 2 -14 15 0 11 -13 30 -29 42 -17 11 -33 30
-36 41 -8 24 -40 59 -55 59 -5 0 -10 4 -10 8 0 5 -19 29 -42 54 -24 25 -50 55
-58 67 -8 12 -20 21 -26 21 -7 0 -43 30 -81 66 -37 36 -78 70 -90 75 -13 5
-23 14 -23 21 0 7 -12 22 -26 32 -18 15 -24 26 -20 42 5 17 1 24 -14 29 -11 4
-18 11 -14 16 3 6 -2 9 -11 7 -10 -2 -20 3 -22 10 -3 6 4 12 14 13 14 0 14 2
3 6 -8 3 -19 11 -25 17 -5 6 -25 22 -42 35 -35 24 -44 63 -23 101 10 18 88 70
125 82 36 11 85 9 85 -4z m5775 -21 c9 -9 24 -17 34 -17 18 0 36 -18 59 -58
10 -19 9 -27 -10 -57 -13 -19 -29 -35 -35 -35 -16 0 -82 -71 -83 -87 0 -7 -3
-12 -7 -12 -19 3 -33 -2 -33 -12 0 -5 5 -7 10 -4 6 3 10 1 10 -4 0 -6 -4 -11
-10 -11 -5 0 -10 -7 -10 -16 0 -9 5 -12 12 -8 7 4 8 3 4 -4 -4 -6 -14 -8 -23
-5 -13 5 -15 2 -10 -11 4 -10 3 -15 -3 -11 -5 3 -15 -5 -21 -18 -6 -13 -25
-30 -42 -38 -18 -8 -36 -24 -42 -36 -5 -12 -17 -25 -27 -30 -29 -13 -148 -125
-148 -139 0 -7 -9 -16 -20 -19 -11 -3 -23 -17 -26 -31 -3 -13 -12 -24 -20 -24
-8 0 -14 -6 -14 -14 0 -7 -11 -21 -25 -30 -14 -9 -23 -21 -20 -26 4 -6 2 -10
-3 -10 -5 0 -12 -9 -15 -21 -3 -11 -15 -23 -26 -26 -12 -3 -21 -9 -21 -14 0
-5 -7 -9 -16 -9 -10 0 -14 -6 -10 -15 3 -10 -5 -20 -25 -30 -16 -9 -27 -21
-23 -26 3 -6 -3 -17 -15 -25 -12 -8 -21 -22 -21 -30 0 -16 16 -19 25 -4 4 6
12 7 18 3 7 -4 22 -6 34 -5 11 2 24 -2 28 -7 3 -6 17 -11 30 -11 28 0 49 -32
40 -60 -7 -23 -31 -25 -72 -8 -15 6 -37 12 -47 14 -22 2 -51 -22 -38 -30 10
-6 9 -36 -2 -54 -4 -7 -2 -19 4 -27 19 -23 8 -60 -19 -63 -40 -6 -52 18 -52
108 l1 35 -14 -25 c-8 -14 -12 -28 -10 -32 3 -5 0 -8 -5 -8 -6 0 -11 -7 -11
-15 0 -8 -4 -15 -10 -15 -5 0 -10 -7 -10 -15 0 -8 -4 -15 -8 -15 -5 0 -14 -16
-22 -35 -8 -19 -17 -35 -22 -35 -4 0 -8 -6 -8 -13 0 -7 -14 -26 -31 -43 -31
-29 -69 -96 -69 -121 0 -8 -6 -16 -14 -19 -19 -7 -34 -52 -29 -86 3 -25 1 -26
-29 -21 -18 3 -37 11 -41 19 -9 16 -47 19 -47 4 0 -5 -6 -10 -13 -10 -8 0 -20
-12 -27 -27 -8 -16 -19 -35 -26 -43 -6 -8 -14 -27 -18 -42 -7 -29 -26 -39 -26
-14 0 7 -9 25 -20 39 -22 27 -18 53 8 62 10 2 23 14 29 24 10 17 9 23 -12 43
-14 13 -25 30 -25 38 0 9 -14 28 -31 43 -17 15 -28 27 -23 27 4 0 -2 10 -13
23 -24 26 -26 57 -5 57 8 0 26 12 40 27 16 18 27 23 30 15 6 -19 22 -14 22 8
0 11 7 20 15 20 8 0 18 12 21 27 4 15 18 37 31 49 12 12 23 31 23 43 0 11 5
21 11 21 5 0 7 4 4 10 -4 6 1 7 10 3 10 -3 21 0 26 8 4 8 13 15 19 15 21 3 22
4 12 17 -9 10 -6 17 8 29 10 9 22 13 26 10 4 -4 4 1 1 11 -4 9 -2 17 3 17 6 0
10 7 10 15 0 32 31 65 62 65 22 0 29 4 26 17 -2 9 -12 17 -22 19 -23 3 -36 21
-36 50 0 16 8 23 27 27 16 3 32 2 38 -1 29 -18 129 21 108 42 -4 3 -1 6 5 6 7
0 12 -4 12 -10 0 -19 15 -10 27 15 9 20 8 25 -2 25 -10 0 -13 22 -6 50 0 3 13
7 28 8 30 2 44 13 26 19 -22 8 -14 32 12 39 21 5 23 9 14 26 -6 11 -8 22 -5
26 3 3 6 0 6 -6 0 -7 8 -12 18 -12 13 0 14 2 3 9 -9 6 -10 11 -2 15 6 4 11 16
11 27 0 11 4 17 10 14 6 -3 7 1 4 10 -4 9 2 28 13 43 l20 27 -44 -4 c-32 -2
-50 2 -64 14 -10 10 -19 21 -19 25 0 4 19 20 42 35 30 20 46 25 57 18 9 -5 42
-8 73 -6 49 4 57 2 52 -11 -8 -21 2 -20 27 3 18 17 19 19 3 25 -20 8 -12 19
18 23 27 4 48 21 48 39 0 17 12 18 27 3 7 -7 15 -2 27 16 10 16 23 24 32 21
13 -5 19 5 15 27 0 4 9 7 22 7 25 0 57 31 57 55 0 21 27 19 39 -2 8 -16 11
-15 20 10 7 19 18 27 35 27 24 0 36 21 36 68 0 41 18 62 49 59 16 -2 36 -11
46 -20z m-1695 -1 c0 -11 -19 -15 -25 -6 -3 5 1 10 9 10 9 0 16 -2 16 -4z
m1580 -71 c0 -14 -4 -25 -10 -25 -5 0 -10 11 -10 25 0 14 5 25 10 25 6 0 10
-11 10 -25z m-50 -21 c0 -8 -4 -14 -10 -14 -5 0 -10 2 -10 4 0 2 -3 12 -6 20
-5 12 -2 15 10 10 9 -3 16 -12 16 -20z m-1307 -3 c4 -1 7 -10 7 -20 0 -11 5
-21 11 -23 12 -4 21 -109 11 -125 -10 -15 -45 -24 -58 -15 -15 9 -20 50 -10
79 4 13 5 27 1 32 -7 13 -53 -11 -71 -38 -9 -12 -21 -21 -28 -21 -8 0 -16 -7
-20 -15 -14 -36 -80 4 -70 43 4 12 14 22 23 22 10 0 27 14 40 31 14 19 28 28
38 25 8 -3 26 3 39 13 15 12 36 18 52 16 15 -2 30 -4 35 -4z m-4063 -16 c0 -8
-2 -15 -4 -15 -2 0 -6 7 -10 15 -3 8 -1 15 4 15 6 0 10 -7 10 -15z m1203 9
c20 -4 37 -12 37 -19 0 -7 14 -19 30 -27 17 -8 39 -31 49 -52 17 -33 18 -38 4
-52 -9 -8 -22 -13 -30 -10 -8 3 -19 6 -24 6 -5 0 -9 7 -9 15 0 8 -7 15 -15 15
-8 0 -15 5 -15 10 0 6 -12 16 -27 23 -16 6 -33 19 -40 27 -10 13 -12 13 -19
-3 -3 -10 -4 -38 0 -63 5 -40 3 -46 -17 -53 -27 -11 -39 -1 -40 33 -1 14 -5
26 -8 26 -4 0 -9 15 -11 32 -6 36 9 91 22 83 5 -3 11 -1 15 5 7 11 42 13 98 4z
m222 -44 c3 -5 1 -10 -4 -10 -6 0 -11 5 -11 10 0 6 2 10 4 10 3 0 8 -4 11 -10z
m-1825 -212 c0 -13 11 -40 25 -60 28 -41 33 -86 10 -94 -25 -10 -75 18 -75 43
0 12 -4 25 -10 28 -5 3 -10 16 -10 28 -1 22 -21 57 -34 57 -4 0 -14 -16 -22
-35 -8 -19 -19 -35 -24 -35 -6 0 -19 -9 -30 -20 -25 -25 -70 -27 -70 -2 1 21
23 52 38 52 6 0 13 14 17 30 4 17 13 30 21 30 8 0 17 7 20 15 4 8 12 15 19 15
7 0 23 9 36 19 24 19 24 19 56 -14 18 -19 33 -44 33 -57z m1910 88 c0 -3 -4
-8 -10 -11 -5 -3 -10 -1 -10 4 0 6 5 11 10 11 6 0 10 -2 10 -4z m4203 -50 c21
-14 43 -26 49 -26 5 0 8 -7 4 -15 -7 -20 8 -19 25 1 10 13 10 17 -1 24 -8 5
-11 12 -6 17 4 4 12 0 17 -10 6 -9 18 -17 28 -17 22 0 33 -22 25 -47 -5 -14
-4 -15 4 -4 9 12 14 12 36 -2 26 -17 26 -17 6 -37 -25 -25 -40 -26 -40 -2 0 9
-13 26 -27 36 -23 17 -26 17 -20 3 3 -9 2 -17 -3 -17 -5 0 -12 -16 -16 -35 -3
-19 -11 -35 -16 -35 -15 0 -98 60 -98 71 0 6 -6 7 -12 2 -7 -4 -20 -8 -28 -8
-8 0 -16 -10 -18 -22 -3 -18 2 -23 17 -23 15 0 21 -6 21 -24 0 -22 -4 -24 -44
-22 -24 1 -42 -2 -40 -6 11 -17 -27 -7 -46 12 -28 28 -25 50 10 99 19 25 29
49 25 60 -8 27 18 53 61 60 21 4 41 4 44 0 3 -4 22 -19 43 -33z m-6043 25 c0
-6 -4 -12 -8 -15 -5 -3 -9 1 -9 9 0 8 4 15 9 15 4 0 8 -4 8 -9z m-300 -190 c0
-4 -5 -12 -11 -18 -9 -9 -15 -8 -26 3 -8 7 -12 18 -9 23 7 10 46 3 46 -8z
m306 -37 c-4 -12 -10 -14 -17 -7 -5 5 -7 17 -3 27 4 12 10 14 17 7 5 -5 7 -17
3 -27z m4069 11 c43 -11 58 -25 45 -40 -6 -7 -8 -24 -5 -38 5 -20 0 -30 -28
-51 -18 -14 -46 -26 -61 -26 -24 0 -26 3 -22 28 2 15 5 30 5 33 1 4 10 9 22
12 12 3 18 10 14 17 -5 8 -10 8 -20 0 -19 -16 -66 -9 -78 11 -8 12 -6 23 5 40
16 26 61 31 123 14z m2110 5 c-3 -5 -12 -10 -18 -10 -7 0 -6 4 3 10 19 12 23
12 15 0z m-6342 -20 c-3 -12 -8 -19 -11 -16 -5 6 5 36 12 36 2 0 2 -9 -1 -20z
m2030 -8 c7 -37 -8 -52 -57 -53 -33 0 -37 -2 -20 -9 25 -10 35 -30 27 -60 -4
-13 -11 -19 -20 -16 -8 3 -21 6 -28 6 -25 0 -75 60 -75 91 0 16 5 29 10 29 6
0 10 6 10 14 0 17 17 22 91 24 54 1 57 0 62 -26z m3955 19 c11 -6 9 -9 -7 -14
-11 -3 -25 1 -32 9 -9 11 -8 14 7 14 11 0 25 -4 32 -9z m-71 -41 c-13 -21 -27
-26 -27 -10 0 6 5 10 10 10 6 0 10 7 10 16 0 8 4 12 10 9 6 -4 5 -13 -3 -25z
m243 9 c17 -30 5 -34 -29 -9 -37 26 -38 30 -6 30 14 0 29 -8 35 -21z m-6414
-16 c-10 -10 -19 5 -10 18 6 11 8 11 12 0 2 -7 1 -15 -2 -18z m227 -1 c10 -10
14 -22 10 -25 -7 -8 -43 21 -43 35 0 14 16 9 33 -10z m107 8 c0 -5 -4 -10 -10
-10 -5 0 -10 5 -10 10 0 6 5 10 10 10 6 0 10 -4 10 -10z m6010 -10 c0 -11 -7
-20 -15 -20 -17 0 -18 2 -9 24 9 23 24 20 24 -4z m-5980 0 c0 -5 -2 -10 -4
-10 -3 0 -8 5 -11 10 -3 6 -1 10 4 10 6 0 11 -4 11 -10z m150 0 c0 -5 -5 -10
-11 -10 -5 0 -7 5 -4 10 3 6 8 10 11 10 2 0 4 -4 4 -10z m-460 -15 c7 -8 19
-15 26 -15 8 0 13 -3 13 -7 -4 -27 3 -43 21 -43 11 0 20 -6 20 -14 0 -8 7 -17
16 -20 15 -6 15 -8 -1 -26 -23 -26 -35 -25 -79 5 -49 33 -58 32 -50 -7 15 -72
12 -80 -28 -84 -30 -2 -38 0 -39 14 0 9 -3 43 -5 75 -3 42 0 64 13 85 32 52
68 67 93 37z m400 5 c0 -5 -7 -10 -16 -10 -8 0 -12 5 -9 10 3 6 10 10 16 10 5
0 9 -4 9 -10z m-170 -10 c0 -5 -5 -10 -11 -10 -5 0 -7 5 -4 10 3 6 8 10 11 10
2 0 4 -4 4 -10z m169 -40 c5 0 11 -7 13 -16 3 -18 58 -30 58 -13 0 5 12 6 26
3 20 -5 25 -3 22 7 -3 9 -18 14 -41 13 -45 -2 -49 11 -5 20 22 4 37 1 49 -10
13 -12 31 -14 75 -10 64 6 86 -3 98 -42 4 -12 12 -22 18 -22 6 0 8 -10 4 -26
-4 -14 -2 -32 4 -39 6 -8 10 -26 8 -42 -2 -23 -8 -29 -34 -31 -19 -2 -38 3
-47 12 -24 24 -38 20 -31 -9 5 -22 4 -24 -12 -18 -18 6 -18 6 -2 -10 9 -9 27
-16 40 -16 17 1 18 3 6 6 -10 2 -18 8 -18 13 0 18 19 20 46 5 22 -11 29 -22
31 -52 2 -37 1 -38 -31 -38 -25 0 -32 4 -28 14 4 10 1 13 -11 8 -9 -3 -23 1
-32 9 -8 8 -20 12 -26 8 -8 -4 -9 -3 -5 4 4 7 1 12 -9 12 -9 0 -37 16 -62 35
-46 35 -46 35 -17 36 16 0 23 3 16 6 -6 2 -10 9 -6 14 10 16 24 10 24 -11 0
-11 5 -20 10 -20 6 0 10 4 10 9 0 4 15 12 33 18 l32 9 -44 22 c-51 25 -55 26
-46 12 3 -5 2 -10 -3 -10 -13 0 -33 25 -26 32 2 3 -7 8 -21 10 -22 5 -26 2
-23 -16 2 -13 10 -20 21 -20 19 2 23 -11 7 -21 -6 -4 -8 -11 -5 -16 8 -12 -25
-12 -44 0 -12 8 -13 12 -1 26 11 13 10 18 -6 30 -22 17 -60 19 -69 5 -3 -6 5
-10 19 -10 14 0 28 -4 31 -10 4 -6 -7 -10 -24 -10 -17 0 -31 4 -31 10 0 5 -12
16 -27 24 -16 8 -46 30 -68 50 -42 38 -55 44 -55 25 0 -8 -4 -8 -15 1 -8 6
-30 12 -50 13 -27 1 -35 5 -32 16 1 9 11 15 21 14 10 0 15 4 13 11 -4 9 2 11
19 8 13 -2 24 -9 24 -14 0 -6 7 -8 15 -4 9 3 15 0 15 -8 0 -9 7 -12 20 -9 11
3 20 8 20 12 0 4 16 7 35 8 39 1 45 -11 14 -28 -15 -8 -18 -14 -10 -22 7 -7
18 -2 37 18 23 25 25 31 14 49 -11 17 -7 16 23 -7 20 -15 40 -27 46 -27z
m5738 20 c-3 -11 -1 -20 4 -20 5 0 9 6 9 14 0 20 13 27 30 16 21 -13 -11 -45
-48 -48 -26 -2 -28 0 -24 28 3 18 10 30 19 30 10 0 14 -7 10 -20z m100 0 c-3
-13 -1 -19 7 -18 6 2 13 -1 15 -7 2 -5 12 -22 22 -37 24 -34 24 -47 -1 -41
-11 3 -20 0 -20 -6 0 -6 -10 -11 -22 -10 -22 0 -22 1 -3 9 19 9 19 9 -2 16
-26 7 -28 15 -11 32 8 8 8 15 1 24 -7 8 -7 22 -2 36 10 27 23 29 16 2z m391
-8 c23 -25 25 -35 23 -93 -1 -35 -7 -65 -12 -67 -5 -2 -9 -10 -9 -18 0 -17 -2
-17 -35 -2 -26 12 -33 32 -15 43 6 4 7 12 3 18 -4 7 -7 21 -8 31 0 26 -25 33
-25 8 0 -28 -71 -29 -88 -1 -15 24 -8 39 19 39 10 0 19 4 19 8 0 15 35 49 55
55 38 9 48 7 73 -21z m-268 -1 c0 -24 -18 -37 -32 -23 -7 7 -6 15 3 26 19 21
29 20 29 -3z m-312 -36 c10 0 18 -9 20 -22 2 -13 8 -23 13 -23 6 0 8 8 5 18
-5 16 -2 18 22 14 27 -3 29 -7 26 -40 -4 -45 3 -72 18 -69 6 1 13 -4 15 -10 3
-7 0 -13 -6 -13 -6 0 -8 -6 -5 -14 3 -7 -3 -16 -13 -19 -10 -4 -26 -12 -36
-19 -13 -10 -19 -10 -25 -2 -11 18 -47 21 -65 6 -9 -7 -27 -12 -41 -10 -21 3
-23 5 -13 19 8 11 33 18 70 22 32 2 61 7 64 11 4 3 1 6 -6 6 -7 0 -10 4 -7 9
10 15 -5 40 -20 34 -8 -3 -20 0 -27 5 -8 7 -18 7 -27 2 -22 -14 -33 -12 -26 5
3 8 1 15 -4 15 -6 0 -10 -6 -10 -14 0 -8 -6 -17 -12 -19 -8 -4 -4 -8 10 -12
31 -10 28 -27 -4 -19 -15 4 -25 3 -22 -2 7 -11 -17 -35 -26 -27 -3 3 -8 -2
-12 -11 -8 -21 -64 -22 -64 -1 0 8 -4 15 -10 15 -15 0 -12 41 5 74 8 15 15 41
15 56 0 41 26 63 69 58 20 -3 47 -2 61 2 17 5 29 2 38 -9 7 -9 20 -16 30 -16z
m-3543 5 c3 -5 -1 -10 -10 -10 -9 0 -13 5 -10 10 3 6 8 10 10 10 2 0 7 -4 10
-10z m3830 -20 c3 -5 -1 -10 -9 -10 -8 0 -18 5 -21 10 -3 6 1 10 9 10 8 0 18
-4 21 -10z m-5235 -50 c0 -5 -7 -10 -15 -10 -8 0 -15 5 -15 10 0 6 7 10 15 10
8 0 15 -4 15 -10z m1847 -60 c6 0 10 -20 9 -44 -1 -24 2 -42 6 -40 5 3 8 -1 8
-8 0 -8 -19 -21 -42 -30 -24 -9 -35 -17 -24 -17 14 -1 17 -6 12 -26 -6 -22 -4
-24 16 -21 13 3 28 5 35 5 7 1 16 16 21 34 7 25 14 31 30 30 12 -2 22 2 22 8
0 8 5 7 16 -1 13 -11 16 -10 21 8 3 12 12 22 19 22 8 0 14 5 14 10 0 6 6 10
14 10 7 0 35 10 62 22 69 30 130 30 177 0 28 -19 37 -31 37 -53 0 -15 -5 -31
-11 -35 -8 -4 -7 -9 2 -15 12 -7 12 -10 0 -21 -10 -10 -12 -10 -7 0 9 15 -10
16 -20 0 -4 -6 -2 -14 4 -16 16 -5 5 -22 -14 -22 -8 0 -12 5 -9 10 3 6 -4 10
-17 10 -13 0 -29 -9 -36 -20 -10 -17 -10 -20 4 -20 8 0 12 -4 9 -10 -3 -5 -15
-10 -25 -10 -10 0 -20 -6 -23 -12 -2 -7 -8 -10 -12 -6 -4 4 -2 14 5 23 7 9 10
18 6 22 -3 3 -6 1 -6 -5 0 -7 -11 -12 -24 -12 -18 0 -26 6 -29 23 -3 20 -4 21
-12 3 -5 -12 -2 -28 9 -47 17 -28 17 -29 -3 -29 -14 0 -21 6 -21 20 0 11 -4
20 -10 20 -5 0 -10 8 -10 18 0 12 -4 10 -13 -8 -11 -21 -11 -27 2 -37 9 -6 13
-14 9 -18 -4 -4 -18 4 -32 18 -14 14 -27 22 -30 19 -3 -3 -6 6 -6 19 l-1 24
-13 -24 c-10 -17 -15 -20 -18 -10 -6 17 -55 -38 -50 -57 1 -6 -5 -15 -15 -18
-15 -6 -15 -9 -3 -17 12 -9 11 -9 -5 -4 -11 5 -32 10 -47 12 -37 7 -26 35 13
31 15 -2 27 1 26 7 -1 5 -16 8 -32 6 -17 -1 -43 2 -58 8 -28 11 -35 3 -15 -17
8 -8 8 -15 3 -21 -14 -14 -40 9 -48 41 l-7 27 55 -4 c34 -3 55 -1 55 6 0 5 10
3 22 -5 25 -18 42 -21 33 -6 -3 6 -1 10 4 10 6 0 11 7 11 16 0 13 -3 14 -14 5
-15 -13 -46 -5 -46 13 0 6 -7 2 -15 -8 -13 -17 -15 -18 -15 -3 0 21 -14 22
-31 1 -7 -9 -22 -14 -36 -11 -13 2 -23 0 -23 -6 0 -5 -6 -5 -13 2 -8 6 -16 8
-20 5 -3 -3 -10 3 -16 14 -6 11 -8 21 -6 24 2 2 -5 4 -15 5 -26 2 -26 -23 0
-37 19 -10 19 -13 5 -48 -9 -20 -21 -41 -28 -47 -15 -12 -16 -47 -2 -57 17
-13 27 -9 21 10 -4 13 0 18 14 19 11 1 20 -2 20 -8 0 -5 7 -9 15 -9 8 0 15 -5
15 -11 0 -6 -8 -8 -19 -4 -21 6 -30 -13 -23 -52 4 -23 22 -33 22 -12 0 5 5 7
10 4 6 -3 10 -14 10 -25 0 -13 -5 -17 -21 -13 -14 4 -25 -1 -36 -17 -11 -16
-18 -19 -27 -10 -7 7 -8 13 0 18 13 9 16 52 3 52 -5 0 -9 -6 -9 -13 0 -15 -37
-20 -45 -6 -4 5 3 9 14 9 12 0 21 5 21 10 0 6 -12 10 -26 10 -22 0 -25 3 -20
23 4 17 -1 30 -18 46 -25 24 -25 61 0 61 8 0 14 5 14 10 0 6 -8 10 -19 10 -12
0 -20 9 -23 24 -4 19 -1 22 14 18 10 -2 18 1 18 7 0 6 -7 11 -15 11 -8 0 -15
9 -15 20 0 11 7 23 15 26 8 4 15 15 15 26 0 30 45 68 80 68 28 0 30 2 24 27
-6 21 -4 25 9 20 9 -3 17 -2 19 3 7 21 29 -10 31 -43 2 -30 6 -36 35 -45 21
-7 30 -7 26 0 -4 6 1 8 15 3 11 -3 21 -2 21 3 0 11 -50 58 -58 54 -4 -2 -8 1
-10 8 -2 6 0 10 5 9 26 -5 52 3 57 17 9 24 3 26 -29 10 -29 -15 -50 -12 -39 5
3 6 13 9 22 8 10 -1 28 3 42 9 19 8 28 7 36 -4 6 -8 16 -14 21 -14z m3133 0
c0 -5 -9 -14 -20 -20 -16 -8 -20 -8 -20 4 0 8 -6 17 -12 19 -7 3 2 6 20 6 17
1 32 -3 32 -9z m-142 -90 c11 -18 10 -20 -8 -20 -13 0 -20 7 -20 20 0 11 3 20
8 20 4 0 13 -9 20 -20z m-2053 -12 c6 -5 11 -19 12 -31 14 -136 15 -127 -20
-142 -28 -12 -34 -12 -43 1 -7 8 -10 24 -7 34 3 11 2 31 -1 46 -6 22 -11 25
-34 19 -15 -4 -30 -12 -34 -19 -10 -18 -73 -19 -88 -1 -20 24 5 63 47 71 18 3
33 11 33 16 0 6 7 7 15 4 9 -3 18 1 22 10 4 12 15 14 47 9 22 -4 46 -11 51
-17z m-3978 -114 c2 -7 -6 -10 -21 -7 -14 3 -23 10 -20 15 8 12 36 6 41 -8z
m6472 -11 c14 -15 16 -14 21 8 l6 23 16 -22 c8 -13 19 -22 24 -21 40 7 47 -1
40 -48 -3 -26 -11 -50 -17 -54 -6 -3 -10 -9 -10 -13 3 -20 -1 -26 -15 -26 -10
0 -14 -6 -10 -15 3 -10 -1 -15 -13 -15 -13 0 -20 -10 -24 -30 -4 -20 -13 -30
-24 -30 -11 0 -24 -13 -32 -31 -7 -16 -31 -41 -52 -55 -21 -13 -39 -28 -39
-33 0 -5 -8 -11 -19 -14 -14 -3 -17 -11 -14 -30 10 -51 28 -52 87 -5 30 23 55
49 55 56 1 7 12 18 26 24 14 6 25 17 25 25 0 7 9 13 20 13 13 0 25 10 33 28
12 28 59 43 72 22 3 -5 2 -10 -4 -10 -6 0 -8 -7 -5 -15 7 -18 0 -19 -27 -5
-15 8 -19 7 -19 -5 0 -8 -4 -15 -10 -15 -5 0 -14 -10 -21 -22 -10 -18 -9 -20
5 -15 9 4 16 5 16 3 0 -3 2 -11 6 -19 6 -17 -57 -85 -74 -79 -7 2 -12 -1 -12
-7 0 -6 -5 -11 -11 -11 -5 0 -24 -13 -42 -30 -18 -16 -36 -30 -42 -30 -5 0
-21 -9 -35 -19 l-25 -20 37 -35 c20 -20 36 -45 35 -55 -1 -21 -37 -37 -47 -21
-3 4 -17 11 -32 15 -25 6 -29 3 -44 -34 -9 -23 -22 -41 -30 -41 -8 0 -14 -4
-14 -10 0 -6 -10 -5 -25 2 -23 10 -36 48 -16 48 5 0 11 7 14 14 8 21 -24 8
-41 -16 -7 -10 -20 -18 -28 -18 -8 0 -14 -4 -14 -10 0 -5 -7 -10 -15 -10 -8 0
-15 -5 -15 -10 0 -6 -8 -13 -17 -17 -17 -6 -39 -27 -141 -137 -24 -25 -46 -46
-51 -46 -4 0 -18 -12 -32 -26 -13 -14 -37 -32 -52 -40 -15 -8 -25 -19 -22 -23
2 -5 -4 -11 -15 -14 -13 -3 -22 -17 -26 -36 -4 -17 -10 -31 -15 -31 -5 0 -9
-9 -9 -20 0 -11 -4 -20 -10 -20 -5 0 -10 -6 -10 -14 0 -8 -9 -21 -20 -29 -12
-8 -20 -18 -18 -23 2 -5 -5 -18 -15 -29 -68 -75 -97 -112 -97 -122 0 -7 -6
-13 -14 -13 -7 0 -21 -10 -30 -22 l-16 -23 -16 23 c-17 22 -69 31 -76 13 -1
-5 -17 -11 -35 -14 -17 -3 -36 -8 -42 -11 -5 -3 -16 0 -24 8 -8 8 -17 13 -20
10 -3 -3 1 16 9 42 8 26 12 56 9 65 -6 17 29 46 48 41 4 -1 12 9 17 22 10 28
1 189 -11 194 -15 6 23 52 42 52 20 0 27 34 9 45 -5 3 -10 19 -10 34 0 23 5
30 25 33 14 3 28 2 31 -3 2 -5 18 -6 33 -3 16 3 37 1 48 -4 10 -6 38 -8 61 -5
32 4 42 10 42 24 0 11 7 19 15 19 8 0 15 5 15 10 0 6 6 10 13 10 8 0 18 17 23
38 6 25 15 37 26 37 10 0 17 3 15 7 -3 10 45 58 60 58 11 0 11 4 1 20 -7 11
-19 20 -27 20 -8 0 -29 16 -47 36 -36 41 -64 41 -64 -1 0 -14 -4 -25 -10 -25
-5 0 -10 -9 -10 -20 0 -17 -7 -20 -39 -20 -45 0 -61 23 -35 51 9 10 17 29 18
43 0 14 7 26 14 26 6 0 12 11 12 25 0 18 7 28 26 35 39 15 56 12 92 -18 18
-15 46 -37 62 -50 16 -13 29 -26 29 -30 -1 -4 -1 -19 0 -34 1 -29 21 -40 21
-13 0 8 7 15 15 15 8 0 15 5 15 11 0 5 3 8 8 6 4 -3 15 4 26 14 18 17 18 18
-3 12 -15 -4 -21 -1 -21 11 0 9 7 16 15 16 8 0 15 7 15 15 0 8 6 16 13 16 77
7 87 14 87 62 0 20 5 27 19 27 11 0 23 5 26 10 5 7 11 8 19 1 9 -7 11 -2 10
22 -2 38 -13 97 -20 109 -9 15 -24 -2 -24 -28 0 -15 -6 -24 -15 -24 -8 0 -15
-4 -15 -9 0 -17 -59 -8 -77 11 -17 19 -17 20 0 29 9 6 17 17 17 24 0 8 4 15 8
15 4 0 23 15 42 33 47 44 85 46 127 7 l32 -30 24 22 c13 13 26 31 30 40 4 12
12 15 23 11 11 -4 15 -3 10 5 -4 6 3 16 16 23 12 7 29 18 36 26 11 11 11 14
-1 19 -9 3 -18 12 -21 20 -7 19 13 61 33 68 9 4 27 13 41 21 30 19 105 11 129
-12z m-3299 -53 c0 -5 -7 -10 -15 -10 -8 0 -15 5 -15 10 0 6 7 10 15 10 8 0
15 -4 15 -10z m-290 -8 c0 -4 -9 -8 -20 -8 -11 0 -20 4 -20 8 0 4 9 8 20 8 11
0 20 -4 20 -8z m294 -57 c-16 -13 -33 -21 -38 -18 -5 4 -6 1 -2 -5 10 -16 -10
-24 -22 -9 -7 8 -25 11 -48 9 l-36 -4 31 -20 c33 -21 40 -38 17 -38 -7 0 -16
-9 -19 -20 -7 -28 -45 -26 -49 2 -2 13 -11 24 -20 26 -12 2 -15 -2 -12 -16 3
-10 -1 -24 -10 -31 -15 -13 -11 -45 5 -35 5 3 21 -4 35 -15 15 -11 30 -18 34
-16 5 3 11 -3 14 -13 3 -10 20 -26 38 -37 34 -20 88 -71 88 -83 0 -4 -14 -16
-31 -26 -30 -18 -31 -18 -52 2 -15 14 -28 17 -42 12 -18 -7 -19 -8 -2 -15 21
-9 23 -25 2 -25 -9 0 -20 -11 -25 -25 -11 -29 -8 -28 -48 -14 -28 10 -31 14
-25 41 5 23 2 34 -12 45 -17 12 -17 14 1 12 10 -1 38 61 31 68 -4 3 -14 0 -23
-8 -14 -11 -18 -11 -22 -1 -2 7 -11 19 -19 28 -19 19 -9 31 12 14 21 -18 31
-5 17 24 -6 13 -8 38 -5 56 4 27 2 32 -11 27 -10 -4 -16 -1 -16 7 0 7 15 17
32 22 31 9 32 12 29 54 -2 36 0 42 11 33 9 -8 19 -9 28 -3 20 13 33 12 25 0
-4 -6 12 -10 42 -9 26 0 42 3 36 6 -19 7 -16 23 5 21 42 -3 62 3 62 20 1 15 2
15 11 -2 9 -15 6 -22 -17 -41z m-237 -21 c-9 -9 -28 6 -21 18 4 6 10 6 17 -1
6 -6 8 -13 4 -17z m-2367 -64 c0 -5 -6 -10 -14 -10 -8 0 -18 5 -21 10 -3 6 3
10 14 10 12 0 21 -4 21 -10z m6040 -11 c0 -5 -4 -9 -10 -9 -5 0 -10 7 -10 16
0 8 5 12 10 9 6 -3 10 -10 10 -16z m-1520 -39 c0 -5 -2 -10 -4 -10 -3 0 -8 5
-11 10 -3 6 -1 10 4 10 6 0 11 -4 11 -10z m-1376 -110 c20 -7 27 -19 32 -50 4
-22 10 -40 15 -40 5 0 9 -17 9 -39 0 -31 -4 -40 -22 -44 -25 -7 -59 9 -57 26
3 20 -13 77 -21 77 -4 0 -21 -7 -36 -15 -38 -19 -61 -19 -72 1 -17 31 11 75
38 59 4 -2 15 4 25 15 20 22 50 25 89 10z m-794 -21 c0 -5 -4 -9 -10 -9 -5 0
-10 7 -10 16 0 8 5 12 10 9 6 -3 10 -10 10 -16z m-520 -19 c0 -5 7 -7 15 -4
10 4 15 0 15 -15 0 -21 -1 -21 -36 -6 -20 8 -39 15 -43 16 -7 1 30 17 42 18 4
1 7 -3 7 -9z m70 -16 c0 -8 5 -14 10 -14 6 0 10 -4 10 -10 0 -19 -15 -10 -32
19 -13 24 -13 29 -2 24 8 -3 14 -11 14 -19z m-130 6 c0 -5 -7 -10 -15 -10 -8
0 -15 5 -15 10 0 6 7 10 15 10 8 0 15 -4 15 -10z m-80 -20 c4 0 6 -9 3 -21 -5
-19 -2 -20 30 -18 20 2 39 0 43 -4 4 -4 -5 -7 -19 -7 -18 0 -27 -5 -27 -16 0
-9 -6 -14 -12 -11 -7 2 -12 10 -10 16 1 6 -9 11 -23 11 -17 0 -25 6 -25 17 0
15 -2 14 -14 -2 -13 -18 -16 -18 -42 -5 -26 14 -26 15 -6 18 12 2 22 7 22 12
0 10 39 19 58 14 8 -2 17 -4 22 -4z m2174 4 c9 -3 14 -10 11 -14 -10 -16 13
-20 28 -6 12 13 16 12 27 -10 19 -35 50 -51 85 -43 17 4 23 7 15 8 -13 1 -13
3 0 10 10 7 18 4 28 -11 12 -16 12 -22 2 -28 -10 -6 -8 -11 9 -21 22 -15 30
-35 9 -24 -7 4 -5 0 5 -8 9 -8 15 -21 11 -30 -3 -8 -1 -18 5 -22 12 -7 15 -64
3 -81 -13 -19 -48 -33 -70 -27 -12 3 -22 1 -22 -4 0 -5 -11 -15 -25 -21 -21
-10 -27 -9 -31 3 -4 8 -11 15 -16 15 -6 0 -8 -6 -5 -14 3 -8 0 -20 -8 -26 -10
-8 -13 -5 -12 17 1 15 6 31 12 35 6 5 5 12 -3 20 -9 9 -12 9 -12 0 0 -7 -7 -5
-18 6 -24 22 -18 34 12 22 21 -8 24 -6 28 21 3 22 0 33 -13 40 -10 5 -19 23
-21 42 -2 17 -9 32 -15 32 -7 0 -13 -4 -12 -9 0 -5 -14 -16 -31 -24 -23 -11
-28 -17 -18 -23 8 -5 -10 -9 -45 -9 -43 0 -59 -4 -64 -16 -4 -11 -13 -13 -33
-9 -16 3 -31 1 -35 -4 -3 -6 -15 -11 -26 -11 -11 0 -17 5 -14 10 3 6 2 10 -4
10 -19 0 -21 -19 -3 -29 12 -6 31 -7 50 -2 34 10 43 6 35 -15 -3 -9 1 -14 12
-14 9 0 13 5 9 11 -4 7 -1 10 7 7 8 -3 22 -1 32 4 12 6 19 5 23 -7 3 -8 10
-15 15 -15 4 0 6 7 3 15 -6 16 12 45 27 45 14 0 11 -28 -3 -33 -18 -8 11 -27
29 -20 9 3 11 0 7 -10 -3 -8 -13 -18 -22 -21 -9 -3 -32 -15 -51 -26 l-34 -21
6 35 c6 39 2 43 -26 22 -18 -14 -18 -15 0 -24 17 -10 17 -11 -1 -18 -10 -4
-26 -2 -36 4 -15 9 -17 5 -13 -41 2 -29 5 -57 8 -64 4 -13 -21 -7 -43 10 -18
14 -27 0 -12 -18 10 -12 9 -15 -6 -15 -11 0 -25 4 -33 9 -11 7 -9 14 13 36 30
30 30 30 0 39 -15 4 -24 2 -28 -9 -3 -8 -13 -15 -23 -15 -17 -1 -17 -1 0 -15
15 -10 17 -18 8 -32 -6 -10 -11 -12 -11 -5 0 6 -11 12 -25 12 -25 0 -35 23
-15 35 17 11 11 35 -16 60 -15 14 -22 25 -15 25 6 0 11 6 11 14 0 8 9 18 20
21 12 4 20 15 20 28 0 12 4 29 10 37 8 12 10 12 16 -3 3 -9 10 -17 14 -17 12
0 18 48 7 59 -8 8 -4 18 13 36 24 25 43 25 33 0 -3 -8 -1 -15 4 -15 18 0 21
11 13 41 -6 19 -5 27 1 23 6 -3 17 2 25 12 13 17 14 17 12 2 -2 -9 2 -17 7
-17 6 0 9 7 9 14 -1 11 5 13 24 8 20 -5 23 -3 17 8 -6 11 -5 11 5 2 9 -9 19
-9 32 -2 11 6 26 8 33 5 8 -3 17 -1 20 4 4 6 1 10 -4 10 -18 0 -12 28 7 33 27
7 29 7 46 1z m-4554 -34 c11 -6 20 -8 20 -5 0 4 15 -2 33 -13 21 -13 39 -17
52 -12 18 7 65 -3 65 -14 0 -2 -3 -11 -6 -20 -9 -23 -34 -20 -34 4 0 12 -7 20
-17 20 -13 0 -14 -3 -5 -12 9 -9 8 -16 -5 -30 -9 -10 -22 -18 -30 -18 -7 0
-13 -5 -13 -10 0 -23 -30 -21 -53 4 -27 29 -42 34 -34 12 3 -8 1 -17 -6 -20
-7 -2 -4 -5 6 -5 14 -1 17 -6 12 -22 -4 -13 -2 -25 5 -29 7 -4 9 -17 5 -33 -6
-21 -12 -26 -36 -24 -22 2 -30 8 -35 30 -3 15 -13 42 -22 60 -9 17 -17 41 -18
52 -1 11 -4 28 -9 37 -5 12 1 25 19 41 27 26 67 28 106 7z m150 11 l25 -7 -26
-6 c-15 -2 -35 1 -45 9 -17 12 -17 13 2 12 10 -1 30 -4 44 -8z m4319 -11 c-15
-10 -41 -1 -34 10 3 5 14 6 26 3 15 -4 17 -8 8 -13z m2581 12 c0 -4 10 -12 23
-17 21 -10 23 -16 14 -76 -2 -9 -10 -28 -20 -42 -9 -15 -17 -37 -17 -50 0 -13
-11 -34 -24 -46 -21 -20 -25 -21 -39 -7 -8 9 -14 26 -12 38 7 56 18 98 26 98
5 0 9 5 9 10 0 16 -18 12 -37 -9 -22 -24 -73 -45 -73 -31 0 6 -4 10 -10 10 -5
0 -10 -9 -10 -20 0 -11 -4 -20 -10 -20 -5 0 -10 -8 -11 -17 0 -14 -2 -15 -6
-3 -3 8 -16 24 -28 36 -26 24 -23 33 18 53 30 16 33 27 12 55 -8 10 -12 22
-10 26 8 12 53 -1 59 -17 5 -12 1 -14 -14 -10 -11 3 -18 1 -14 -4 7 -12 44
-11 44 1 0 6 9 10 19 10 10 0 22 7 25 16 3 9 12 14 19 11 8 -3 20 -1 28 4 17
11 39 12 39 1z m-6120 -22 c0 -5 -5 -10 -11 -10 -5 0 -7 5 -4 10 3 6 8 10 11
10 2 0 4 -4 4 -10z m315 -22 c4 -13 8 -25 10 -28 1 -3 6 -14 10 -25 5 -11 12
-23 17 -26 16 -11 16 -63 0 -75 -22 -16 -85 30 -77 57 4 12 -1 22 -15 29 -18
10 -26 8 -48 -12 -15 -12 -28 -26 -30 -30 -2 -5 -10 -8 -17 -8 -7 0 -15 -6
-18 -12 -7 -20 -26 3 -33 40 -4 20 -3 32 4 32 10 0 38 23 82 66 8 8 34 14 61
14 40 0 48 -3 54 -22z m-1031 3 c3 -5 -3 -11 -14 -14 -20 -5 -26 3 -13 16 9
10 21 9 27 -2z m2077 -22 c15 -7 24 -7 34 1 16 13 39 4 29 -12 -4 -6 1 -8 15
-3 15 4 21 2 21 -9 0 -8 -4 -18 -10 -21 -14 -8 -13 -36 1 -32 6 1 14 -4 17
-12 3 -8 -1 -12 -9 -9 -8 3 -24 -3 -36 -14 -17 -16 -25 -18 -41 -9 -17 9 -24
7 -42 -16 l-21 -28 30 -14 c17 -8 31 -18 31 -22 0 -4 9 -5 20 -2 11 3 20 0 20
-6 0 -6 -6 -11 -14 -11 -8 0 -17 -12 -21 -27 -4 -16 -15 -36 -26 -46 -10 -10
-19 -26 -19 -37 0 -10 -6 -21 -12 -23 -8 -3 -6 -6 5 -6 18 -1 23 -16 7 -26 -6
-4 -5 -13 3 -26 8 -13 9 -22 1 -27 -58 -40 -56 -37 -37 -75 14 -27 24 -35 43
-33 34 2 38 -28 6 -49 -19 -13 -29 -14 -45 -6 -11 6 -31 11 -44 11 -21 0 -25
-6 -31 -41 -5 -30 -10 -39 -21 -35 -8 3 -18 -2 -23 -11 -7 -12 -13 -13 -31 -4
-11 7 -21 15 -21 19 0 5 -12 8 -27 7 -20 0 -27 -5 -25 -17 1 -9 -2 -19 -8 -23
-5 -3 -10 -17 -10 -31 0 -13 -5 -24 -11 -24 -6 0 -9 8 -6 19 2 10 0 26 -5 35
-6 10 -5 16 2 16 5 0 10 5 10 10 0 6 -6 10 -14 10 -8 0 -17 4 -20 9 -3 5 9 8
27 7 27 -1 32 2 31 22 0 12 3 22 8 22 4 0 8 7 8 15 0 8 -6 15 -13 15 -20 0
-36 -21 -30 -39 6 -14 4 -14 -14 2 -11 9 -23 14 -27 10 -4 -4 -23 11 -42 32
-27 31 -32 41 -20 43 19 4 20 14 5 29 -8 8 -3 18 18 37 23 22 25 28 14 36 -12
7 -8 10 15 16 16 5 38 7 49 6 11 -1 14 1 8 4 -7 3 -13 23 -13 44 0 21 -4 42
-10 45 -5 3 -10 19 -10 35 0 22 4 28 15 25 50 -16 48 -14 31 -31 -15 -14 -14
-18 9 -36 14 -11 25 -26 25 -34 0 -8 5 -14 12 -14 6 0 4 -7 -5 -18 -10 -10
-17 -22 -17 -26 0 -12 44 6 57 23 11 14 12 13 13 -6 0 -13 5 -23 10 -23 6 0
10 9 10 21 0 11 4 17 10 14 6 -4 8 -15 5 -25 -5 -15 -2 -17 15 -13 14 4 20 1
20 -11 0 -9 7 -16 15 -16 8 0 12 6 9 14 -3 8 7 18 25 26 41 16 39 28 -4 32
-20 2 -35 8 -35 13 0 10 4 12 41 14 34 2 20 36 -16 36 -20 1 -30 6 -30 15 0 8
7 15 15 15 28 0 20 44 -11 62 -16 10 -29 26 -29 36 0 10 -4 16 -9 12 -5 -3
-12 -1 -16 5 -3 5 -1 10 5 10 7 0 9 8 5 21 -6 18 -5 20 14 10 12 -7 21 -10 22
-9 0 2 2 15 4 30 4 29 33 78 46 78 5 0 9 7 9 15 0 18 32 20 61 4z m189 -20 c0
-5 -4 -9 -10 -9 -5 0 -10 7 -10 16 0 8 5 12 10 9 6 -3 10 -10 10 -16z m4263
-21 c18 -2 21 -9 19 -33 -3 -23 -1 -27 9 -18 9 9 14 9 23 0 14 -15 17 -107 4
-107 -6 0 -7 -7 -4 -16 4 -11 -1 -22 -14 -31 -11 -8 -20 -21 -20 -29 0 -11 -6
-13 -21 -9 -14 5 -25 1 -33 -10 -12 -16 -15 -15 -39 9 -32 32 -34 52 -6 59 13
4 18 10 13 18 -4 7 -3 10 3 6 6 -4 21 2 33 13 19 16 21 22 10 35 -7 8 -19 15
-26 15 -8 0 -14 6 -14 13 0 9 -10 12 -30 9 -26 -4 -31 -9 -36 -43 -7 -39 -20
-49 -41 -28 -9 9 -11 7 -7 -7 5 -23 -2 -34 -38 -57 -33 -21 -38 -21 -38 -2 0
21 -17 19 -30 -5 -12 -22 -30 -26 -48 -8 -18 18 4 51 30 42 14 -4 18 -2 14 5
-9 13 17 41 37 41 8 0 18 7 21 16 3 8 11 12 17 8 7 -4 10 -3 7 2 -3 5 -2 20 3
33 7 17 15 22 30 18 15 -4 19 -2 15 9 -3 8 1 17 10 21 21 8 32 -6 14 -17 -11
-7 -8 -10 13 -10 15 0 30 7 33 15 8 19 32 19 36 0 2 -11 8 -10 28 6 21 17 22
19 5 15 -17 -5 -20 -2 -19 22 1 40 6 50 11 25 3 -13 13 -23 26 -25z m77 31 c0
-4 -7 -12 -15 -19 -12 -10 -20 -9 -40 4 -14 9 -25 18 -25 19 0 1 18 2 40 2 22
0 40 -2 40 -6z m-6540 -21 c0 -5 -5 -6 -10 -3 -6 4 -17 1 -25 -5 -16 -13 -18
-10 -9 13 6 16 44 12 44 -5z m1830 -4 c-6 -14 -10 -37 -10 -52 -1 -23 -2 -25
-11 -9 -5 9 -7 22 -4 27 3 6 1 10 -4 10 -6 0 -11 -7 -11 -15 0 -8 -4 -15 -9
-15 -5 0 -12 -16 -15 -35 -7 -37 -26 -58 -26 -28 0 46 33 113 55 113 4 0 13 7
21 15 22 21 25 19 14 -11z m407 -28 c4 -8 17 -16 28 -19 12 -4 8 -5 -10 -4
-20 1 -29 7 -27 16 3 12 0 12 -12 2 -9 -7 -17 -8 -20 -2 -3 5 0 12 6 14 21 9
27 8 35 -7z m-2287 -6 c0 -5 7 -10 15 -10 10 0 15 -10 15 -30 0 -23 -7 -33
-30 -45 -30 -15 -30 -15 -30 11 0 15 8 33 18 40 16 13 16 15 -2 29 -17 13 -18
15 -3 15 9 0 17 -4 17 -10z m87 4 c-3 -3 -12 -4 -19 -1 -8 3 -5 6 6 6 11 1 17
-2 13 -5z m-185 -32 c-17 -5 -15 -22 2 -22 8 0 16 -7 20 -15 6 -16 -3 -19 -28
-9 -9 3 -16 15 -16 25 0 10 -6 19 -12 19 -9 0 -9 3 1 9 8 5 21 6 30 3 10 -4
11 -7 3 -10z m63 8 c3 -5 2 -10 -4 -10 -5 0 -13 5 -16 10 -3 6 -2 10 4 10 5 0
13 -4 16 -10z m-121 -32 c6 -4 7 -10 3 -14 -11 -12 -36 16 -30 34 6 13 7 13
11 1 3 -7 10 -17 16 -21z m326 -9 c0 -5 -4 -9 -10 -9 -5 0 -10 7 -10 16 0 8 5
12 10 9 6 -3 10 -10 10 -16z m2193 14 c-7 -2 -19 -2 -25 0 -7 3 -2 5 12 5 14
0 19 -2 13 -5z m-2290 -33 c-3 -11 -7 -20 -9 -20 -2 0 -4 9 -4 20 0 11 4 20 9
20 5 0 7 -9 4 -20z m2100 14 c-7 -3 -9 -12 -6 -20 3 -8 -1 -14 -11 -14 -9 0
-16 6 -16 13 0 18 10 27 29 26 10 0 11 -3 4 -5z m2147 -4 c0 -5 -7 -10 -15
-10 -8 0 -15 5 -15 10 0 6 7 10 15 10 8 0 15 -4 15 -10z m2112 1 c-8 -4 -13
-11 -13 -15 1 -3 -1 -6 -4 -6 -3 0 -5 2 -5 5 0 3 0 10 0 15 0 6 8 10 18 10 13
0 14 -2 4 -9z m-6308 -39 c-4 -12 -13 -22 -22 -22 -12 0 -13 3 -4 12 7 7 12
21 12 32 0 13 3 17 10 10 5 -5 7 -19 4 -32z m2101 28 c4 -6 15 -8 25 -5 10 3
21 2 24 -3 3 -6 -4 -12 -17 -16 -37 -10 -67 -7 -67 7 0 25 23 36 35 17z
m-2016 -17 c19 -15 19 -17 3 -31 -16 -13 -16 -13 1 -8 11 4 28 -6 50 -31 17
-20 42 -46 55 -59 12 -13 22 -33 22 -45 0 -12 3 -19 7 -16 3 4 12 -1 18 -10
19 -25 -1 -65 -28 -57 -13 4 -17 2 -13 -5 4 -6 1 -11 -8 -11 -8 0 -23 -11 -34
-24 -13 -18 -25 -23 -41 -19 -11 3 -21 8 -21 12 0 3 -13 12 -30 19 -16 8 -30
20 -30 28 0 8 -4 14 -9 14 -12 0 -24 -39 -22 -71 3 -37 -23 -56 -54 -39 -13 7
-21 18 -19 24 2 6 0 33 -5 59 -7 38 -6 50 5 54 8 3 14 13 14 23 0 10 7 20 15
24 23 8 18 23 -10 30 -29 7 -33 21 -8 30 14 6 14 9 -5 27 -20 18 -31 59 -16
59 9 0 64 -61 64 -71 0 -5 5 -9 10 -9 14 0 13 23 -2 38 -9 9 -9 12 0 12 7 0
12 -4 12 -10 0 -5 5 -10 10 -10 15 0 12 30 -2 30 -7 0 -1 8 15 18 15 9 27 22
27 29 0 17 6 16 29 -4z m661 -23 c0 -5 -4 -10 -9 -10 -6 0 -13 5 -16 10 -3 6
1 10 9 10 9 0 16 -4 16 -10z m1310 -10 c0 -5 -4 -10 -10 -10 -5 0 -10 5 -10
10 0 6 5 10 10 10 6 0 10 -4 10 -10z m2160 -16 c0 -8 5 -14 11 -14 6 0 8 -7 5
-16 -4 -10 1 -25 10 -35 16 -18 16 -19 -3 -19 -29 0 -49 26 -34 44 8 10 9 16
1 21 -5 3 -10 15 -10 26 0 11 5 17 10 14 6 -3 10 -13 10 -21z m-4354 2 c3 -8
16 -17 30 -20 32 -8 31 -26 -1 -26 -14 0 -25 3 -25 8 0 4 -10 12 -22 17 -12 6
-23 16 -26 23 -5 17 37 15 44 -2z m1854 -7 c0 -5 -4 -9 -10 -9 -5 0 -10 7 -10
16 0 8 5 12 10 9 6 -3 10 -10 10 -16z m70 -62 c0 -9 -25 -37 -34 -37 -3 0 -5
17 -4 39 1 36 2 37 20 22 10 -8 18 -19 18 -24z m-57 -19 c-5 -38 -23 -44 -23
-7 0 10 -4 19 -10 19 -5 0 -10 5 -10 11 0 5 4 8 9 5 5 -3 12 2 15 11 11 28 24
1 19 -39z m2428 9 c-16 -16 -13 -30 5 -23 14 5 15 4 5 -8 -6 -8 -20 -12 -30
-9 -17 4 -17 7 -4 34 8 16 19 26 25 23 6 -4 6 -10 -1 -17z m2122 9 c9 -7 17
-21 17 -30 0 -9 5 -16 11 -16 5 0 7 -5 3 -12 -4 -6 1 -17 12 -25 16 -12 17
-15 4 -23 -12 -8 -13 -10 -1 -10 8 0 12 -3 8 -6 -3 -3 -2 -16 3 -28 13 -36
-16 -86 -51 -86 -33 0 -44 25 -34 76 7 42 -4 43 -43 4 -33 -33 -89 -41 -114
-17 -7 8 -23 13 -36 12 -30 -2 -38 12 -12 20 11 3 20 11 20 16 0 5 12 9 28 10
l27 1 -27 11 c-24 9 -28 17 -28 49 0 21 5 38 11 38 6 0 8 -8 4 -20 -5 -15 0
-21 19 -26 14 -3 26 -12 26 -20 0 -10 6 -11 23 -5 12 5 21 14 20 20 -2 6 4 8
12 5 11 -5 15 1 15 21 0 23 3 25 23 19 12 -3 19 -3 15 1 -8 8 9 35 21 35 3 0
14 -7 24 -14z m-2471 -27 c-23 -9 -27 -3 -12 16 11 13 15 13 21 3 5 -8 2 -15
-9 -19z m2213 21 c3 -6 -1 -13 -10 -16 -14 -6 -14 -7 1 -18 24 -18 14 -52 -15
-48 -18 1 -21 -2 -16 -17 4 -13 0 -20 -13 -23 -17 -5 -29 3 -46 31 -7 10 -5
12 4 6 10 -6 12 -3 8 11 -3 11 1 25 9 32 10 10 13 10 13 0 0 -7 8 2 16 20 16
32 37 41 49 22z m135 -16 c0 -8 -5 -12 -10 -9 -6 4 -8 11 -5 16 9 14 15 11 15
-7z m-4373 -26 c-3 -8 -6 -5 -6 6 -1 11 2 17 5 13 3 -3 4 -12 1 -19z m-169
-26 c2 -15 -2 -22 -12 -22 -11 0 -16 9 -16 26 0 31 23 28 28 -4z m-1093 -5 c0
-1 6 -12 13 -24 6 -13 12 -34 12 -48 0 -13 9 -40 20 -60 11 -20 20 -40 20 -45
0 -6 -20 -10 -45 -10 -44 0 -45 1 -45 32 0 45 -24 69 -55 54 -14 -6 -25 -17
-25 -23 0 -7 -3 -13 -8 -13 -4 0 -12 -10 -17 -22 -7 -17 -19 -23 -43 -24 -60
-2 -62 52 -4 89 7 5 17 20 23 33 5 14 13 23 18 19 5 -3 16 4 24 16 10 13 23
19 39 17 15 -2 22 1 20 11 -2 10 4 12 25 6 15 -3 28 -7 28 -8z m5363 -56 c28
-29 52 -55 52 -59 0 -3 7 -14 16 -24 14 -14 14 -20 4 -33 -28 -34 -77 -11
-118 57 -20 34 -41 43 -48 20 -3 -9 -10 -24 -15 -32 -5 -8 -15 -27 -22 -42
-15 -36 -48 -37 -64 -3 -6 15 -7 27 -2 31 5 3 7 10 3 15 -3 6 2 16 12 23 10 8
15 20 11 29 -3 9 1 18 9 21 9 3 12 11 9 16 -16 26 4 40 52 37 42 -4 54 -10
101 -56z m-3466 -106 c31 -33 36 -55 13 -55 -8 0 -15 -7 -15 -15 0 -21 -22
-19 -43 5 -28 33 -35 23 -31 -37 4 -54 2 -59 -22 -70 -27 -13 -31 -9 -36 37
-2 14 -6 30 -10 35 -8 13 -3 84 8 110 4 11 17 27 28 37 20 15 23 15 51 0 16
-10 42 -30 57 -47z m1555 12 c8 -16 12 -35 9 -43 -3 -8 -2 -14 2 -14 11 0 1
-104 -12 -112 -21 -14 -55 -8 -66 11 -7 13 -7 22 0 26 11 7 14 78 4 88 -8 8
-44 -25 -44 -40 0 -7 -4 -13 -10 -13 -5 0 -10 5 -10 11 0 5 -4 7 -10 4 -6 -4
-10 8 -10 29 0 25 4 36 15 36 8 0 15 5 15 10 0 6 7 10 15 10 8 0 15 6 15 14 0
10 11 14 36 13 29 -1 38 -7 51 -30z m-2457 4 c0 -4 -3 -11 -7 -15 -5 -4 -8
-11 -9 -14 0 -4 -4 -15 -9 -26 -11 -25 4 -47 43 -66 34 -16 43 -32 15 -27 -27
4 -63 26 -63 38 0 11 -24 39 -34 39 -2 0 -7 -8 -9 -17 -4 -14 -5 -13 -6 4 0
12 7 27 17 32 9 6 14 11 9 11 -4 0 -1 13 8 30 10 19 20 27 30 24 8 -4 15 -9
15 -13z m2970 3 c0 -7 6 -14 12 -16 17 -6 19 -145 3 -158 -8 -7 -20 -2 -39 15
-27 25 -34 45 -15 45 6 0 8 9 3 23 -9 31 -13 33 -27 14 -7 -9 -31 -17 -57 -19
-43 -3 -44 -2 -47 30 -2 28 0 32 22 32 15 0 31 9 41 25 13 20 23 24 60 23 26
-2 44 -7 44 -14z m-2870 -114 c0 -5 -4 -10 -10 -10 -5 0 -10 5 -10 10 0 6 5
10 10 10 6 0 10 -4 10 -10z m-875 -40 c3 -5 15 -10 26 -10 10 0 19 -7 19 -15
0 -8 9 -32 21 -54 11 -22 18 -45 14 -51 -3 -5 -2 -10 3 -10 21 0 -1 -39 -25
-45 -14 -3 -26 -5 -27 -3 0 2 -7 13 -14 26 -7 13 -10 26 -8 31 6 9 -30 51 -44
51 -5 0 -14 -9 -20 -20 -7 -14 -21 -20 -43 -20 -29 0 -33 3 -32 28 0 41 61 94
117 101 4 1 10 -3 13 -9z m4828 0 c71 -58 87 -76 87 -97 0 -17 -6 -23 -20 -23
-26 0 -80 27 -80 40 0 33 -40 -23 -55 -76 -6 -23 -35 -36 -54 -25 -19 12 -17
92 2 103 9 5 17 20 17 33 0 16 6 25 15 25 8 0 15 4 15 9 0 8 12 13 53 20 4 0
13 -3 20 -9z m-4001 -53 c-4 -17 -2 -19 21 -13 27 6 33 1 19 -21 -11 -17 -65
-4 -57 15 6 17 -13 44 -26 36 -5 -3 -9 0 -9 6 0 7 7 10 15 7 8 -4 17 -1 21 5
10 16 23 -10 16 -35z m1478 -62 c-16 -20 -40 -19 -40 1 0 10 -6 14 -15 10 -8
-3 -19 2 -24 12 -15 24 -13 1 1 -30 12 -26 64 -45 70 -26 2 5 17 10 33 11 26
2 30 -1 28 -20 -2 -13 -1 -23 1 -23 8 0 93 31 113 41 35 19 74 -1 99 -50 12
-24 27 -47 35 -51 11 -7 10 -13 -5 -29 -11 -12 -23 -21 -29 -21 -20 0 -67 43
-65 58 6 32 -30 24 -46 -10 -9 -19 -36 -55 -59 -81 -41 -44 -45 -46 -83 -40
-32 5 -37 3 -26 -8 19 -20 14 -38 -13 -51 -14 -6 -25 -17 -25 -25 0 -7 -7 -13
-15 -13 -10 0 -15 -7 -13 -17 2 -13 -4 -18 -22 -18 -18 0 -26 -6 -28 -22 -2
-13 -7 -23 -12 -23 -4 0 -6 -9 -3 -20 3 -11 0 -20 -6 -20 -6 0 -11 -6 -11 -13
0 -7 -14 -18 -30 -24 -17 -6 -29 -17 -28 -24 2 -7 -6 -15 -17 -17 -11 -2 -22
-8 -25 -13 -3 -5 -17 -10 -30 -11 -19 -2 -26 2 -28 20 -2 13 -11 26 -20 29
-27 11 -52 37 -52 55 0 27 73 126 97 132 14 4 20 12 17 20 -3 8 -1 17 4 20 13
8 74 -11 84 -26 6 -10 11 -9 19 5 8 14 14 15 24 7 9 -7 15 -8 19 -1 8 12 -72
51 -106 52 -21 0 -21 1 -4 8 29 11 2 24 -34 16 -35 -8 -39 4 -10 30 11 10 20
26 20 37 0 10 11 23 24 30 14 6 27 17 30 24 7 19 -14 30 -25 13 -5 -8 -9 -9
-9 -3 0 21 29 39 42 26 7 -7 20 -12 30 -12 19 0 35 -41 23 -61 -5 -8 -1 -9 16
-3 13 5 36 8 52 9 32 0 33 3 10 21 -17 13 -17 13 0 14 27 0 20 20 -8 20 -14 0
-25 4 -25 9 0 5 -14 14 -30 20 -17 5 -34 21 -40 35 -8 21 -5 30 21 56 17 16
34 28 39 25 5 -3 11 -1 14 3 3 5 19 9 37 10 17 0 34 3 37 7 3 3 12 -10 20 -30
11 -28 12 -38 2 -50z m-2960 -40 c0 -16 -10 -28 -35 -39 -42 -20 -45 -31 -9
-34 14 -1 38 -12 53 -25 24 -19 26 -27 18 -50 -8 -25 -12 -27 -41 -21 -17 3
-39 12 -50 20 -10 7 -24 10 -30 8 -7 -3 -25 10 -40 27 -27 30 -28 33 -14 58 9
14 13 32 10 40 -3 10 0 12 12 8 10 -4 19 -1 23 9 8 21 38 31 74 26 22 -3 29
-10 29 -27z m5859 10 c12 -14 27 -23 31 -20 10 6 17 -17 19 -57 0 -16 -4 -28
-9 -28 -6 0 -15 -11 -20 -25 -12 -31 -43 -33 -64 -4 -10 15 -12 28 -6 45 11
28 -1 31 -41 10 -63 -32 -109 -29 -109 8 0 31 14 48 33 40 10 -3 17 -1 17 5 0
6 9 11 19 11 11 0 23 5 26 10 3 6 19 10 36 10 16 0 29 5 29 10 0 16 14 11 39
-15z m316 9 c34 -16 58 -56 58 -99 0 -27 -24 -55 -46 -55 -9 0 -17 -3 -19 -7
-8 -19 -65 -40 -87 -32 -37 14 -25 60 22 82 42 21 47 38 15 52 -27 12 -35 40
-18 60 16 19 34 19 75 -1z m-5841 -14 c5 -5 15 -6 22 -3 8 3 14 0 14 -6 0 -6
6 -11 14 -11 7 0 21 -15 29 -32 16 -32 16 -33 -9 -42 -17 -5 -34 -4 -49 4 -13
7 -28 9 -35 5 -7 -4 -14 1 -17 14 -4 14 -13 21 -30 21 l-24 0 20 -29 c25 -35
25 -35 5 -55 -23 -23 -40 -20 -64 14 -35 49 -30 120 7 120 7 0 13 5 13 11 0
12 89 2 104 -11z m4327 -30 c19 0 53 -46 44 -60 -3 -5 -1 -12 5 -15 8 -5 8
-11 0 -20 -6 -7 -10 -17 -8 -21 5 -20 -15 -54 -31 -54 -27 0 -41 22 -36 58 4
37 -6 40 -46 11 -24 -17 -31 -18 -42 -7 -34 34 -24 58 35 89 13 6 27 18 32 26
6 11 11 12 19 4 6 -6 19 -11 28 -11z m-3171 -5 c8 -7 25 -16 36 -19 24 -7 50
-58 39 -75 -10 -17 -75 -13 -81 4 -10 25 -21 17 -28 -19 -7 -39 -27 -59 -48
-51 -18 7 -33 104 -18 119 6 6 10 18 10 27 0 28 62 38 90 14z m-1510 -202 c0
-16 -6 -23 -19 -23 -26 0 -36 17 -21 35 8 9 8 15 2 15 -6 0 -12 -5 -14 -11 -2
-7 -9 -5 -17 5 -12 14 -11 16 8 16 11 0 21 4 21 10 0 5 9 2 20 -7 11 -10 20
-28 20 -40z m858 -26 c3 -21 -1 -27 -17 -28 -12 -1 -25 -3 -31 -4 -5 -1 -14
-3 -20 -4 -5 0 -10 -14 -10 -31 0 -24 -4 -30 -21 -30 -11 0 -18 -4 -15 -9 4
-5 -3 -7 -14 -4 -11 3 -20 11 -20 18 0 7 -4 15 -9 17 -5 2 -14 27 -19 55 -9
52 -9 53 20 72 30 18 31 18 92 -4 52 -18 61 -26 64 -48z m-818 32 c0 -10 -7
-19 -15 -19 -15 0 -21 31 -9 43 11 10 24 -3 24 -24z m5397 8 c24 -26 29 -104
6 -99 -7 1 -13 -3 -13 -9 0 -12 -67 -42 -78 -35 -13 8 -13 66 0 66 9 0 9 3 0
12 -9 9 -15 9 -23 1 -18 -18 -49 -3 -49 23 0 23 33 50 49 40 5 -3 11 1 15 9 9
24 67 19 93 -8z m773 4 c0 -12 -29 -23 -41 -15 -5 3 -7 10 -4 15 8 12 45 12
45 0z m-6125 -11 c-3 -5 -10 -10 -16 -10 -5 0 -9 5 -9 10 0 6 7 10 16 10 8 0
12 -4 9 -10z m2595 -50 c0 -5 -4 -10 -10 -10 -5 0 -10 5 -10 10 0 6 5 10 10
10 6 0 10 -4 10 -10z m1550 -30 c0 -5 7 -10 15 -10 16 0 31 -61 20 -80 -4 -6
-2 -17 5 -25 6 -7 10 -33 8 -57 -3 -38 -6 -43 -29 -46 -33 -4 -49 30 -42 87 5
34 3 41 -11 41 -9 0 -19 -6 -22 -14 -3 -8 -12 -12 -20 -9 -10 4 -14 -3 -14
-21 0 -21 -5 -26 -25 -26 -32 0 -51 39 -29 56 8 6 14 18 14 26 0 9 9 18 21 21
11 3 23 15 26 26 3 13 18 25 37 30 42 12 46 13 46 1z m-2258 -25 c12 -14 27
-25 34 -25 7 0 16 -10 20 -22 4 -13 10 -25 14 -28 5 -3 9 -12 10 -20 5 -34 0
-40 -32 -33 -35 6 -62 22 -53 31 2 3 -3 11 -12 17 -15 11 -19 9 -28 -9 -7 -12
-8 -26 -3 -32 10 -13 -19 -94 -33 -94 -5 0 -9 4 -9 9 0 5 -9 11 -21 14 -14 4
-19 11 -16 24 3 10 8 49 12 86 4 42 13 76 23 87 25 27 68 25 94 -5z m2958 15
c0 -5 -2 -10 -4 -10 -3 0 -8 5 -11 10 -3 6 -1 10 4 10 6 0 11 -4 11 -10z
m-1517 -69 c14 -5 31 -23 38 -40 8 -17 19 -31 25 -31 13 0 27 -25 29 -53 3
-21 -29 -37 -57 -29 -10 2 -21 15 -24 27 -3 13 -14 31 -25 41 -17 15 -21 16
-36 2 -10 -8 -26 -18 -35 -21 -10 -3 -15 -12 -12 -20 3 -10 -4 -14 -27 -15
-41 -1 -53 6 -39 23 7 8 9 19 5 25 -11 19 84 100 117 100 9 0 28 -4 41 -9z
m1347 -51 c0 -5 -4 -10 -10 -10 -5 0 -10 5 -10 10 0 6 5 10 10 10 6 0 10 -4
10 -10z m-3642 -43 c11 -25 10 -28 -13 -37 -14 -5 -25 -17 -25 -25 0 -9 -4
-13 -10 -10 -5 3 -10 -3 -10 -14 0 -12 6 -22 13 -23 6 0 17 -2 22 -2 6 -1 15
-5 22 -9 6 -4 18 -5 26 -1 16 6 47 -20 47 -39 0 -32 -46 -47 -90 -30 -8 3 -25
5 -38 4 -16 -2 -25 4 -29 18 -3 12 -10 21 -17 21 -12 0 -39 36 -42 57 -1 7 4
17 12 24 8 6 14 20 14 30 0 16 21 34 75 65 22 13 26 11 43 -29z m149 21 c-3
-8 -6 -5 -6 6 -1 11 2 17 5 13 3 -3 4 -12 1 -19z m3813 -12 c0 -7 8 -16 18
-18 10 -3 26 -21 35 -40 16 -33 16 -37 -3 -77 -13 -26 -27 -41 -39 -41 -10 0
-21 -6 -24 -14 -4 -10 -19 -13 -54 -11 -26 2 -54 4 -60 4 -16 1 -16 11 -3 46
9 23 13 25 25 15 12 -10 15 -10 15 0 0 7 7 10 15 6 16 -6 65 12 65 24 0 4 -10
18 -22 32 -38 41 -54 62 -40 54 8 -5 12 0 12 13 0 17 6 21 30 21 19 0 30 -5
30 -14z m-4890 -136 c0 -5 -5 -10 -11 -10 -5 0 -7 5 -4 10 3 6 8 10 11 10 2 0
4 -4 4 -10z m5720 -40 c0 -5 -2 -10 -4 -10 -3 0 -8 5 -11 10 -3 6 -1 10 4 10
6 0 11 -4 11 -10z m-2043 -141 c7 -6 13 -20 13 -31 0 -10 9 -31 19 -46 32 -45
34 -67 7 -81 -32 -18 -62 0 -71 41 -4 18 -15 38 -24 45 -13 9 -20 7 -36 -12
-26 -31 -64 -39 -90 -19 -19 15 -19 16 -1 29 10 7 15 18 11 24 -3 6 4 16 17
21 13 6 37 19 53 30 31 20 76 20 102 -1z m-1877 -39 c0 -5 -5 -10 -11 -10 -5
0 -7 5 -4 10 3 6 8 10 11 10 2 0 4 -4 4 -10z m907 -36 c18 -20 33 -40 33 -45
0 -5 7 -6 15 -3 10 4 15 0 15 -13 0 -10 5 -24 12 -31 8 -8 9 -12 1 -12 -6 0
-19 -7 -28 -16 -15 -15 -17 -15 -34 0 -10 9 -23 16 -29 16 -7 0 -12 9 -12 19
0 11 -5 23 -10 26 -15 9 -80 -42 -80 -63 0 -11 -9 -18 -24 -20 -18 -1 -25 5
-31 25 -3 14 -1 31 4 36 6 6 11 19 11 29 0 10 4 18 9 18 5 0 22 13 38 28 27
27 47 39 67 41 5 1 25 -15 43 -35z m424 16 c20 0 28 -6 33 -25 4 -15 17 -30
31 -35 21 -8 25 -16 25 -48 0 -36 -2 -39 -27 -40 -34 -1 -52 12 -81 58 -12 19
-22 32 -22 28 0 -18 -4 -24 -27 -46 -13 -12 -28 -20 -33 -17 -4 3 -10 0 -12
-6 -2 -7 -12 -7 -31 0 -34 13 -33 41 1 56 12 5 22 16 22 23 0 23 52 64 75 58
11 -3 32 -6 46 -6z m-2891 -230 c9 -5 15 -28 16 -63 2 -67 7 -76 38 -70 15 3
32 -1 41 -10 19 -20 19 -26 -2 -49 -28 -32 -132 -17 -153 22 -16 30 -11 93 10
138 22 44 26 47 50 32z m5330 -60 c7 -25 14 -52 16 -60 2 -8 -13 -34 -34 -56
-38 -43 -39 -43 -118 -35 -15 1 -37 52 -26 63 4 4 29 9 55 10 l46 2 -3 37 c-2
20 -9 47 -16 59 -11 20 -10 25 4 36 29 21 63 -4 76 -56z m-2609 27 c-13 -13
-26 -3 -16 12 3 6 11 8 17 5 6 -4 6 -10 -1 -17z m-2403 -329 c16 -16 15 -43
-3 -58 -30 -25 -13 -37 63 -46 24 -3 50 -10 56 -17 18 -16 8 -53 -19 -67 -19
-10 -27 -9 -48 5 -15 10 -40 15 -60 14 -34 -3 -67 14 -67 34 0 5 -7 15 -16 21
-13 10 -14 16 -3 39 7 15 16 27 21 27 4 0 8 9 8 20 0 32 45 51 68 28z m4701
-27 c37 -42 40 -78 8 -115 -21 -25 -31 -28 -111 -32 l-87 -5 3 33 c3 28 7 33
32 36 16 2 40 11 53 19 19 12 26 13 38 3 31 -26 27 2 -5 35 -25 26 -31 37 -22
48 20 23 59 14 91 -22z"/>
<path d="M5082 6613 c2 -10 11 -19 21 -21 16 -3 17 -1 7 17 -13 25 -33 28 -28
4z"/>
<path d="M5160 6479 c0 -5 5 -7 10 -4 6 3 10 8 10 11 0 2 -4 4 -10 4 -5 0 -10
-5 -10 -11z"/>
<path d="M6730 6270 c0 -5 5 -10 11 -10 5 0 7 5 4 10 -3 6 -8 10 -11 10 -2 0
-4 -4 -4 -10z"/>
<path d="M5095 6130 c3 -5 11 -10 16 -10 6 0 7 5 4 10 -3 6 -11 10 -16 10 -6
0 -7 -4 -4 -10z"/>
<path d="M5230 5982 c6 -13 14 -21 18 -18 3 4 -2 14 -12 24 -18 16 -18 16 -6
-6z"/>
<path d="M2710 6000 c0 -5 5 -10 11 -10 5 0 7 5 4 10 -3 6 -8 10 -11 10 -2 0
-4 -4 -4 -10z"/>
<path d="M1033 5512 c-17 -11 -4 -52 16 -52 10 0 23 -14 31 -35 7 -19 19 -36
27 -39 18 -7 17 -26 -2 -26 -38 0 9 -70 58 -86 9 -3 17 -9 17 -14 0 -12 29
-40 42 -40 6 0 8 9 5 20 -3 13 2 25 13 33 17 12 16 14 -10 44 -15 17 -37 34
-49 38 -12 3 -21 15 -21 25 0 10 -13 28 -30 40 -19 14 -30 30 -30 46 0 13 -5
24 -12 24 -6 0 -19 7 -27 14 -9 8 -22 12 -28 8z"/>
<path d="M1300 5227 c0 -7 -3 -22 -6 -33 -4 -16 0 -23 14 -26 24 -7 68 40 52
56 -14 14 -60 16 -60 3z"/>
<path d="M1820 4760 c-13 -8 -12 -10 3 -10 9 0 17 5 17 10 0 12 -1 12 -20 0z"/>
<path d="M2020 4433 c0 -5 5 -15 10 -23 8 -12 10 -11 10 8 0 12 -4 22 -10 22
-5 0 -10 -3 -10 -7z"/>
<path d="M6848 5522 c-11 -2 -18 -13 -18 -28 0 -13 -10 -34 -22 -46 -13 -13
-22 -29 -20 -35 2 -8 -7 -13 -20 -13 -17 0 -19 -3 -9 -9 10 -6 6 -13 -18 -27
-17 -10 -31 -21 -31 -25 0 -3 -9 -16 -19 -28 -14 -16 -21 -18 -24 -9 -3 7 -6
3 -6 -9 -1 -15 6 -23 22 -25 15 -2 22 -10 21 -23 0 -26 34 -28 42 -3 3 10 10
16 15 13 5 -4 9 3 9 14 0 12 7 21 15 21 8 0 22 11 30 24 13 19 13 28 4 50 -11
23 -9 28 15 51 15 14 31 25 37 25 5 0 9 7 9 15 0 7 7 18 17 23 33 19 -5 54
-49 44z"/>
<path d="M6795 5460 c-3 -5 -1 -10 4 -10 6 0 11 5 11 10 0 6 -2 10 -4 10 -3 0
-8 -4 -11 -10z"/>
<path d="M6574 5225 c-8 -31 12 -57 40 -53 19 3 22 16 17 68 -1 6 -12 10 -26
10 -18 0 -26 -7 -31 -25z"/>
<path d="M6445 5210 c-3 -5 -1 -10 4 -10 6 0 11 5 11 10 0 6 -2 10 -4 10 -3 0
-8 -4 -11 -10z"/>
<path d="M6216 4962 c-3 -6 1 -13 10 -16 23 -9 28 -2 10 13 -8 7 -17 8 -20 3z"/>
<path d="M5822 4450 c-10 -17 -10 -20 6 -20 11 0 18 7 18 20 0 11 -3 20 -6 20
-3 0 -11 -9 -18 -20z"/>
<path d="M7015 5200 c3 -5 8 -10 11 -10 2 0 4 5 4 10 0 6 -5 10 -11 10 -5 0
-7 -4 -4 -10z"/>
<path d="M1043 4952 c-31 -4 -29 -14 6 -35 33 -19 51 -22 51 -7 0 6 -6 10 -14
10 -8 0 -16 8 -18 18 -2 11 -10 16 -25 14z"/>
<path d="M1000 4889 c0 -5 5 -7 10 -4 6 3 10 8 10 11 0 2 -4 4 -10 4 -5 0 -10
-5 -10 -11z"/>
<path d="M1290 4874 c0 -10 -3 -14 -7 -11 -3 4 -12 2 -19 -4 -11 -9 -9 -15 11
-31 35 -27 57 -17 53 24 -3 35 -38 55 -38 22z"/>
<path d="M1318 4793 c7 -3 16 -2 19 1 4 3 -2 6 -13 5 -11 0 -14 -3 -6 -6z"/>
<path d="M6607 4854 c6 -16 19 -18 27 -5 3 5 -3 11 -13 14 -14 3 -18 1 -14 -9z"/>
<path d="M3990 4775 c0 -8 2 -15 4 -15 2 0 6 7 10 15 3 8 1 15 -4 15 -6 0 -10
-7 -10 -15z"/>
<path d="M3772 4688 c-7 -7 -11 -21 -11 -32 1 -19 2 -19 6 -2 4 14 7 15 13 6
5 -8 8 -2 8 14 0 30 0 30 -16 14z"/>
<path d="M3723 4620 c-1 -11 2 -20 8 -20 5 0 9 9 9 20 0 11 -4 20 -8 20 -4 0
-8 -9 -9 -20z"/>
<path d="M3416 4561 c-4 -7 -5 -15 -2 -18 9 -9 19 4 14 18 -4 11 -6 11 -12 0z"/>
<path d="M7120 4534 c0 -8 5 -12 10 -9 6 4 8 11 5 16 -9 14 -15 11 -15 -7z"/>
<path d="M6810 4365 c0 -8 5 -15 10 -15 6 0 10 7 10 15 0 8 -4 15 -10 15 -5 0
-10 -7 -10 -15z"/>
<path d="M6528 4063 c7 -3 16 -2 19 1 4 3 -2 6 -13 5 -11 0 -14 -3 -6 -6z"/>
<path d="M3590 4434 c0 -8 5 -12 10 -9 6 3 10 10 10 16 0 5 -4 9 -10 9 -5 0
-10 -7 -10 -16z"/>
<path d="M3600 4400 c19 -13 30 -13 30 0 0 6 -10 10 -22 10 -19 0 -20 -2 -8
-10z"/>
<path d="M3570 4265 c0 -8 5 -15 10 -15 6 0 10 7 10 15 0 8 -4 15 -10 15 -5 0
-10 -7 -10 -15z"/>
<path d="M5050 4094 c0 -8 5 -12 11 -8 6 3 15 0 20 -7 4 -7 11 -10 15 -6 9 9
-15 37 -32 37 -8 0 -14 -7 -14 -16z"/>
<path d="M5005 4060 c-3 -5 -1 -10 4 -10 6 0 11 5 11 10 0 6 -2 10 -4 10 -3 0
-8 -4 -11 -10z"/>
<path d="M5060 4060 c0 -5 5 -10 10 -10 6 0 10 5 10 10 0 6 -4 10 -10 10 -5 0
-10 -4 -10 -10z"/>
<path d="M4873 4053 c-25 -5 -30 -18 -10 -26 7 -3 4 -6 -6 -6 -10 -1 -15 -5
-12 -11 4 -6 18 -1 36 12 27 20 39 40 22 37 -5 -1 -18 -4 -30 -6z"/>
<path d="M5087 4045 c-8 -20 -4 -29 11 -24 5 2 6 13 2 23 -6 19 -7 19 -13 1z"/>
<path d="M4696 3894 c-9 -24 -7 -28 9 -14 17 14 20 30 6 30 -5 0 -12 -7 -15
-16z"/>
<path d="M5150 3900 c0 -5 9 -10 20 -10 11 0 20 5 20 10 0 6 -9 10 -20 10 -11
0 -20 -4 -20 -10z"/>
<path d="M4736 3881 c-3 -5 11 -16 31 -24 34 -13 39 -13 50 2 9 13 8 17 -9 24
-14 5 -24 3 -30 -5 -6 -10 -8 -10 -8 0 0 14 -26 16 -34 3z"/>
<path d="M5150 3870 c-24 -8 -23 -8 8 -9 17 -1 32 4 32 9 0 11 -5 11 -40 0z"/>
<path d="M4778 3818 c9 -9 15 -9 24 0 9 9 7 12 -12 12 -19 0 -21 -3 -12 -12z"/>
<path d="M2818 4033 c6 -2 18 -2 25 0 6 3 1 5 -13 5 -14 0 -19 -2 -12 -5z"/>
<path d="M2720 3869 c0 -5 5 -7 10 -4 6 3 10 8 10 11 0 2 -4 4 -10 4 -5 0 -10
-5 -10 -11z"/>
<path d="M2755 3860 c3 -5 8 -10 11 -10 2 0 4 5 4 10 0 6 -5 10 -11 10 -5 0
-7 -4 -4 -10z"/>
<path d="M2715 3840 c-7 -11 18 -24 35 -18 6 2 1 9 -9 15 -13 8 -22 9 -26 3z"/>
<path d="M2468 3653 c-10 -2 -18 -9 -18 -14 0 -14 26 -11 40 6 13 15 9 16 -22
8z"/>
<path d="M2530 3639 c0 -5 10 -9 22 -9 12 0 18 3 14 7 -10 11 -36 12 -36 2z"/>
<path d="M2490 3620 c-12 -8 -10 -10 8 -10 13 0 20 4 17 10 -7 12 -6 12 -25 0z"/>
<path d="M2621 3613 c-5 -10 -13 -14 -17 -10 -9 9 -44 -22 -44 -39 0 -10 11
-8 40 7 25 13 40 28 40 40 0 24 -6 24 -19 2z"/>
<path d="M2531 3584 c0 -11 3 -14 6 -6 3 7 2 16 -1 19 -3 4 -6 -2 -5 -13z"/>
<path d="M2406 3564 c-8 -21 -8 -24 3 -24 12 0 22 28 12 35 -5 3 -12 -2 -15
-11z"/>
<path d="M2494 3555 c-4 -10 2 -24 16 -37 15 -14 20 -27 16 -44 -5 -17 -1 -26
13 -34 11 -5 21 -10 23 -10 2 0 4 24 6 52 1 39 -1 49 -9 41 -16 -16 -39 -5
-39 17 0 25 -19 35 -26 15z"/>
<path d="M2435 3540 c-3 -5 -1 -10 4 -10 6 0 11 5 11 10 0 6 -2 10 -4 10 -3 0
-8 -4 -11 -10z"/>
<path d="M7230 3935 c0 -19 32 -17 36 3 1 7 0 8 -3 2 -3 -8 -9 -7 -19 1 -11 9
-14 8 -14 -6z"/>
<path d="M7210 3885 c-10 -12 -9 -16 3 -21 21 -8 37 3 30 21 -7 19 -17 19 -33
0z"/>
<path d="M6972 3869 c2 -7 10 -15 17 -17 8 -3 12 1 9 9 -2 7 -10 15 -17 17 -8
3 -12 -1 -9 -9z"/>
<path d="M7180 3840 c-24 -8 -24 -8 8 -11 17 -1 37 -2 44 -3 6 -1 13 5 16 12
4 14 -28 15 -68 2z"/>
<path d="M875 3773 c6 -4 17 -21 24 -38 l14 -30 7 30 c3 17 6 30 6 31 -1 1
-14 4 -31 8 -16 4 -25 3 -20 -1z"/>
<path d="M942 3730 c-8 -13 -8 -20 -1 -20 5 0 8 -4 5 -8 -3 -5 7 -9 22 -9 15
0 32 -2 39 -4 6 -2 13 1 15 6 1 6 -7 11 -19 13 -27 4 -31 29 -5 35 9 3 4 5
-13 6 -20 1 -34 -6 -43 -19z"/>
<path d="M3850 3320 c0 -5 5 -10 10 -10 6 0 10 5 10 10 0 6 -4 10 -10 10 -5 0
-10 -4 -10 -10z"/>
<path d="M3755 3260 c-3 -5 1 -10 9 -10 8 0 18 5 21 10 3 6 -1 10 -9 10 -8 0
-18 -4 -21 -10z"/>
<path d="M3882 3248 c-7 -7 -12 -16 -12 -20 0 -12 28 -10 36 3 10 17 -10 31
-24 17z"/>
<path d="M3895 3180 c-3 -5 -1 -10 4 -10 6 0 11 5 11 10 0 6 -2 10 -4 10 -3 0
-8 -4 -11 -10z"/>
<path d="M3886 3129 c3 -5 24 -9 46 -9 51 0 47 5 -10 13 -24 3 -40 1 -36 -4z"/>
<path d="M3677 3108 c2 -5 17 -8 34 -8 21 0 29 -5 30 -17 0 -15 2 -15 9 2 5
11 9 22 9 25 1 3 -19 5 -43 5 -24 0 -42 -3 -39 -7z"/>
<path d="M3782 3100 c-16 -26 -15 -30 3 -30 8 0 15 4 15 9 0 5 3 16 6 25 9 23
-9 20 -24 -4z"/>
<path d="M3672 3078 c5 -15 28 -18 29 -3 0 6 -7 12 -17 13 -10 3 -15 -1 -12
-10z"/>
<path d="M3766 3045 c-13 -35 17 -58 42 -33 9 9 8 16 -5 30 -20 22 -29 23 -37
3z"/>
<path d="M3771 2974 c0 -11 3 -14 6 -6 3 7 2 16 -1 19 -3 4 -6 -2 -5 -13z"/>
<path d="M3611 2824 c0 -11 3 -14 6 -6 3 7 2 16 -1 19 -3 4 -6 -2 -5 -13z"/>
<path d="M4793 6423 c-7 -3 -13 -12 -13 -21 0 -15 2 -15 17 1 18 18 16 27 -4
20z"/>
<path d="M4760 6310 c0 -5 4 -10 9 -10 5 0 11 -8 14 -17 4 -17 4 -17 12 1 5
12 3 21 -6 27 -19 12 -29 11 -29 -1z"/>
<path d="M4675 6220 c-3 -5 -2 -10 4 -10 5 0 13 5 16 10 3 6 2 10 -4 10 -5 0
-13 -4 -16 -10z"/>
<path d="M4730 5910 c-8 -5 -11 -12 -7 -16 4 -4 13 -2 19 4 15 15 7 24 -12 12z"/>
<path d="M3495 5900 c3 -5 10 -10 16 -10 5 0 9 5 9 10 0 6 -7 10 -16 10 -8 0
-12 -4 -9 -10z"/>
<path d="M490 5390 c0 -5 5 -10 10 -10 6 0 10 5 10 10 0 6 -4 10 -10 10 -5 0
-10 -4 -10 -10z"/>
<path d="M5038 5363 c7 -3 16 -2 19 1 4 3 -2 6 -13 5 -11 0 -14 -3 -6 -6z"/>
<path d="M1030 4406 c0 -2 9 -6 20 -9 11 -3 18 -1 14 4 -5 9 -34 13 -34 5z"/>
<path d="M1350 4040 c-8 -5 -12 -12 -9 -15 8 -8 39 5 39 16 0 11 -11 11 -30
-1z"/>
<path d="M6630 2800 c0 -5 5 -10 11 -10 5 0 7 5 4 10 -3 6 -8 10 -11 10 -2 0
-4 -4 -4 -10z"/>
<path d="M6707 2549 c-18 -11 -24 -39 -7 -39 6 0 10 6 10 14 0 8 8 16 18 18 9
2 13 6 7 10 -6 3 -18 2 -28 -3z"/>
<path d="M6530 2450 c0 -5 5 -10 11 -10 5 0 7 5 4 10 -3 6 -8 10 -11 10 -2 0
-4 -4 -4 -10z"/>
<path d="M6300 2331 c0 -6 4 -13 10 -16 6 -3 7 1 4 9 -7 18 -14 21 -14 7z"/>
<path d="M3440 2195 c0 -8 2 -15 4 -15 2 0 6 7 10 15 3 8 1 15 -4 15 -6 0 -10
-7 -10 -15z"/>
<path d="M3112 2099 c-40 -8 -60 -25 -46 -38 17 -18 126 -42 139 -31 13 10 16
10 70 -11 17 -7 55 -13 85 -14 30 -2 55 -3 55 -4 0 -1 24 -4 54 -6 30 -3 56
-7 58 -9 3 -2 18 0 34 4 16 5 31 5 34 1 8 -14 108 -21 122 -9 10 8 20 8 36 0
27 -13 57 -17 77 -9 27 10 120 16 120 8 0 -5 51 -7 113 -6 61 2 112 4 112 5 0
8 73 5 86 -3 13 -8 22 -7 34 3 11 9 19 10 27 2 7 -7 19 -7 35 -1 17 6 30 6 38
-1 14 -11 65 -10 65 2 0 12 78 10 85 -3 5 -7 13 -5 25 6 12 11 26 14 41 10 13
-4 24 -2 29 4 4 7 22 13 41 15 19 2 41 6 50 10 9 4 29 8 45 10 20 2 31 11 37
30 5 15 7 30 4 33 -11 11 -101 8 -124 -4 -12 -6 -23 -9 -23 -6 0 3 -7 0 -15
-7 -15 -13 -115 -22 -240 -22 -33 0 -63 -5 -67 -12 -6 -8 -10 -8 -15 0 -5 6
-68 11 -168 12 -201 2 -201 2 -222 1 -10 -1 -37 1 -60 5 -35 5 -46 2 -61 -14
-16 -17 -21 -18 -30 -7 -8 9 -34 13 -82 13 -38 -1 -70 2 -70 6 0 8 -98 3 -106
-5 -4 -4 -15 -2 -25 4 -10 5 -41 11 -68 13 -26 2 -52 6 -57 8 -5 3 -31 6 -59
7 -48 2 -100 8 -100 11 0 5 -86 5 -113 -1z"/>
<path d="M5670 1730 c0 -5 5 -10 11 -10 5 0 7 5 4 10 -3 6 -8 10 -11 10 -2 0
-4 -4 -4 -10z"/>
<path d="M2355 1712 c-3 -8 1 -22 10 -32 8 -9 15 -23 15 -31 0 -8 5 -20 11
-26 6 -6 10 -32 8 -57 -4 -49 4 -56 37 -31 10 8 24 15 31 15 13 0 52 31 99 78
18 17 37 32 43 32 6 0 11 5 11 10 0 6 7 10 15 10 17 0 20 26 5 35 -6 4 -17 1
-25 -5 -9 -7 -22 -9 -32 -5 -23 10 -106 10 -122 1 -6 -4 -14 -1 -17 7 -7 20
-81 19 -89 -1z"/>
<path d="M5308 1712 c-27 -2 -48 -6 -48 -11 0 -4 18 -18 40 -31 22 -14 51 -34
64 -45 44 -38 61 -50 91 -65 17 -8 37 -23 46 -32 9 -10 21 -18 28 -18 6 0 11
-5 11 -11 0 -5 4 -8 9 -4 5 3 17 -2 25 -11 9 -9 23 -13 31 -10 17 6 20 26 4
26 -6 0 -9 8 -7 18 2 9 -4 26 -14 36 -9 10 -15 23 -12 28 3 4 0 33 -6 64 -13
60 -38 81 -74 62 -10 -6 -21 -6 -25 -2 -6 9 -77 12 -163 6z"/>
<path d="M5770 1480 c0 -5 5 -10 10 -10 6 0 10 5 10 10 0 6 -4 10 -10 10 -5 0
-10 -4 -10 -10z"/>
</g>
</svg>
