<?xml version="1.0" standalone="no"?>
<!DOCTYPE svg PUBLIC "-//W3C//DTD SVG 20010904//EN"
 "http://www.w3.org/TR/2001/REC-SVG-20010904/DTD/svg10.dtd">
<svg version="1.0" xmlns="http://www.w3.org/2000/svg"
 width="760.000000pt" height="760.000000pt" viewBox="0 0 760.000000 760.000000"
 preserveAspectRatio="xMidYMid meet">
<metadata>
Created by potrace 1.11, written by Peter Selinger 2001-2013
</metadata>
<g transform="translate(0.000000,760.000000) scale(0.100000,-0.100000)"
fill="#000000" stroke="none">
<path d="M1904 6088 c-129 -10 -195 -51 -427 -264 -20 -18 -41 -34 -45 -34 -4
0 -19 -12 -33 -27 -14 -16 -51 -46 -82 -67 -33 -24 -63 -54 -73 -75 -9 -20
-21 -44 -26 -55 -6 -10 -10 -87 -10 -170 1 -83 1 -259 1 -391 0 -132 0 -251 0
-265 0 -14 0 -54 0 -90 -1 -36 -1 -72 -1 -80 2 -391 2 -647 1 -655 -1 -5 -3
-31 -3 -57 -1 -37 -7 -53 -29 -76 -15 -15 -27 -32 -27 -38 0 -5 -63 -73 -140
-151 -77 -78 -140 -147 -140 -154 0 -10 -76 -89 -86 -89 -2 0 -15 12 -29 26
-32 32 -68 27 -107 -17 -19 -22 -36 -30 -60 -31 -55 -1 -162 14 -175 24 -17
13 -163 2 -204 -15 -59 -25 -102 -94 -73 -117 7 -7 14 -23 14 -35 0 -15 13
-32 39 -49 21 -15 41 -36 44 -46 3 -11 18 -22 33 -26 16 -4 41 -18 55 -31 15
-13 53 -31 85 -40 33 -8 64 -19 71 -25 7 -5 16 -7 21 -4 8 5 82 -39 82 -50 0
-3 -8 -21 -19 -42 -10 -20 -17 -41 -15 -47 1 -5 5 -22 8 -37 4 -18 13 -28 25
-28 10 0 23 -6 29 -13 14 -16 61 -20 78 -6 7 6 18 8 24 4 5 -3 20 1 32 9 12 9
30 16 39 16 32 0 102 45 122 78 10 17 22 32 25 32 4 0 22 23 41 50 19 28 37
50 42 50 10 0 49 68 49 88 0 9 -7 36 -16 59 l-17 43 42 47 c22 27 52 61 66 77
14 16 25 32 25 36 0 4 10 14 23 23 l23 15 3 -267 c2 -146 4 -277 3 -291 -1
-65 -1 -527 0 -545 0 -11 -1 -95 -2 -186 -2 -136 1 -171 14 -197 9 -17 20 -33
26 -37 5 -3 56 -6 112 -7 57 0 111 -5 120 -9 9 -5 19 -5 22 -1 3 5 131 8 286
7 155 0 286 3 293 7 6 3 19 2 28 -3 12 -6 27 -5 44 3 17 8 29 8 33 2 4 -6 86
-10 214 -10 228 1 240 -2 196 -53 -13 -14 -26 -27 -30 -29 -5 -2 -8 -9 -8 -15
-1 -7 -9 -22 -19 -34 -15 -18 -25 -21 -52 -16 -85 15 -122 3 -140 -44 -8 -21
-13 -22 -71 -17 -35 2 -88 9 -118 14 -111 18 -145 19 -161 4 -8 -7 -32 -17
-54 -22 -47 -9 -73 -42 -81 -102 -6 -42 -3 -49 30 -90 65 -80 82 -95 152 -130
38 -18 82 -44 97 -57 16 -12 35 -23 43 -23 9 0 30 -10 47 -23 61 -42 102 -64
137 -72 8 -2 33 -12 55 -23 53 -26 118 -31 142 -10 10 8 29 21 41 28 13 6 30
27 38 45 7 19 18 36 24 40 5 3 10 15 10 26 0 20 24 59 73 117 21 25 27 43 27
78 0 30 -5 46 -15 50 -23 9 -18 32 10 50 14 9 25 25 25 35 0 11 4 19 10 19 5
0 12 11 16 25 3 14 15 30 25 36 11 5 19 16 19 24 0 8 5 15 10 15 6 0 10 8 10
18 0 10 11 29 25 42 14 13 25 29 25 36 0 6 9 22 19 35 19 24 19 24 273 26 139
1 262 1 273 1 87 -2 508 0 560 2 17 1 37 2 45 1 8 0 69 -2 134 -4 118 -4 119
-4 143 -33 38 -47 96 -115 126 -147 15 -17 27 -34 27 -38 0 -5 11 -11 24 -15
14 -3 32 -14 42 -25 9 -10 21 -19 25 -19 4 0 28 -13 52 -30 28 -19 58 -30 79
-30 19 0 39 -5 45 -11 11 -11 110 -22 179 -20 43 2 74 -17 74 -45 0 -25 69
-46 128 -40 55 6 102 -12 102 -39 0 -15 96 -101 166 -149 84 -57 181 -58 231
-3 23 25 41 141 23 152 -5 3 -10 19 -10 34 0 16 -9 40 -20 54 -11 14 -20 34
-20 45 0 11 -7 25 -15 32 -8 7 -15 27 -15 46 0 18 -7 39 -15 48 -8 8 -15 20
-15 26 0 7 -9 23 -20 37 -11 14 -20 33 -20 43 0 9 -10 28 -22 42 -13 14 -31
39 -41 56 -16 28 -16 33 -3 38 8 3 23 1 33 -4 10 -6 71 -9 136 -7 65 1 119 -1
122 -5 6 -9 107 0 120 11 5 5 16 9 25 9 28 0 86 37 144 94 31 31 62 56 67 56
14 0 58 34 115 88 25 23 50 42 56 42 11 0 85 63 151 128 77 77 75 57 72 527
-1 231 0 426 3 433 7 20 24 14 52 -20 l27 -32 -17 -42 c-20 -46 -16 -85 11
-110 10 -9 19 -23 19 -30 0 -7 20 -32 45 -55 25 -23 45 -49 45 -56 0 -32 94
-91 201 -127 54 -17 54 -17 114 6 56 23 60 26 63 60 2 27 -2 40 -16 50 -11 7
-22 27 -23 43 -4 27 -1 30 26 33 16 2 41 12 55 22 14 9 41 21 60 25 19 3 54
20 77 36 23 16 47 29 55 29 7 0 24 9 38 20 14 11 32 20 40 20 15 0 70 52 70
65 0 5 7 13 15 19 22 16 30 79 13 97 -8 8 -19 22 -25 33 -13 23 -75 46 -125
46 -20 0 -39 4 -42 9 -7 11 -56 9 -74 -3 -7 -4 -25 -5 -39 -1 -15 3 -34 0 -47
-8 -54 -35 -121 -25 -174 26 -31 30 -34 31 -65 18 -67 -27 -66 -27 -130 41
-34 36 -80 87 -102 113 -22 27 -59 67 -81 89 -23 23 -48 52 -55 66 -10 21 -23
159 -19 210 1 8 3 78 5 155 2 77 3 147 4 155 0 16 -8 1268 -9 1285 0 6 2 62 4
125 2 63 0 122 -5 132 -5 9 -5 19 0 22 5 3 8 48 8 99 0 52 3 99 7 106 9 14
-28 58 -77 93 -21 15 -31 18 -40 9 -14 -14 -54 -14 -62 -1 -4 6 -16 8 -28 4
-12 -4 -121 -6 -242 -4 -306 3 -423 2 -445 -5 -11 -3 -27 -2 -37 3 -11 6 -50
7 -98 2 -44 -4 -84 -5 -90 -2 -15 9 -145 9 -264 -1 -77 -7 -110 -6 -127 4 -15
7 -37 9 -61 5 -54 -11 -121 -12 -173 -5 -25 4 -53 2 -63 -3 -10 -5 -24 -6 -30
-1 -9 6 -407 8 -502 2 -19 -2 -129 0 -170 2 -22 1 -256 1 -430 0 -163 -2 -877
-4 -900 -3 -198 5 -741 5 -801 0z m3084 -4290 c-39 -38 -45 -40 -86 -34 -49 7
-112 41 -112 60 0 10 29 14 120 14 l121 1 -43 -41z"/>
</g>
</svg>
