<?xml version="1.0" standalone="no"?>
<!DOCTYPE svg PUBLIC "-//W3C//DTD SVG 20010904//EN"
 "http://www.w3.org/TR/2001/REC-SVG-20010904/DTD/svg10.dtd">
<svg version="1.0" xmlns="http://www.w3.org/2000/svg"
 width="560.000000pt" height="560.000000pt" viewBox="0 0 560.000000 560.000000"
 preserveAspectRatio="xMidYMid meet">
<metadata>
Created by potrace 1.11, written by Peter Selinger 2001-2013
</metadata>
<g transform="translate(0.000000,560.000000) scale(0.100000,-0.100000)"
fill="#000000" stroke="none">
<path d="M1259 5455 c-4 -13 -6 -21 -12 -35 -3 -8 -7 -26 -9 -40 -3 -23 -6
-25 -52 -22 -37 2 -52 -2 -62 -15 -12 -17 -15 -15 -43 16 l-30 34 -40 -20
c-39 -19 -40 -19 -58 -1 -18 17 -19 17 -51 -5 -27 -18 -32 -27 -27 -47 18 -76
18 -80 -3 -80 -11 0 -22 5 -24 11 -2 6 -26 15 -53 19 -38 6 -52 5 -58 -6 -5
-9 -20 -13 -43 -10 -18 3 -34 0 -34 -5 0 -5 -11 -9 -24 -9 -45 0 -56 -10 -56
-50 0 -38 7 -47 87 -110 7 -6 11 -43 11 -105 0 -80 -3 -97 -16 -103 -46 -17
-56 -84 -19 -129 13 -15 27 -36 30 -47 5 -12 14 -17 27 -13 25 7 36 -9 39 -58
1 -22 9 -51 19 -64 17 -23 86 -51 108 -44 7 2 15 -4 18 -14 4 -10 3 -19 -2
-21 -6 -2 -8 -12 -5 -22 3 -12 0 -20 -6 -20 -7 0 -9 -5 -6 -10 4 -6 2 -16 -3
-23 -22 -27 -31 -165 -12 -177 4 -3 7 -23 6 -45 -1 -22 2 -45 7 -52 6 -8 1
-22 -12 -39 -12 -15 -21 -41 -21 -58 0 -17 -11 -48 -25 -68 -14 -20 -25 -48
-25 -61 0 -14 -7 -30 -15 -37 -9 -7 -13 -21 -9 -35 3 -13 1 -26 -5 -29 -6 -4
-11 -16 -11 -27 0 -10 -4 -19 -9 -19 -5 0 -12 -15 -16 -32 -7 -35 -18 -65 -42
-111 -8 -15 -12 -35 -9 -44 4 -9 -1 -21 -9 -27 -10 -7 -16 -27 -17 -54 0 -23
-4 -45 -9 -48 -5 -3 -9 -18 -9 -34 0 -16 -5 -41 -12 -55 -12 -27 -38 -34 -38
-10 0 8 -4 23 -9 33 -14 25 -24 56 -23 65 1 4 -2 7 -8 7 -5 0 -7 7 -4 15 4 8
1 15 -5 15 -6 0 -11 9 -11 20 0 11 -8 24 -17 27 -10 4 -21 11 -25 16 -11 17
-92 12 -121 -7 -15 -10 -36 -16 -47 -13 -11 3 -23 1 -26 -4 -6 -11 -83 -49
-99 -49 -12 0 -51 -42 -48 -52 2 -4 -7 -10 -19 -14 -30 -9 -43 -24 -52 -57 -7
-31 7 -35 38 -12 11 8 28 15 37 15 10 0 19 5 21 12 2 6 14 12 26 13 12 1 29 8
39 17 14 12 37 16 98 14 91 -2 122 -17 155 -73 11 -19 29 -37 39 -40 28 -7 72
-125 51 -138 -6 -4 -8 -11 -4 -16 3 -5 0 -16 -6 -24 -6 -8 -9 -19 -5 -25 3 -5
3 -16 -2 -22 -4 -7 -9 -24 -11 -38 -4 -33 -10 -65 -12 -65 -1 0 -3 -13 -5 -30
-2 -16 -8 -46 -14 -65 -25 -91 -31 -120 -31 -153 0 -20 -5 -39 -10 -42 -6 -3
-10 -17 -10 -30 0 -13 -5 -27 -11 -31 -7 -4 -9 -24 -6 -50 2 -24 1 -44 -3 -44
-4 0 -8 -23 -9 -51 -1 -29 -4 -55 -6 -60 -3 -4 -1 -11 5 -14 8 -5 7 -11 -2
-22 -6 -8 -13 -36 -15 -61 -3 -59 -11 -138 -19 -177 -19 -103 -21 -121 -14
-129 5 -5 5 -18 -1 -28 -7 -13 -7 -23 0 -32 6 -8 8 -21 5 -30 -9 -24 -10 -256
-1 -256 4 0 4 -26 0 -58 -4 -31 -6 -64 -6 -72 1 -8 4 -62 8 -120 4 -58 8 -112
8 -120 0 -8 4 -20 9 -27 5 -7 7 -17 3 -23 -4 -6 -1 -17 5 -25 6 -8 9 -18 6
-24 -3 -5 1 -12 9 -15 12 -4 14 -15 9 -46 -4 -23 -2 -51 4 -63 25 -53 52 -127
52 -141 0 -9 9 -16 21 -16 13 0 20 -6 18 -17 -3 -35 1 -43 31 -58 16 -9 30
-22 30 -31 0 -27 201 -214 230 -214 6 0 10 -4 10 -10 0 -5 9 -10 21 -10 11 0
34 -9 50 -21 16 -11 33 -18 39 -14 5 3 19 -3 30 -13 17 -16 28 -18 56 -12 19
4 34 4 34 0 0 -13 52 -22 63 -11 7 7 17 7 30 0 11 -6 32 -9 47 -6 15 3 31 2
36 -3 5 -5 41 -2 84 6 41 8 113 16 160 17 47 1 91 6 97 10 27 17 103 -80 95
-120 -2 -7 1 -13 6 -13 15 0 24 -31 13 -44 -5 -6 -8 -53 -6 -105 1 -52 -3
-107 -8 -122 -6 -16 -9 -30 -7 -33 13 -12 59 8 69 30 6 13 17 24 26 24 8 0 15
8 15 18 0 10 7 27 15 39 8 12 12 28 9 37 -3 9 -2 16 3 16 5 0 8 28 8 63 0 51
-4 66 -22 85 -13 12 -23 28 -23 35 0 6 -18 32 -40 56 -22 24 -40 47 -40 51 0
16 30 31 48 26 13 -5 22 -1 26 10 3 9 12 14 20 11 7 -3 26 1 40 8 15 8 43 17
62 21 20 4 38 13 41 20 3 8 15 14 27 14 12 0 30 6 41 14 11 7 31 17 45 21 14
4 30 14 35 22 16 21 111 21 127 -1 7 -10 36 -13 138 -16 136 -3 229 1 235 10
9 14 54 -21 55 -42 0 -22 11 -28 53 -30 l34 -1 -3 -46 c-3 -45 16 -101 43
-129 7 -7 40 -14 75 -15 63 -2 63 -2 66 -33 3 -26 7 -31 23 -27 14 4 18 1 14
-9 -3 -8 1 -20 9 -27 19 -16 106 -26 106 -12 0 5 9 13 20 16 11 3 20 13 20 20
0 21 19 28 36 14 11 -9 17 -10 22 -2 10 15 132 28 132 14 0 -17 78 -91 98 -93
44 -3 60 3 70 29 11 27 10 45 -4 105 -5 21 -3 28 9 28 8 0 17 6 20 13 8 20 -4
70 -20 89 -9 10 -12 25 -8 37 8 25 11 25 49 6 27 -14 31 -14 39 0 4 8 12 13
17 10 18 -11 30 32 18 65 -8 23 -8 38 0 50 7 12 6 25 -5 48 -9 18 -19 32 -24
32 -12 0 -11 37 2 61 8 16 7 25 -5 38 -33 36 -14 68 36 62 16 -1 28 2 28 9 0
6 5 8 10 5 15 -9 12 57 -4 78 -7 9 -18 17 -25 17 -6 0 -11 5 -11 10 0 6 -8 10
-19 10 -26 0 -47 37 -49 88 -1 33 -8 52 -32 79 -31 35 -31 35 -12 57 29 31 22
58 -24 104 -35 34 -41 45 -39 75 2 23 -2 37 -11 41 -8 3 -14 13 -14 23 0 40
-115 64 -155 33 -12 -10 -55 6 -55 20 0 5 -7 10 -15 10 -18 0 -19 12 -3 28 17
17 -20 122 -43 122 -10 0 -21 -5 -24 -10 -4 -6 -11 -8 -16 -5 -5 3 -19 -4 -31
-16 -13 -11 -35 -26 -50 -31 -15 -5 -37 -25 -49 -44 -11 -19 -24 -34 -27 -34
-14 1 -47 36 -59 63 -7 15 -19 27 -27 27 -7 0 -16 7 -20 15 -3 8 -12 12 -20 9
-9 -3 -19 3 -26 16 -8 15 -17 19 -32 14 -11 -3 -32 -7 -46 -9 -14 -1 -28 -8
-30 -14 -7 -21 -28 -11 -30 16 -1 14 -11 32 -22 40 -10 7 -25 20 -32 27 -13
12 -25 17 -79 32 -18 5 -32 -29 -18 -43 5 -5 6 -19 2 -31 -5 -21 -7 -22 -23
-7 -12 11 -26 14 -43 9 -25 -6 -26 -4 -22 25 2 17 6 35 9 40 4 5 2 12 -4 16
-6 4 -7 12 -1 22 14 26 -4 78 -39 112 -18 17 -37 31 -41 31 -5 0 -9 7 -9 15 0
10 -10 15 -30 15 -23 0 -30 4 -30 20 0 11 7 23 17 27 9 4 31 22 48 41 21 21
35 30 40 23 4 -8 24 3 57 29 28 22 59 40 69 40 11 0 19 4 19 9 0 5 16 12 35
15 19 4 35 11 35 16 0 6 6 10 14 10 8 0 16 6 19 14 3 7 28 16 59 19 29 4 54
11 56 17 2 5 13 10 25 10 12 0 35 7 51 15 16 9 37 13 46 10 10 -3 34 -6 54 -7
20 -1 39 -4 41 -8 5 -8 120 -4 135 5 7 4 16 2 20 -6 7 -10 12 -10 23 -1 18 16
47 5 45 -16 -3 -36 3 -52 17 -52 8 0 19 -9 25 -20 14 -26 67 -53 91 -47 12 3
19 0 19 -9 0 -8 4 -14 9 -14 5 0 11 -10 15 -23 3 -13 14 -34 25 -46 11 -13 22
-28 23 -33 4 -10 21 -14 66 -17 7 -1 10 -6 7 -12 -4 -6 2 -17 14 -25 12 -9 19
-19 16 -24 -11 -17 21 -29 58 -20 22 5 39 4 43 -2 3 -5 14 -2 24 7 12 11 20
13 25 5 5 -8 10 -8 20 0 18 15 46 0 65 -34 7 -14 21 -26 30 -26 9 0 20 -4 26
-10 10 -10 64 32 64 50 0 5 17 8 38 7 35 -2 37 0 34 26 -3 34 21 46 47 23 24
-22 36 -20 48 6 17 37 -8 148 -33 148 -8 0 -14 6 -14 13 0 18 21 37 40 37 10
0 19 17 28 52 11 50 8 98 -7 98 -6 0 -7 11 -12 80 -1 17 -6 30 -11 30 -4 0 -8
5 -8 11 0 6 9 9 20 6 21 -5 70 12 70 26 0 4 6 7 14 7 8 0 23 10 33 23 10 12
28 27 38 33 29 16 32 60 6 69 -12 3 -21 13 -21 21 0 9 -10 14 -28 14 -21 0
-32 7 -40 26 -12 25 -7 74 8 74 9 0 43 67 47 94 6 34 -17 86 -37 86 -11 0 -24
9 -30 20 -6 11 -14 18 -19 16 -11 -7 -30 29 -21 43 8 13 -15 71 -33 82 -5 4
-27 5 -48 3 -37 -5 -38 -4 -49 35 -7 27 -18 42 -33 47 -12 3 -35 18 -50 32
-23 22 -27 34 -26 68 2 33 -4 50 -25 78 -33 44 -48 45 -76 6 -12 -17 -28 -30
-36 -30 -8 0 -14 -4 -14 -10 0 -5 -4 -10 -10 -10 -5 0 -10 9 -10 19 0 24 -9
30 -49 35 -32 3 -72 42 -64 62 2 6 -11 17 -29 23 -69 26 -98 41 -98 51 0 6
-18 1 -40 -10 -36 -18 -39 -23 -29 -41 8 -15 7 -24 -2 -35 -15 -19 -49 -18
-49 1 0 8 -3 15 -7 15 -5 0 -17 14 -28 30 -22 33 -35 36 -64 18 -17 -10 -23
-8 -38 10 -23 29 -87 38 -120 17 -23 -15 -32 -58 -14 -69 5 -3 7 -14 4 -25 -2
-10 2 -25 10 -32 26 -27 29 -54 7 -74 -11 -10 -20 -22 -20 -27 0 -5 -9 -19
-21 -31 -13 -14 -19 -31 -16 -49 4 -30 0 -33 -21 -19 -9 5 -29 0 -55 -14 -34
-17 -43 -28 -45 -53 -2 -18 1 -32 6 -32 6 0 10 -17 10 -37 0 -29 7 -43 31 -65
29 -26 30 -28 11 -38 -11 -6 -20 -20 -20 -30 0 -11 -4 -20 -8 -20 -12 0 -13
-58 -1 -65 11 -7 12 -66 2 -63 -5 1 -26 -14 -48 -35 -22 -20 -45 -37 -51 -37
-7 0 -15 -12 -19 -27 -3 -16 -14 -37 -24 -48 -18 -21 -37 -108 -46 -209 -2
-32 -6 -60 -7 -61 -2 -2 -29 -15 -60 -29 -32 -13 -58 -30 -58 -35 0 -6 -3 -10
-7 -9 -5 1 -21 -5 -38 -12 -16 -7 -33 -13 -37 -12 -5 1 -8 -2 -8 -7 0 -5 -17
-19 -37 -31 -21 -12 -43 -31 -51 -41 -7 -10 -24 -19 -38 -19 -19 0 -24 -5 -24
-25 0 -27 -9 -32 -27 -14 -8 8 -15 5 -26 -11 -8 -11 -19 -20 -25 -18 -6 2 -17
-5 -24 -16 -13 -17 -16 -17 -30 -2 -13 12 -15 23 -8 47 5 17 5 40 0 53 -4 12
-4 29 0 37 21 38 21 56 -1 62 -16 4 -19 11 -14 26 3 12 2 21 -4 21 -5 0 -12 9
-16 20 -3 11 -9 19 -13 18 -4 -1 -20 5 -37 12 -16 7 -60 14 -97 16 -37 1 -72
5 -79 9 -6 4 -14 3 -18 -3 -3 -6 -20 -12 -36 -14 -20 -2 -31 -9 -33 -22 -3
-11 0 -16 7 -12 12 8 144 -33 149 -46 2 -4 8 -8 13 -8 15 0 69 -62 63 -72 -3
-4 -1 -8 4 -8 5 0 9 -49 8 -110 -1 -66 -5 -110 -11 -110 -5 0 -23 -11 -39 -25
-16 -14 -33 -25 -38 -25 -5 0 -19 -11 -32 -25 -13 -14 -30 -25 -39 -25 -9 0
-19 -9 -22 -20 -4 -13 -15 -20 -32 -20 -15 0 -33 -10 -45 -25 -11 -14 -25 -25
-31 -25 -7 0 -18 -9 -25 -20 -7 -11 -19 -20 -27 -20 -8 0 -15 -7 -15 -15 0 -8
-6 -15 -14 -15 -8 0 -17 -11 -20 -25 -4 -15 -16 -27 -31 -31 -14 -3 -22 -10
-19 -15 4 -8 -3 -11 -22 -8 -3 0 -20 -11 -39 -25 -18 -14 -38 -26 -44 -26 -6
0 -11 -7 -11 -15 0 -8 -10 -20 -22 -26 -13 -7 -27 -18 -31 -25 -4 -8 -13 -14
-20 -14 -7 0 -18 -14 -26 -31 -8 -18 -22 -34 -32 -36 -11 -3 -19 -8 -19 -12 0
-3 -11 -18 -24 -32 -13 -14 -31 -39 -40 -55 -31 -56 -41 -69 -82 -109 -22 -22
-43 -48 -47 -58 -3 -9 -11 -17 -17 -17 -7 0 -9 -8 -5 -19 4 -13 -2 -23 -20
-35 -14 -9 -25 -23 -25 -31 0 -8 -7 -15 -15 -15 -9 0 -20 -10 -25 -22 -5 -13
-9 -19 -9 -14 -1 5 -11 -4 -23 -20 -13 -16 -22 -34 -20 -40 1 -6 -5 -17 -13
-24 -8 -7 -15 -21 -15 -31 0 -11 -7 -19 -15 -19 -8 0 -17 -14 -21 -35 -3 -20
-8 -34 -11 -32 -2 3 -16 -8 -32 -23 -24 -25 -61 -111 -61 -144 0 -7 -5 -17
-11 -23 -16 -16 -78 16 -79 40 0 10 -7 20 -16 24 -8 3 -20 15 -25 27 -5 11
-13 28 -17 36 -5 8 -13 24 -18 35 -13 29 -9 301 6 355 6 25 19 72 27 105 8 33
19 74 24 91 5 17 9 44 9 61 0 16 3 33 7 37 8 8 10 20 17 83 1 18 7 38 13 45 6
7 14 28 18 45 3 18 10 33 13 33 4 0 16 27 26 61 11 33 23 62 28 65 4 3 8 13 8
23 0 21 22 71 33 71 4 0 7 8 7 18 1 25 25 53 47 53 10 -1 27 0 38 0 91 6 205
4 205 -2 0 -5 15 -11 34 -15 19 -3 37 -12 40 -19 3 -8 13 -11 26 -8 16 4 23 0
27 -16 3 -12 13 -21 24 -21 13 0 25 -14 36 -40 10 -22 23 -40 29 -40 17 0 31
40 33 92 1 41 -2 49 -24 64 -14 9 -24 23 -21 30 3 7 -2 18 -10 24 -8 7 -14 18
-14 24 0 11 -52 56 -65 56 -3 0 -14 9 -26 21 -12 12 -27 18 -38 14 -9 -3 -26
2 -37 10 -10 8 -27 15 -37 15 -23 0 -72 -27 -107 -57 -24 -22 -50 -30 -50 -16
0 20 44 93 56 93 7 0 17 15 22 33 4 17 17 37 28 42 10 6 19 15 19 20 1 24 40
84 56 88 12 3 19 14 19 30 0 15 9 31 25 41 14 9 25 23 25 31 0 8 13 21 29 29
16 9 31 22 34 31 4 8 12 15 20 15 7 0 22 8 33 18 27 24 144 72 174 71 14 -1
51 4 83 11 33 6 65 9 72 6 8 -3 19 2 25 10 7 8 21 14 31 14 11 0 19 4 19 10 0
5 16 17 35 26 19 9 43 29 52 45 10 16 23 29 29 29 7 0 19 3 28 6 11 4 16 1 16
-10 0 -9 6 -19 14 -22 8 -3 18 -18 21 -34 11 -50 70 -73 130 -50 21 8 33 5 63
-13 61 -37 92 -48 110 -38 9 5 22 9 27 8 6 0 19 18 30 41 16 34 25 42 46 42
14 0 37 10 51 23 14 13 30 21 36 19 7 -2 15 3 18 12 9 22 17 20 53 -13 39 -36
85 -43 129 -18 32 19 44 58 22 72 -5 3 -7 12 -4 20 4 8 -1 18 -10 21 -19 7
-21 45 -3 63 10 11 8 15 -7 25 -38 22 -66 59 -66 86 0 26 2 27 45 24 38 -3 45
-1 45 14 0 10 5 23 11 29 8 8 6 17 -10 34 -14 15 -21 36 -21 61 0 27 -4 38
-15 38 -8 0 -26 5 -40 12 -21 9 -25 16 -20 37 3 16 0 34 -9 46 -24 32 -19 62
13 81 72 42 30 95 -89 113 -39 6 -45 9 -42 29 2 15 -2 22 -13 22 -11 0 -14 6
-9 25 5 19 2 25 -10 25 -9 0 -16 4 -16 9 0 5 -9 13 -21 16 -12 4 -18 12 -15
21 9 22 -12 65 -35 71 -12 4 -18 11 -15 20 3 8 2 11 -4 8 -13 -8 -67 28 -63
43 6 17 -58 78 -91 86 -28 7 -73 -11 -95 -38 -8 -10 -25 -14 -49 -11 -20 2
-43 4 -50 4 -8 1 -11 8 -8 19 4 10 -1 27 -9 38 -8 10 -15 29 -15 41 0 12 -4
24 -9 28 -14 8 -81 -26 -81 -42 0 -7 -5 -13 -11 -13 -17 0 -41 -29 -34 -41 4
-5 0 -18 -8 -27 -8 -9 -16 -23 -19 -31 -6 -20 -83 -24 -99 -5 -6 8 -16 14 -21
14 -5 0 -16 6 -23 14 -8 8 -31 12 -55 11 -33 -2 -47 -9 -75 -41 -31 -35 -35
-36 -41 -19 -10 25 -33 49 -40 42 -3 -3 -15 4 -26 15 -15 15 -23 17 -31 9 -6
-6 -26 -11 -45 -11 -36 0 -35 4 -16 -61 5 -19 3 -21 -16 -16 -18 5 -24 0 -33
-24 -6 -16 -17 -29 -24 -29 -7 0 -13 -4 -13 -9 0 -5 -6 -16 -14 -24 -24 -24
-25 -87 -1 -87 17 0 37 -34 33 -58 -1 -9 1 -23 6 -30 4 -7 3 -19 -4 -27 -7 -8
-13 -40 -14 -71 -1 -50 2 -58 27 -78 19 -15 27 -31 27 -53 0 -30 20 -49 95
-89 27 -15 29 -77 4 -130 -12 -26 -21 -68 -22 -110 -2 -38 -5 -73 -8 -79 -3
-5 -4 -30 -2 -55 8 -122 5 -168 -12 -182 -43 -35 -55 -49 -61 -74 -7 -27 -48
-74 -64 -74 -6 0 -10 -5 -10 -11 0 -7 -25 -36 -56 -65 -31 -30 -53 -54 -49
-54 14 0 -19 -32 -42 -41 -13 -5 -23 -15 -23 -23 0 -7 -10 -16 -21 -19 -16 -4
-20 -11 -16 -26 3 -14 0 -21 -9 -21 -8 0 -14 -7 -14 -15 0 -8 -7 -15 -16 -15
-8 0 -13 -4 -9 -9 3 -6 -4 -15 -15 -21 -11 -6 -23 -22 -26 -35 -3 -14 -12 -25
-19 -25 -18 0 -41 30 -37 49 1 9 -10 30 -25 47 -16 16 -32 43 -38 58 -5 16
-19 34 -30 40 -10 6 -25 16 -32 23 -7 6 -29 17 -48 23 -19 6 -35 16 -35 21 0
5 -18 9 -39 9 -22 0 -43 4 -46 10 -4 6 -17 4 -35 -5 -31 -16 -50 -4 -31 19 6
7 8 15 5 19 -3 3 -1 22 6 42 7 21 13 57 15 82 2 24 10 52 18 61 10 11 14 29
11 53 -4 26 -1 38 10 42 9 4 12 13 9 26 -3 12 0 27 6 34 6 8 12 34 14 58 2 25
9 54 15 64 5 11 11 40 13 65 3 56 14 80 38 80 10 0 24 7 31 15 7 8 16 15 21
15 4 0 20 5 36 11 15 6 29 9 29 7 1 -2 10 5 20 14 23 20 70 39 78 31 3 -4 31
-7 60 -7 45 -1 60 -6 83 -27 15 -15 38 -32 51 -38 12 -6 22 -19 22 -27 0 -10
6 -14 14 -11 8 3 18 -4 24 -19 7 -14 17 -21 26 -18 20 7 25 48 10 69 -7 10
-11 21 -9 26 3 4 1 10 -5 14 -5 3 -10 17 -10 31 0 14 -7 27 -17 31 -10 4 -24
15 -31 24 -6 10 -28 23 -47 29 -19 6 -35 16 -35 22 0 6 -7 7 -16 4 -9 -3 -28
2 -42 12 -21 15 -34 17 -59 10 -18 -5 -33 -13 -33 -18 0 -6 -9 -10 -19 -10
-10 0 -35 -16 -54 -35 -19 -19 -37 -35 -40 -35 -9 0 -57 -46 -57 -54 0 -9 -26
-36 -34 -36 -9 0 6 124 16 138 6 6 8 26 4 43 -4 24 0 36 19 57 19 21 25 38 25
74 0 26 5 50 10 53 5 3 10 19 10 35 0 16 5 32 10 35 5 3 10 24 10 47 0 24 8
51 21 69 11 16 21 39 21 51 1 13 6 28 11 35 5 7 6 17 2 22 -3 6 4 20 15 31 12
12 19 28 16 36 -3 8 6 34 19 58 13 24 27 58 30 76 8 46 12 50 50 50 19 0 37 5
41 11 3 6 14 9 24 6 11 -3 28 2 40 10 11 8 27 12 35 9 9 -3 19 3 25 14 8 14
17 19 33 15 15 -4 32 1 48 13 13 11 44 25 67 31 23 7 45 19 51 28 8 15 11 15
45 -1 40 -19 94 -22 141 -8 30 8 40 4 90 -43 17 -16 30 -19 70 -14 48 5 105
-7 105 -23 0 -15 32 -8 76 18 24 14 44 30 44 34 0 5 14 11 30 15 17 4 37 14
46 23 15 14 18 14 33 -6 13 -18 23 -21 49 -16 42 8 80 57 62 79 -11 14 -7 19
12 16 12 -2 29 39 26 62 -3 19 2 22 35 25 29 3 37 7 37 23 0 10 -4 19 -10 19
-5 0 -14 18 -20 40 -9 33 -18 43 -50 58 -43 18 -48 28 -25 58 18 24 19 58 3
85 -20 33 -65 79 -77 79 -14 0 -45 31 -54 52 -3 10 3 27 16 41 55 62 91 122
82 138 -3 4 -1 10 5 14 17 10 11 44 -10 55 -11 6 -43 8 -75 4 -62 -6 -94 8
-74 32 6 8 8 14 3 14 -5 0 -9 25 -8 56 0 85 -13 116 -58 138 -27 12 -50 16
-73 12 -28 -6 -35 -3 -40 14 -3 11 -11 20 -17 20 -5 0 -24 12 -41 26 -27 23
-32 24 -42 10 -9 -12 -14 -13 -23 -4 -9 9 -12 9 -12 0 0 -15 -23 -15 -38 0
-12 12 -25 16 -77 24 -26 3 -38 5 -77 13 -4 0 -13 17 -20 37 -10 28 -24 42
-62 60 -54 26 -55 26 -57 19z m-749 -3114 c0 -9 17 -21 80 -53 14 -7 31 -18
38 -25 7 -7 20 -13 27 -13 8 0 22 -11 31 -25 9 -14 23 -25 31 -25 8 0 17 -8
20 -17 2 -10 22 -31 44 -47 31 -24 39 -36 39 -61 0 -17 -8 -40 -18 -51 -10
-11 -22 -32 -26 -47 -3 -15 -13 -30 -20 -33 -8 -3 -12 -14 -9 -24 3 -12 -2
-20 -16 -25 -13 -4 -21 -15 -21 -29 0 -12 -4 -26 -9 -32 -5 -5 -11 -27 -13
-49 -1 -22 -7 -43 -12 -46 -5 -4 -10 -26 -12 -50 -3 -24 -8 -45 -12 -49 -4 -3
-8 -20 -9 -39 -1 -19 -7 -39 -13 -45 -5 -5 -10 -27 -10 -47 0 -21 -4 -40 -9
-43 -8 -5 -22 -56 -28 -101 -1 -11 -7 -39 -13 -63 -6 -24 -8 -47 -5 -52 3 -5
1 -11 -5 -15 -5 -3 -10 -21 -10 -39 0 -19 -6 -46 -14 -60 -10 -19 -11 -38 -5
-63 4 -21 4 -43 0 -50 -13 -24 -44 10 -47 53 -1 21 -4 41 -5 44 -1 3 -2 10 -3
15 -1 6 -7 29 -14 53 -7 23 -10 47 -7 52 3 5 -1 22 -8 37 -9 17 -13 50 -11 81
1 28 -1 52 -6 52 -4 0 -8 16 -7 35 1 19 5 35 10 35 4 0 6 35 2 78 -11 140 -13
272 -3 278 5 3 5 11 -2 18 -7 9 -7 22 0 43 6 17 7 40 3 54 -8 22 -8 41 -1 119
1 14 6 28 12 32 6 4 6 11 -1 20 -6 8 -7 21 -2 33 4 11 8 46 8 77 1 31 6 60 11
63 6 3 10 15 10 25 0 16 12 27 33 29 4 1 7 -3 7 -8z m1570 -341 c0 -5 9 -10
19 -10 51 0 159 -79 186 -136 22 -47 29 -124 11 -124 -8 0 -16 -6 -19 -14 -7
-18 3 -59 16 -68 15 -10 15 -60 -1 -65 -7 -3 -11 -12 -8 -19 3 -8 -8 -28 -25
-46 -16 -18 -27 -38 -24 -45 2 -7 0 -13 -5 -13 -6 0 -10 -9 -10 -20 0 -23 20
-70 30 -70 4 0 5 -23 2 -51 -4 -41 -1 -54 12 -61 9 -5 16 -18 16 -28 0 -11 7
-20 15 -20 8 0 15 -3 16 -7 0 -5 2 -18 5 -31 2 -14 -4 -28 -18 -40 -36 -29
-120 -112 -113 -112 4 0 -1 -7 -9 -16 -9 -8 -16 -21 -16 -29 0 -7 -7 -15 -15
-19 -8 -3 -15 -16 -15 -30 0 -13 -6 -26 -13 -29 -9 -3 -12 -20 -10 -52 4 -52
-18 -85 -56 -85 -10 0 -22 -7 -25 -16 -3 -8 -10 -13 -15 -10 -5 3 -14 -1 -20
-8 -7 -8 -29 -14 -49 -14 -20 1 -44 -2 -52 -4 -8 -3 -35 -11 -60 -19 -25 -7
-49 -16 -54 -21 -6 -4 -27 -8 -48 -8 -27 0 -38 4 -38 15 0 8 7 15 15 15 8 0
15 7 15 15 0 8 5 15 10 15 6 0 10 9 10 20 0 10 9 24 21 31 14 7 19 17 16 30
-3 10 -2 21 2 23 7 4 6 95 -1 127 -4 19 -63 80 -71 73 -2 -3 -17 7 -33 21 -15
14 -33 24 -41 21 -7 -3 -15 0 -19 5 -3 6 -16 8 -27 5 -12 -3 -26 -1 -33 5 -22
18 -26 -10 -5 -33 12 -12 23 -30 27 -40 3 -10 10 -15 16 -12 7 5 9 0 6 -14 -4
-12 -2 -25 3 -28 5 -3 6 -16 3 -30 -3 -13 -2 -24 3 -24 6 0 10 -12 11 -27 0
-16 4 -43 7 -61 5 -21 3 -38 -6 -48 -7 -9 -12 -33 -10 -55 1 -23 -2 -39 -8
-39 -6 0 -11 -8 -11 -19 0 -22 -75 -47 -85 -27 -3 8 -7 8 -11 -1 -3 -8 -16
-10 -35 -6 -17 3 -29 1 -29 -5 0 -18 -72 -27 -275 -36 -144 -7 -205 5 -228 43
-13 23 -13 31 2 76 9 28 20 56 24 63 5 7 5 21 2 32 -4 11 -3 20 2 20 8 0 33
47 33 61 0 5 11 20 25 35 14 15 28 39 31 53 4 14 11 31 18 36 17 16 36 53 36
70 0 15 7 26 40 63 9 9 21 28 28 42 26 54 54 90 72 90 6 0 9 4 5 9 -3 5 -1 12
5 16 6 3 16 21 24 38 7 18 23 42 35 54 11 12 21 28 21 35 1 7 14 24 30 38 17
13 30 28 30 33 0 12 29 40 54 52 12 6 22 21 24 33 2 12 8 22 14 22 5 0 31 23
58 50 27 28 53 50 59 50 7 0 29 18 51 40 21 21 50 42 63 45 14 4 27 15 30 26
3 12 17 22 36 25 17 4 33 14 36 24 9 29 111 107 148 114 19 4 42 15 52 26 19
21 65 28 65 10z"/>
</g>
</svg>
